<svg xmlns="http://www.w3.org/2000/svg" viewBox="0 0 279.5 609.08">


	<defs>

		<style type="text/css">


			.cls-1{fill:none;}

			.cls-1,.cls-2,.cls-3,.cls-4{
			stroke:#fff;
			stroke-linecap:round;
			stroke-linejoin:round;

			stroke-dasharray: 1350;
			stroke-dashoffset: 0;
			-webkit-animation: dash 5s linear forwards;
			-o-animation: dash 5s linear forwards;
			-moz-animation: dash 5s linear forwards;
			animation: dash 5s linear forwards;

			}

			.cls-1,.cls-2{stroke-width:12px;}

			.cls-2,.cls-3,.cls-4{fill:red;}

			.cls-4{stroke-width:8px;}


			@-webkit-keyframes dash{
				from{
					stroke-dashoffset: 1350;
				}

				to{
					stoke-dashoffset: 0;
				}
			}

		</style>

	</defs>

	<title>mars_path2</title><g id="Layer_2" data-name="Layer 2"><g id="Layer_1-2" data-name="Layer 1"><path class="cls-1" d="M217,29.41S144-19.54,66.52,24.13c-72.1,40.65-24.86,141.33,69.33,142.68,79,1.13,144.25-78.67,58.73-122.38-64.31-32.87-139.9-9.11-161.67,58.15C18.8,146.18,2.33,251.18,45.39,363.48c52,135.64,190.74,202.24,190.74,202.24"/><circle class="cls-2" cx="236.13" cy="565.71" r="37.37"/><circle class="cls-3" cx="216.89" cy="29.49" r="5.26"/><path class="cls-4" d="M141.25,494.49l-5.93-22.15a4.25,4.25,0,0,0-7.11-1.91L112,486.65a4.25,4.25,0,0,0,1.91,7.11L136,499.7A4.25,4.25,0,0,0,141.25,494.49Z"/><path class="cls-4" d="M45.5,352.83l4.91-22.4a4.25,4.25,0,0,0-5.44-5l-21.85,6.95a4.25,4.25,0,0,0-1.58,7.19l16.94,15.45A4.25,4.25,0,0,0,45.5,352.83Z"/><path class="cls-4" d="M21.6,193.36l13-18.88a4.25,4.25,0,0,0-3.16-6.65L8.6,166a4.25,4.25,0,0,0-4.18,6.06l9.84,20.71A4.25,4.25,0,0,0,21.6,193.36Z"/></g></g></svg>