<svg xmlns="http://www.w3.org/2000/svg" viewBox="0 0 1083.26 301.12"><defs><style>.cls-1{fill:#fff;}</style></defs><title>nasa</title><g id="Layer_2" data-name="Layer 2"><g id="Layer_1-2" data-name="Layer 1"><g id="NtjWEG.tif"><path class="cls-1" d="M789,6.84V67.1H641.77c-18.91,0-31.32,15-27.87,33.79,2.61,14.19,10.66,20.93,25,20.94,24.75,0,49.49-.09,74.24.08a52.61,52.61,0,0,1,14.42,1.84c25.94,7.69,47.12,22.36,62.94,44.42,9.68,13.5,13,28.71,11.51,45.17-2,22.57-10.57,42.18-26.12,58.7-14.5,15.4-32.53,21.9-53.46,21.87q-102.42-.19-204.84,0c-4,0-5.58-1.35-6.77-5q-34.1-106.15-68.43-212.23c-2.17-6.72-5.13-9.56-10.16-9.58s-8.67,3.18-10.77,9.75l-66.9,208.74c-2.58,8-2.57,8-10.81,8q-26.82-.13-53.64-.19h-6.66c2.54-8.37,4.78-15.91,7.12-23.42,22.58-72.52,45.3-145,67.69-217.57,8.91-28.89,29.13-44.53,57.77-49.76,22.5-4.11,44.36-1.93,63.42,12.56A72.2,72.2,0,0,1,504.8,51.49c18,56.93,35.62,114,53.38,171a25.72,25.72,0,0,1,.83,2.58c1.15,5.78,4.11,8,10.49,8,46.78-.31,93.57-.42,140.35-.07,23.66.18,31.61-22.21,27.43-36.21-3-10.17-9.26-14.85-19.81-14.84q-42.27,0-84.53,0c-40,0-69.24-21.82-79.92-60.55-6.36-23-6.05-46.2,3.16-68.53,11.27-27.32,33-41,61.48-45.1a126.77,126.77,0,0,1,17.81-1.12q74.51-.13,149,0C785.73,6.6,787,6.73,789,6.84Z"/><path class="cls-1" d="M63.32,293H0c0-2.31,0-4.26,0-6.21Q0,178.65,0,70.53C0,58.7,1.4,47.11,5.55,36,11.18,20.83,21.32,10.21,37,5.46,57.08-.64,77.61-2.23,97.83,3.8c29,8.64,47.78,27.94,56.08,57.27q20.19,71.36,40.58,142.65c2.43,8.49,5.38,16.85,8.34,25.18a18.8,18.8,0,0,0,3.79,5.85c3.62,4.08,8.17,4.1,12.9,2.31,4.45-1.68,5.34-5.3,5.33-9.63q-.09-57.45,0-114.89,0-49,0-98.09c0-2.13,0-4.25,0-6.74h65.48v6c0,71.36.11,142.72-.08,214.07,0,17-3,33.44-13.08,47.83-11.57,16.55-28.19,23.79-47.62,25.13s-38.55-1.25-56.42-9.93c-16.36-8-27-20.56-32-38.16q-23.65-83-47.64-166A86.53,86.53,0,0,0,90,75.91a30.16,30.16,0,0,0-5.08-8.18C79.85,62.15,71,62.4,67.27,68.88a31.07,31.07,0,0,0-3.79,14.79c-.24,67.2-.16,134.4-.16,201.61C63.32,287.75,63.32,290.22,63.32,293Z"/><path class="cls-1" d="M1083.26,293.85h-6.66c-17.52,0-35-.13-52.56.09-4.21.05-6.23-1-7.63-5.32Q982.49,182.69,948.18,76.9c-1.63-5.06-3.82-9.53-10-9.81-5.24-.24-8.88,3.06-11.11,10q-33.72,105.13-67.29,210.31c-1.64,5.16-3.92,6.39-9.06,6.27-18.23-.42-36.48-.27-54.72-.33h-6.79c1.59-5.39,2.92-10.13,4.38-14.84C817,203.23,840.78,128.07,863.72,52.64,874.26,18,903.1,3.45,929.91,1.54a104.6,104.6,0,0,1,32.16,2.54c25.58,6.35,41.22,24.39,48.68,48.65,23.33,75.87,45.84,152,68.66,228C1080.64,284.86,1081.83,289,1083.26,293.85Z"/></g></g></g></svg>