<svg xmlns="http://www.w3.org/2000/svg" xmlns:xlink="http://www.w3.org/1999/xlink" viewBox="0 0 226.16 350.53"><defs><style>.cls-1,.cls-18,.cls-20,.cls-21,.cls-4,.cls-5{fill:none;}.cls-2,.cls-3,.cls-4{stroke:#000;stroke-width:7.54px;}.cls-18,.cls-2,.cls-20,.cls-21,.cls-3,.cls-4,.cls-5{stroke-miterlimit:10;}.cls-3{fill:red;}.cls-20,.cls-21,.cls-5{stroke:#ea1c24;}.cls-5{stroke-width:0.75px;}.cls-6{font-size:25.45px;}.cls-6,.cls-7{font-family:Union-Bold, Union;font-weight:700;}.cls-7{font-size:12.06px;fill:red;}.cls-8{letter-spacing:-0.06em;}.cls-9{letter-spacing:-0.02em;}.cls-10{letter-spacing:-0.08em;}.cls-11{letter-spacing:-0.01em;}.cls-12{letter-spacing:0em;}.cls-13{letter-spacing:-0.01em;}.cls-14{letter-spacing:-0.01em;}.cls-15{letter-spacing:-0.02em;}.cls-16{letter-spacing:-0.01em;}.cls-17{clip-path:url(#clip-path);}.cls-18{stroke:#fff;stroke-width:2.26px;}.cls-19{fill:red;}.cls-20,.cls-21{stroke-width:1.51px;}.cls-21{stroke-dasharray:9.33 9.33;}.cls-22{fill:#fff;}</style><clipPath id="clip-path"><rect class="cls-1" x="56.87" y="72.89" width="163.43" height="37.09"/></clipPath></defs><title>04</title><g id="Layer_2" data-name="Layer 2"><g id="Layer_1-2" data-name="Layer 1"><path class="cls-2" d="M207.48,37.15A12.82,12.82,0,0,1,220.3,50v296.8H56.87V37.15"/><line class="cls-3" x1="44.05" y1="37.15" x2="207.48" y2="37.15"/><circle class="cls-2" cx="44.05" cy="49.96" r="12.82"/><path class="cls-4" d="M136.83,272.26"/><polygon class="cls-5" points="56.85 112.93 158.21 86.85 220.31 112.93 220.31 346.76 56.88 346.76 56.85 112.93"/><text class="cls-6" transform="translate(0 21.82)">4.</text><text class="cls-7" transform="translate(65.05 298.77)"><tspan class="cls-8">A</tspan><tspan x="7.75" y="0">T 11:49 PM E</tspan><tspan class="cls-9" x="82.13" y="0">S</tspan><tspan x="89.84" y="0">T</tspan><tspan x="0" y="12.82">NAS</tspan><tspan class="cls-10" x="25.17" y="12.82">A</tspan><tspan x="32.67" y="12.82">’S </tspan><tspan class="cls-11" x="47.22" y="12.82">R</tspan><tspan class="cls-12" x="55.54" y="12.82">OCKET</tspan><tspan x="0" y="25.64">B</tspan><tspan class="cls-13" x="8.55" y="25.64">E</tspan><tspan x="16.55" y="25.64">GINS ENT</tspan><tspan class="cls-14" x="73.58" y="25.64">R</tspan><tspan class="cls-12" x="81.96" y="25.64">Y</tspan><tspan x="0" y="38.45">IN</tspan><tspan class="cls-15" x="12.27" y="38.45">T</tspan><tspan class="cls-12" x="19.41" y="38.45">O MAR</tspan><tspan class="cls-16" x="59.54" y="38.45">S</tspan><tspan x="67.35" y="38.45">’ ORBIT</tspan></text><g class="cls-17"><path class="cls-18" d="M51.36,89.16c27.18-1.82,55.8-2.79,85.33-2.79,31,0,61,1.07,89.38,3.07"/></g><circle class="cls-19" cx="158.21" cy="86.85" r="16.18"/><path class="cls-20" d="M158.21,86.85s1.41.88,3.74,2.54"/><path class="cls-21" d="M169.33,95.1C188.07,110.74,221,147,189.81,190.44c-32.23,44.81-99.86,68-124.08,75.15"/><path class="cls-20" d="M61.24,266.87c-2.81.77-4.37,1.15-4.37,1.15"/><path class="cls-22" d="M179.93,95.83H177.4A6.63,6.63,0,0,0,171.57,90V87.47h-1.51V90a6.63,6.63,0,0,0-5.82,5.82H161.7v1.51h2.54a6.63,6.63,0,0,0,5.82,5.82v2.54h1.51v-2.54a6.63,6.63,0,0,0,5.82-5.82h2.54Zm-8.36,5.81V99.21h-1.51v2.43a5.12,5.12,0,0,1-4.3-4.3h2.43V95.83h-2.43a5.12,5.12,0,0,1,4.3-4.3V94h1.51V91.53a5.12,5.12,0,0,1,4.3,4.3h-2.43v1.51h2.43A5.12,5.12,0,0,1,171.57,101.64Z"/></g></g></svg>