<svg xmlns="http://www.w3.org/2000/svg" xmlns:xlink="http://www.w3.org/1999/xlink" viewBox="0 0 226.29 350.53"><defs><style>.cls-1,.cls-22,.cls-24,.cls-4{fill:none;}.cls-2{font-size:25.45px;}.cls-2,.cls-7{font-family:Union-Bold, Union;font-weight:700;}.cls-3,.cls-4{stroke:#000;stroke-width:7.54px;}.cls-22,.cls-24,.cls-25,.cls-3,.cls-4{stroke-miterlimit:10;}.cls-5{clip-path:url(#clip-path);}.cls-25,.cls-6{fill:red;}.cls-7{font-size:12.06px;}.cls-18,.cls-26,.cls-7{fill:#fff;}.cls-8{letter-spacing:-0.06em;}.cls-9{letter-spacing:-0.02em;}.cls-10{letter-spacing:-0.08em;}.cls-11{letter-spacing:-0.01em;}.cls-12{letter-spacing:0em;}.cls-13{letter-spacing:-0.01em;}.cls-14{letter-spacing:0em;}.cls-15{letter-spacing:0em;}.cls-16{letter-spacing:-0.07em;}.cls-17{letter-spacing:-0.02em;}.cls-18{font-size:7.54px;font-family:Union-Regular, Union;}.cls-19,.cls-20,.cls-21{font-family:MyriadPro-Regular, Myriad Pro;}.cls-20{letter-spacing:-0.09em;}.cls-21{letter-spacing:-0.09em;}.cls-22,.cls-24,.cls-25{stroke:#fff;}.cls-22{stroke-width:0.75px;}.cls-23{clip-path:url(#clip-path-2);}.cls-24{stroke-width:2.26px;}.cls-25{stroke-width:2px;}</style><clipPath id="clip-path"><polygon class="cls-1" points="220.29 346.76 57.14 346.76 57.14 88.8 142.59 86.37 220.29 89.04 220.29 346.76"/></clipPath><clipPath id="clip-path-2"><rect class="cls-1" x="57" y="72.89" width="163.43" height="37.09"/></clipPath></defs><title>05_1</title><g id="Layer_2" data-name="Layer 2"><g id="Layer_1-2" data-name="Layer 1"><text class="cls-2" transform="translate(0 21.82)">5.</text><path class="cls-3" d="M207.48,37.15A12.82,12.82,0,0,1,220.3,50v296.8H56.87V37.15"/><line class="cls-3" x1="44.05" y1="37.15" x2="207.48" y2="37.15"/><circle class="cls-3" cx="44.05" cy="49.96" r="12.82"/><path class="cls-4" d="M132.3,272.26"/><g class="cls-5"><rect class="cls-6" x="54.37" y="86.37" width="168.04" height="262.33"/></g><text class="cls-7" transform="translate(68.68 298.77)"><tspan class="cls-8">A</tspan><tspan x="7.75" y="0">T 12:09 PM E</tspan><tspan class="cls-9" x="82.13" y="0">S</tspan><tspan x="89.84" y="0">T</tspan><tspan x="0" y="12.82">NAS</tspan><tspan class="cls-10" x="25.17" y="12.82">A</tspan><tspan x="32.67" y="12.82">’S </tspan><tspan class="cls-11" x="47.22" y="12.82">R</tspan><tspan class="cls-12" x="55.54" y="12.82">OCKET</tspan><tspan x="0" y="25.64">LANDS ON THE</tspan><tspan x="0" y="38.45">MA</tspan><tspan class="cls-13" x="18.96" y="38.45">R</tspan><tspan class="cls-14" x="27.35" y="38.45">T</tspan><tspan class="cls-15" x="34.73" y="38.45">IAN SUR</tspan><tspan class="cls-16" x="83.98" y="38.45">F</tspan><tspan class="cls-17" x="90.25" y="38.45">AC</tspan><tspan x="107.03" y="38.45">E</tspan></text><text class="cls-18" transform="translate(68.32 128.72)"><tspan xml:space="preserve">N  41°   4</tspan><tspan class="cls-19" x="29.69" y="0">’</tspan><tspan x="31.25" y="0" xml:space="preserve">   33.07</tspan><tspan class="cls-20" x="55.31" y="0">”</tspan></text><text class="cls-18" transform="translate(68.32 190.44)"><tspan xml:space="preserve">W  71°   24</tspan><tspan class="cls-19" x="35.51" y="0">’</tspan><tspan x="37.07" y="0" xml:space="preserve">   27.85</tspan><tspan class="cls-21" x="61.13" y="0">”</tspan></text><polyline class="cls-22" points="212.22 280.44 64.96 280.44 64.96 120.47 212.22 120.47"/><line class="cls-22" x1="64.96" y1="268.02" x2="212.22" y2="268.02"/><line class="cls-22" x1="64.96" y1="255.68" x2="212.22" y2="255.68"/><line class="cls-22" x1="64.96" y1="243.33" x2="212.22" y2="243.33"/><line class="cls-22" x1="64.96" y1="230.99" x2="212.22" y2="230.99"/><line class="cls-22" x1="65.06" y1="218.65" x2="212.32" y2="218.63"/><line class="cls-22" x1="65.03" y1="206.31" x2="212.29" y2="206.29"/><line class="cls-22" x1="65" y1="193.96" x2="212.26" y2="193.94"/><line class="cls-22" x1="64.97" y1="181.62" x2="212.23" y2="181.6"/><line class="cls-22" x1="64.94" y1="169.28" x2="212.2" y2="169.25"/><line class="cls-22" x1="64.91" y1="156.93" x2="212.17" y2="156.91"/><line class="cls-22" x1="64.88" y1="144.59" x2="212.14" y2="144.57"/><line class="cls-22" x1="64.85" y1="132.24" x2="212.11" y2="132.22"/><polyline class="cls-22" points="138.8 87.84 212.32 87.84 212.32 280.53"/><line class="cls-22" x1="138.8" y1="87.88" x2="138.82" y2="280.56"/><line class="cls-22" x1="151.15" y1="87.85" x2="151.17" y2="280.54"/><line class="cls-22" x1="163.5" y1="87.83" x2="163.52" y2="280.51"/><line class="cls-22" x1="175.85" y1="87.8" x2="175.87" y2="280.49"/><line class="cls-22" x1="188.2" y1="87.78" x2="188.22" y2="280.47"/><line class="cls-22" x1="200.55" y1="87.76" x2="200.57" y2="280.44"/><polyline class="cls-22" points="64.97 87.77 126.14 87.77 126.14 120.47"/><line class="cls-22" x1="64.97" y1="87.77" x2="64.99" y2="120.47"/><line class="cls-22" x1="77.32" y1="87.77" x2="77.34" y2="120.46"/><line class="cls-22" x1="89.67" y1="87.77" x2="89.69" y2="120.46"/><line class="cls-22" x1="102.02" y1="87.76" x2="102.04" y2="120.46"/><line class="cls-22" x1="114.37" y1="87.76" x2="114.39" y2="120.45"/><polyline class="cls-22" points="64.97 132.27 126.14 132.27 126.14 181.62"/><line class="cls-22" x1="64.97" y1="132.27" x2="64.99" y2="181.63"/><line class="cls-22" x1="77.32" y1="132.26" x2="77.34" y2="181.62"/><line class="cls-22" x1="89.67" y1="132.26" x2="89.69" y2="181.61"/><line class="cls-22" x1="102.02" y1="132.25" x2="102.04" y2="181.61"/><line class="cls-22" x1="114.37" y1="132.25" x2="114.39" y2="181.6"/><polyline class="cls-22" points="65.12 194.02 126.14 194.02 126.14 280.44"/><line class="cls-22" x1="64.97" y1="194.03" x2="64.99" y2="280.44"/><line class="cls-22" x1="77.32" y1="194.02" x2="77.34" y2="280.43"/><line class="cls-22" x1="89.67" y1="194.01" x2="89.69" y2="280.42"/><line class="cls-22" x1="102.02" y1="194" x2="102.04" y2="280.41"/><line class="cls-22" x1="114.37" y1="193.99" x2="114.39" y2="280.4"/><g class="cls-23"><path class="cls-24" d="M51.49,89.16c27.18-1.82,55.8-2.79,85.33-2.79,31,0,61,1.07,89.38,3.07"/></g><circle class="cls-25" cx="142.59" cy="86.85" r="16.18"/><path class="cls-26" d="M145.4,90.89h-1.83a4.79,4.79,0,0,0-4.2-4.2V84.86h-1.09v1.83a4.79,4.79,0,0,0-4.2,4.2h-1.83V92h1.83a4.79,4.79,0,0,0,4.2,4.2V98h1.09V96.19a4.79,4.79,0,0,0,4.2-4.2h1.83Zm-6,4.19V93.33h-1.09v1.75a3.69,3.69,0,0,1-3.1-3.1h1.75V90.89h-1.75a3.69,3.69,0,0,1,3.1-3.1v1.75h1.09V87.79a3.69,3.69,0,0,1,3.1,3.1h-1.75V92h1.75A3.69,3.69,0,0,1,139.36,95.09Z"/></g></g></svg>