<svg xmlns="http://www.w3.org/2000/svg" viewBox="0 0 335.21 540.74"><defs><style>.cls-1,.cls-3,.cls-4{fill:#fff;}.cls-1,.cls-2,.cls-9{stroke:#000;stroke-width:12.86px;}.cls-1,.cls-2,.cls-8,.cls-9{stroke-miterlimit:10;}.cls-2{fill:red;}.cls-4{font-size:10.69px;font-family:Union-Bold, Union;font-weight:700;}.cls-5{letter-spacing:-0.01em;}.cls-6{letter-spacing:-0.02em;}.cls-7{letter-spacing:-0.01em;}.cls-8,.cls-9{fill:none;}.cls-8{stroke:#fff;stroke-width:1.18px;}</style></defs><title>1f_1</title><g id="Layer_2" data-name="Layer 2"><g id="Layer_1-2" data-name="Layer 1"><rect class="cls-1" x="50.13" y="292.12" width="278.65" height="242.19"/><path class="cls-2" d="M328.78,292.12H50.13V28.28L42.82,6.43H308.06a20.73,20.73,0,0,1,20.73,20.73Z"/><path class="cls-2" d="M306.93,6.43a21.85,21.85,0,0,1,21.85,21.85V292.12H50.13V28.28"/><line class="cls-2" x1="28.28" y1="6.43" x2="306.93" y2="6.43"/><circle class="cls-2" cx="28.28" cy="28.28" r="21.85"/><g id="NtjWEG.tif"><path class="cls-3" d="M259.06,224v9.8H235.11a4.46,4.46,0,0,0-4.53,5.5,3.7,3.7,0,0,0,4.07,3.41c4,0,8.05,0,12.08,0a8.56,8.56,0,0,1,2.35.3,18.84,18.84,0,0,1,10.24,7.22,10.56,10.56,0,0,1,1.87,7.35,15.57,15.57,0,0,1-4.25,9.55,11.32,11.32,0,0,1-8.7,3.56q-16.66,0-33.32,0a1,1,0,0,1-1.1-.82q-5.55-17.27-11.13-34.52c-.35-1.09-.83-1.56-1.65-1.56s-1.41.52-1.75,1.59l-10.88,34c-.42,1.31-.42,1.3-1.76,1.3l-8.73,0h-1.08c.41-1.36.78-2.59,1.16-3.81,3.67-11.8,7.37-23.59,11-35.39,1.45-4.7,4.74-7.24,9.4-8.09,3.66-.67,7.22-.31,10.32,2a11.74,11.74,0,0,1,4.12,5.91c2.93,9.26,5.79,18.54,8.68,27.82a4.18,4.18,0,0,1,.13.42c.19.94.67,1.3,1.71,1.3,7.61-.05,15.22-.07,22.83,0a4.56,4.56,0,0,0,4.46-5.89,3,3,0,0,0-3.22-2.41H233.68c-6.51,0-11.26-3.55-13-9.85a16.85,16.85,0,0,1,.51-11.15c1.83-4.44,5.37-6.67,10-7.34a20.62,20.62,0,0,1,2.9-.18q12.12,0,24.24,0C258.53,224,258.74,224,259.06,224Z"/><path class="cls-3" d="M141.35,270.58h-10.3c0-.38,0-.69,0-1q0-17.59,0-35.17a15.92,15.92,0,0,1,.9-5.62,7.65,7.65,0,0,1,5.11-5,17,17,0,0,1,9.9-.27,12.8,12.8,0,0,1,9.12,9.31q3.28,11.61,6.6,23.2c.4,1.38.88,2.74,1.36,4.1a3.06,3.06,0,0,0,.62,1,1.74,1.74,0,0,0,2.1.38c.72-.27.87-.86.87-1.57q0-9.34,0-18.69,0-8,0-16c0-.35,0-.69,0-1.1h10.65v1c0,11.61,0,23.21,0,34.82a13.2,13.2,0,0,1-2.13,7.78,9.7,9.7,0,0,1-7.75,4.09,17.79,17.79,0,0,1-9.18-1.62A9.48,9.48,0,0,1,154,264q-3.85-13.51-7.75-27a14.08,14.08,0,0,0-.57-1.76,4.91,4.91,0,0,0-.83-1.33,1.77,1.77,0,0,0-2.87.19,5.05,5.05,0,0,0-.62,2.41c0,10.93,0,21.86,0,32.79C141.35,269.73,141.35,270.13,141.35,270.58Z"/><path class="cls-3" d="M306.93,270.72h-1.08c-2.85,0-5.7,0-8.55,0a1.06,1.06,0,0,1-1.24-.87q-5.52-17.23-11.1-34.44c-.27-.82-.62-1.55-1.63-1.6-.85,0-1.44.5-1.81,1.63q-5.49,17.1-10.95,34.21a1.23,1.23,0,0,1-1.47,1c-3-.07-5.93,0-8.9-.05h-1.1c.26-.88.47-1.65.71-2.41,3.81-12.24,7.68-24.47,11.41-36.74,1.71-5.64,6.41-8,10.77-8.31a17,17,0,0,1,5.23.41c4.16,1,6.7,4,7.92,7.91,3.8,12.34,7.46,24.72,11.17,37.09C306.5,269.26,306.7,269.93,306.93,270.72Z"/></g><g id="NtjWEG.tif-2" data-name="NtjWEG.tif"><path class="cls-3" d="M292.32,179.27v3H285a1.36,1.36,0,0,0-1.38,1.68,1.13,1.13,0,0,0,1.24,1h3.68a2.61,2.61,0,0,1,.72.09,5.75,5.75,0,0,1,3.12,2.2,3.22,3.22,0,0,1,.57,2.24,4.75,4.75,0,0,1-1.3,2.91,3.46,3.46,0,0,1-2.65,1.09H278.85a.3.3,0,0,1-.34-.25q-1.69-5.27-3.4-10.53c-.11-.33-.25-.47-.5-.48s-.43.16-.53.48l-3.32,10.36c-.13.4-.13.4-.54.4h-3l.35-1.16c1.12-3.6,2.25-7.2,3.36-10.8a3.41,3.41,0,0,1,2.87-2.47,3.83,3.83,0,0,1,3.15.62,3.58,3.58,0,0,1,1.26,1.8c.89,2.83,1.77,5.66,2.65,8.49a1.28,1.28,0,0,1,0,.13c.06.29.2.4.52.4,2.32,0,4.64,0,7,0a1.39,1.39,0,0,0,1.36-1.8.92.92,0,0,0-1-.74h-4.2a3.87,3.87,0,0,1-4-3,5.14,5.14,0,0,1,.16-3.4,3.6,3.6,0,0,1,3.05-2.24,6.29,6.29,0,0,1,.88-.06h7.62Z"/><path class="cls-3" d="M256.41,193.48h-3.14c0-.11,0-.21,0-.31q0-5.37,0-10.73a4.86,4.86,0,0,1,.28-1.72,2.33,2.33,0,0,1,1.56-1.51,5.17,5.17,0,0,1,3-.08A3.91,3.91,0,0,1,260.9,182q1,3.54,2,7.08c.12.42.27.84.41,1.25a.93.93,0,0,0,.19.29.53.53,0,0,0,.64.11c.22-.08.27-.26.26-.48q0-2.85,0-5.7,0-2.43,0-4.87c0-.11,0-.21,0-.33h3.25v.3c0,3.54,0,7.08,0,10.63a4,4,0,0,1-.65,2.37,3,3,0,0,1-2.36,1.25,5.43,5.43,0,0,1-2.8-.49,2.89,2.89,0,0,1-1.59-1.89q-1.17-4.12-2.36-8.24a4.29,4.29,0,0,0-.17-.54,1.5,1.5,0,0,0-.25-.41.54.54,0,0,0-.88.06,1.54,1.54,0,0,0-.19.73c0,3.34,0,6.67,0,10C256.41,193.22,256.41,193.34,256.41,193.48Z"/><path class="cls-3" d="M306.93,193.52H304a.32.32,0,0,1-.38-.26q-1.68-5.26-3.39-10.51c-.08-.25-.19-.47-.5-.49s-.44.15-.55.5q-1.67,5.22-3.34,10.44a.38.38,0,0,1-.45.31c-.9,0-1.81,0-2.72,0h-.34c.08-.27.14-.5.22-.74,1.16-3.74,2.34-7.47,3.48-11.21a3.55,3.55,0,0,1,3.29-2.54,5.19,5.19,0,0,1,1.6.13,3.31,3.31,0,0,1,2.42,2.41c1.16,3.77,2.28,7.54,3.41,11.32Z"/></g><g id="NtjWEG.tif-3" data-name="NtjWEG.tif"><path class="cls-3" d="M231.84,179.27v3h-7.31a1.36,1.36,0,0,0-1.38,1.68,1.13,1.13,0,0,0,1.24,1h3.68a2.61,2.61,0,0,1,.72.09,5.75,5.75,0,0,1,3.12,2.2,3.22,3.22,0,0,1,.57,2.24,4.75,4.75,0,0,1-1.3,2.91,3.46,3.46,0,0,1-2.65,1.09H218.38a.3.3,0,0,1-.34-.25q-1.69-5.27-3.4-10.53c-.11-.33-.25-.47-.5-.48s-.43.16-.53.48l-3.32,10.36c-.13.4-.13.4-.54.4h-3l.35-1.16c1.12-3.6,2.25-7.2,3.36-10.8a3.41,3.41,0,0,1,2.87-2.47,3.83,3.83,0,0,1,3.15.62,3.58,3.58,0,0,1,1.26,1.8c.89,2.83,1.77,5.66,2.65,8.49a1.28,1.28,0,0,1,0,.13c.06.29.2.4.52.4,2.32,0,4.64,0,7,0a1.39,1.39,0,0,0,1.36-1.8.92.92,0,0,0-1-.74h-4.2a3.87,3.87,0,0,1-4-3,5.14,5.14,0,0,1,.16-3.4,3.6,3.6,0,0,1,3.05-2.24,6.29,6.29,0,0,1,.88-.06h7.62Z"/><path class="cls-3" d="M195.93,193.48h-3.14c0-.11,0-.21,0-.31q0-5.37,0-10.73a4.86,4.86,0,0,1,.28-1.72,2.33,2.33,0,0,1,1.56-1.51,5.17,5.17,0,0,1,3-.08,3.91,3.91,0,0,1,2.78,2.84q1,3.54,2,7.08c.12.42.27.84.41,1.25a.93.93,0,0,0,.19.29.53.53,0,0,0,.64.11c.22-.08.27-.26.26-.48q0-2.85,0-5.7,0-2.43,0-4.87c0-.11,0-.21,0-.33h3.25v.3c0,3.54,0,7.08,0,10.63a4,4,0,0,1-.65,2.37,3,3,0,0,1-2.36,1.25,5.43,5.43,0,0,1-2.8-.49,2.89,2.89,0,0,1-1.59-1.89q-1.17-4.12-2.36-8.24a4.29,4.29,0,0,0-.17-.54,1.5,1.5,0,0,0-.25-.41.54.54,0,0,0-.88.06,1.54,1.54,0,0,0-.19.73c0,3.34,0,6.67,0,10C195.93,193.22,195.93,193.34,195.93,193.48Z"/><path class="cls-3" d="M246.45,193.52h-2.94a.32.32,0,0,1-.38-.26q-1.68-5.26-3.39-10.51c-.08-.25-.19-.47-.5-.49s-.44.15-.55.5Q237,188,235.36,193.2a.38.38,0,0,1-.45.31c-.9,0-1.81,0-2.72,0h-.34c.08-.27.14-.5.22-.74,1.16-3.74,2.34-7.47,3.48-11.21a3.55,3.55,0,0,1,3.29-2.54,5.19,5.19,0,0,1,1.6.13,3.31,3.31,0,0,1,2.42,2.41c1.16,3.77,2.28,7.54,3.41,11.32Z"/></g><g id="NtjWEG.tif-4" data-name="NtjWEG.tif"><path class="cls-3" d="M171,179.27v3h-7.31a1.36,1.36,0,0,0-1.38,1.68,1.13,1.13,0,0,0,1.24,1h3.68a2.61,2.61,0,0,1,.72.09,5.75,5.75,0,0,1,3.12,2.2,3.22,3.22,0,0,1,.57,2.24,4.75,4.75,0,0,1-1.3,2.91,3.46,3.46,0,0,1-2.65,1.09H157.5a.3.3,0,0,1-.34-.25q-1.69-5.27-3.4-10.53c-.11-.33-.25-.47-.5-.48s-.43.16-.53.48l-3.32,10.36c-.13.4-.13.4-.54.4h-3l.35-1.16c1.12-3.6,2.25-7.2,3.36-10.8a3.41,3.41,0,0,1,2.87-2.47,3.83,3.83,0,0,1,3.15.62,3.58,3.58,0,0,1,1.26,1.8c.89,2.83,1.77,5.66,2.65,8.49a1.28,1.28,0,0,1,0,.13c.06.29.2.4.52.4,2.32,0,4.64,0,7,0a1.39,1.39,0,0,0,1.36-1.8.92.92,0,0,0-1-.74h-4.2a3.87,3.87,0,0,1-4-3,5.14,5.14,0,0,1,.16-3.4,3.6,3.6,0,0,1,3.05-2.24,6.29,6.29,0,0,1,.88-.06H171Z"/><path class="cls-3" d="M135,193.48h-3.14c0-.11,0-.21,0-.31q0-5.37,0-10.73a4.86,4.86,0,0,1,.28-1.72,2.33,2.33,0,0,1,1.56-1.51,5.17,5.17,0,0,1,3-.08,3.91,3.91,0,0,1,2.78,2.84q1,3.54,2,7.08c.12.42.27.84.41,1.25a.93.93,0,0,0,.19.29.53.53,0,0,0,.64.11c.22-.08.27-.26.26-.48q0-2.85,0-5.7,0-2.43,0-4.87c0-.11,0-.21,0-.33h3.25v.3c0,3.54,0,7.08,0,10.63a4,4,0,0,1-.65,2.37,3,3,0,0,1-2.36,1.25,5.43,5.43,0,0,1-2.8-.49,2.89,2.89,0,0,1-1.59-1.89q-1.17-4.12-2.36-8.24a4.3,4.3,0,0,0-.17-.54,1.5,1.5,0,0,0-.25-.41.54.54,0,0,0-.88.06,1.54,1.54,0,0,0-.19.73c0,3.34,0,6.67,0,10C135,193.22,135,193.34,135,193.48Z"/><path class="cls-3" d="M185.57,193.52h-2.94a.32.32,0,0,1-.38-.26q-1.68-5.26-3.39-10.51c-.08-.25-.19-.47-.5-.49s-.44.15-.55.5q-1.67,5.22-3.34,10.44a.38.38,0,0,1-.45.31c-.9,0-1.81,0-2.72,0H171c.08-.27.14-.5.22-.74,1.16-3.74,2.34-7.47,3.48-11.21A3.55,3.55,0,0,1,178,179a5.19,5.19,0,0,1,1.6.13,3.31,3.31,0,0,1,2.42,2.41c1.16,3.77,2.28,7.54,3.41,11.32Z"/></g><g id="NtjWEG.tif-5" data-name="NtjWEG.tif"><path class="cls-3" d="M109.89,179.27v3h-7.31a1.36,1.36,0,0,0-1.38,1.68,1.13,1.13,0,0,0,1.24,1h3.68a2.61,2.61,0,0,1,.72.09,5.75,5.75,0,0,1,3.12,2.2,3.22,3.22,0,0,1,.57,2.24,4.75,4.75,0,0,1-1.3,2.91,3.46,3.46,0,0,1-2.65,1.09H96.42a.3.3,0,0,1-.34-.25q-1.69-5.27-3.4-10.53c-.11-.33-.25-.47-.5-.48s-.43.16-.53.48l-3.32,10.36c-.13.4-.13.4-.54.4h-3l.35-1.16c1.12-3.6,2.25-7.2,3.36-10.8a3.41,3.41,0,0,1,2.87-2.47,3.83,3.83,0,0,1,3.15.62,3.58,3.58,0,0,1,1.26,1.8c.89,2.83,1.77,5.66,2.65,8.49a1.28,1.28,0,0,1,0,.13c.06.29.2.4.52.4,2.32,0,4.64,0,7,0a1.39,1.39,0,0,0,1.36-1.8.92.92,0,0,0-1-.74h-4.2a3.87,3.87,0,0,1-4-3,5.14,5.14,0,0,1,.16-3.4,3.6,3.6,0,0,1,3.05-2.24,6.29,6.29,0,0,1,.88-.06h7.62Z"/><path class="cls-3" d="M74,193.48H70.83c0-.11,0-.21,0-.31q0-5.37,0-10.73a4.86,4.86,0,0,1,.28-1.72,2.33,2.33,0,0,1,1.56-1.51,5.17,5.17,0,0,1,3-.08A3.91,3.91,0,0,1,78.47,182q1,3.54,2,7.08c.12.42.27.84.41,1.25a.93.93,0,0,0,.19.29.53.53,0,0,0,.64.11c.22-.08.27-.26.26-.48q0-2.85,0-5.7,0-2.43,0-4.87c0-.11,0-.21,0-.33h3.25v.3c0,3.54,0,7.08,0,10.63a4,4,0,0,1-.65,2.37,3,3,0,0,1-2.36,1.25,5.43,5.43,0,0,1-2.8-.49,2.89,2.89,0,0,1-1.59-1.89q-1.17-4.12-2.36-8.24a4.29,4.29,0,0,0-.17-.54,1.5,1.5,0,0,0-.25-.41.54.54,0,0,0-.88.06,1.54,1.54,0,0,0-.19.73c0,3.34,0,6.67,0,10C74,193.22,74,193.34,74,193.48Z"/><path class="cls-3" d="M124.5,193.52h-2.94a.32.32,0,0,1-.38-.26q-1.68-5.26-3.39-10.51c-.08-.25-.19-.47-.5-.49s-.44.15-.55.5q-1.67,5.22-3.34,10.44a.38.38,0,0,1-.45.31c-.9,0-1.81,0-2.72,0h-.34c.08-.27.14-.5.22-.74,1.16-3.74,2.34-7.47,3.48-11.21a3.55,3.55,0,0,1,3.29-2.54,5.19,5.19,0,0,1,1.6.13,3.31,3.31,0,0,1,2.42,2.41c1.16,3.77,2.28,7.54,3.41,11.32Z"/></g><g id="NtjWEG.tif-6" data-name="NtjWEG.tif"><path class="cls-3" d="M292.32,160.25v3H285a1.36,1.36,0,0,0-1.38,1.68,1.13,1.13,0,0,0,1.24,1h3.68a2.61,2.61,0,0,1,.72.09,5.75,5.75,0,0,1,3.12,2.2,3.22,3.22,0,0,1,.57,2.24,4.75,4.75,0,0,1-1.3,2.91,3.46,3.46,0,0,1-2.65,1.09H278.85a.3.3,0,0,1-.34-.25q-1.69-5.27-3.4-10.53c-.11-.33-.25-.47-.5-.48s-.43.16-.53.48l-3.32,10.36c-.13.4-.13.4-.54.4h-3l.35-1.16c1.12-3.6,2.25-7.2,3.36-10.8a3.41,3.41,0,0,1,2.87-2.47,3.83,3.83,0,0,1,3.15.62,3.58,3.58,0,0,1,1.26,1.8c.89,2.83,1.77,5.66,2.65,8.49a1.28,1.28,0,0,1,0,.13c.06.29.2.4.52.4,2.32,0,4.64,0,7,0a1.39,1.39,0,0,0,1.36-1.8.92.92,0,0,0-1-.74h-4.2a3.87,3.87,0,0,1-4-3,5.14,5.14,0,0,1,.16-3.4,3.6,3.6,0,0,1,3.05-2.24,6.29,6.29,0,0,1,.88-.06h7.62Z"/><path class="cls-3" d="M256.41,174.45h-3.14c0-.11,0-.21,0-.31q0-5.37,0-10.73a4.86,4.86,0,0,1,.28-1.72,2.33,2.33,0,0,1,1.56-1.51,5.17,5.17,0,0,1,3-.08,3.91,3.91,0,0,1,2.78,2.84q1,3.54,2,7.08c.12.42.27.84.41,1.25a.93.93,0,0,0,.19.29.53.53,0,0,0,.64.11c.22-.08.27-.26.26-.48q0-2.85,0-5.7,0-2.43,0-4.87c0-.11,0-.21,0-.33h3.25v.3c0,3.54,0,7.08,0,10.63a4,4,0,0,1-.65,2.37,3,3,0,0,1-2.36,1.25,5.43,5.43,0,0,1-2.8-.49,2.89,2.89,0,0,1-1.59-1.89q-1.17-4.12-2.36-8.24a4.29,4.29,0,0,0-.17-.54,1.5,1.5,0,0,0-.25-.41.54.54,0,0,0-.88.06,1.54,1.54,0,0,0-.19.73c0,3.34,0,6.67,0,10C256.41,174.19,256.41,174.31,256.41,174.45Z"/><path class="cls-3" d="M306.93,174.49H304a.32.32,0,0,1-.38-.26q-1.68-5.26-3.39-10.51c-.08-.25-.19-.47-.5-.49s-.44.15-.55.5q-1.67,5.22-3.34,10.44a.38.38,0,0,1-.45.31c-.9,0-1.81,0-2.72,0h-.34c.08-.27.14-.5.22-.74,1.16-3.74,2.34-7.47,3.48-11.21a3.55,3.55,0,0,1,3.29-2.54,5.19,5.19,0,0,1,1.6.13,3.31,3.31,0,0,1,2.42,2.41c1.16,3.77,2.28,7.54,3.41,11.32Z"/></g><g id="NtjWEG.tif-7" data-name="NtjWEG.tif"><path class="cls-3" d="M231.84,160.25v3h-7.31a1.36,1.36,0,0,0-1.38,1.68,1.13,1.13,0,0,0,1.24,1h3.68a2.61,2.61,0,0,1,.72.09,5.75,5.75,0,0,1,3.12,2.2,3.22,3.22,0,0,1,.57,2.24,4.75,4.75,0,0,1-1.3,2.91,3.46,3.46,0,0,1-2.65,1.09H218.38a.3.3,0,0,1-.34-.25q-1.69-5.27-3.4-10.53c-.11-.33-.25-.47-.5-.48s-.43.16-.53.48l-3.32,10.36c-.13.4-.13.4-.54.4h-3l.35-1.16c1.12-3.6,2.25-7.2,3.36-10.8a3.41,3.41,0,0,1,2.87-2.47,3.83,3.83,0,0,1,3.15.62,3.58,3.58,0,0,1,1.26,1.8c.89,2.83,1.77,5.66,2.65,8.49a1.28,1.28,0,0,1,0,.13c.06.29.2.4.52.4,2.32,0,4.64,0,7,0a1.39,1.39,0,0,0,1.36-1.8.92.92,0,0,0-1-.74h-4.2a3.87,3.87,0,0,1-4-3,5.14,5.14,0,0,1,.16-3.4,3.6,3.6,0,0,1,3.05-2.24,6.29,6.29,0,0,1,.88-.06h7.62Z"/><path class="cls-3" d="M195.93,174.45h-3.14c0-.11,0-.21,0-.31q0-5.37,0-10.73a4.86,4.86,0,0,1,.28-1.72,2.33,2.33,0,0,1,1.56-1.51,5.17,5.17,0,0,1,3-.08,3.91,3.91,0,0,1,2.78,2.84q1,3.54,2,7.08c.12.42.27.84.41,1.25a.93.93,0,0,0,.19.29.53.53,0,0,0,.64.11c.22-.08.27-.26.26-.48q0-2.85,0-5.7,0-2.43,0-4.87c0-.11,0-.21,0-.33h3.25v.3c0,3.54,0,7.08,0,10.63a4,4,0,0,1-.65,2.37,3,3,0,0,1-2.36,1.25,5.43,5.43,0,0,1-2.8-.49,2.89,2.89,0,0,1-1.59-1.89q-1.17-4.12-2.36-8.24a4.29,4.29,0,0,0-.17-.54,1.5,1.5,0,0,0-.25-.41.54.54,0,0,0-.88.06,1.54,1.54,0,0,0-.19.73c0,3.34,0,6.67,0,10C195.93,174.19,195.93,174.31,195.93,174.45Z"/><path class="cls-3" d="M246.45,174.49h-2.94a.32.32,0,0,1-.38-.26q-1.68-5.26-3.39-10.51c-.08-.25-.19-.47-.5-.49s-.44.15-.55.5Q237,169,235.36,174.17a.38.38,0,0,1-.45.31c-.9,0-1.81,0-2.72,0h-.34c.08-.27.14-.5.22-.74,1.16-3.74,2.34-7.47,3.48-11.21a3.55,3.55,0,0,1,3.29-2.54,5.19,5.19,0,0,1,1.6.13,3.31,3.31,0,0,1,2.42,2.41c1.16,3.77,2.28,7.54,3.41,11.32Z"/></g><g id="NtjWEG.tif-8" data-name="NtjWEG.tif"><path class="cls-3" d="M171,160.25v3h-7.31a1.36,1.36,0,0,0-1.38,1.68,1.13,1.13,0,0,0,1.24,1h3.68a2.61,2.61,0,0,1,.72.09,5.75,5.75,0,0,1,3.12,2.2,3.22,3.22,0,0,1,.57,2.24,4.75,4.75,0,0,1-1.3,2.91,3.46,3.46,0,0,1-2.65,1.09H157.5a.3.3,0,0,1-.34-.25q-1.69-5.27-3.4-10.53c-.11-.33-.25-.47-.5-.48s-.43.16-.53.48l-3.32,10.36c-.13.4-.13.4-.54.4h-3l.35-1.16c1.12-3.6,2.25-7.2,3.36-10.8a3.41,3.41,0,0,1,2.87-2.47,3.83,3.83,0,0,1,3.15.62,3.58,3.58,0,0,1,1.26,1.8c.89,2.83,1.77,5.66,2.65,8.49a1.28,1.28,0,0,1,0,.13c.06.29.2.4.52.4,2.32,0,4.64,0,7,0a1.39,1.39,0,0,0,1.36-1.8.92.92,0,0,0-1-.74h-4.2a3.87,3.87,0,0,1-4-3,5.14,5.14,0,0,1,.16-3.4,3.6,3.6,0,0,1,3.05-2.24,6.29,6.29,0,0,1,.88-.06H171Z"/><path class="cls-3" d="M135,174.45h-3.14c0-.11,0-.21,0-.31q0-5.37,0-10.73a4.86,4.86,0,0,1,.28-1.72,2.33,2.33,0,0,1,1.56-1.51,5.17,5.17,0,0,1,3-.08,3.91,3.91,0,0,1,2.78,2.84q1,3.54,2,7.08c.12.42.27.84.41,1.25a.93.93,0,0,0,.19.29.53.53,0,0,0,.64.11c.22-.08.27-.26.26-.48q0-2.85,0-5.7,0-2.43,0-4.87c0-.11,0-.21,0-.33h3.25v.3c0,3.54,0,7.08,0,10.63a4,4,0,0,1-.65,2.37,3,3,0,0,1-2.36,1.25,5.43,5.43,0,0,1-2.8-.49,2.89,2.89,0,0,1-1.59-1.89q-1.17-4.12-2.36-8.24a4.3,4.3,0,0,0-.17-.54,1.5,1.5,0,0,0-.25-.41.54.54,0,0,0-.88.06,1.54,1.54,0,0,0-.19.73c0,3.34,0,6.67,0,10C135,174.19,135,174.31,135,174.45Z"/><path class="cls-3" d="M185.57,174.49h-2.94a.32.32,0,0,1-.38-.26q-1.68-5.26-3.39-10.51c-.08-.25-.19-.47-.5-.49s-.44.15-.55.5q-1.67,5.22-3.34,10.44a.38.38,0,0,1-.45.31c-.9,0-1.81,0-2.72,0H171c.08-.27.14-.5.22-.74,1.16-3.74,2.34-7.47,3.48-11.21A3.55,3.55,0,0,1,178,160a5.19,5.19,0,0,1,1.6.13,3.31,3.31,0,0,1,2.42,2.41c1.16,3.77,2.28,7.54,3.41,11.32Z"/></g><g id="NtjWEG.tif-9" data-name="NtjWEG.tif"><path class="cls-3" d="M109.89,160.25v3h-7.31a1.36,1.36,0,0,0-1.38,1.68,1.13,1.13,0,0,0,1.24,1h3.68a2.61,2.61,0,0,1,.72.09,5.75,5.75,0,0,1,3.12,2.2,3.22,3.22,0,0,1,.57,2.24,4.75,4.75,0,0,1-1.3,2.91,3.46,3.46,0,0,1-2.65,1.09H96.42a.3.3,0,0,1-.34-.25q-1.69-5.27-3.4-10.53c-.11-.33-.25-.47-.5-.48s-.43.16-.53.48l-3.32,10.36c-.13.4-.13.4-.54.4h-3l.35-1.16c1.12-3.6,2.25-7.2,3.36-10.8A3.41,3.41,0,0,1,91.38,160a3.83,3.83,0,0,1,3.15.62,3.58,3.58,0,0,1,1.26,1.8c.89,2.83,1.77,5.66,2.65,8.49a1.28,1.28,0,0,1,0,.13c.06.29.2.4.52.4,2.32,0,4.64,0,7,0a1.39,1.39,0,0,0,1.36-1.8.92.92,0,0,0-1-.74h-4.2a3.87,3.87,0,0,1-4-3,5.14,5.14,0,0,1,.16-3.4,3.6,3.6,0,0,1,3.05-2.24,6.29,6.29,0,0,1,.88-.06h7.62Z"/><path class="cls-3" d="M74,174.45H70.83c0-.11,0-.21,0-.31q0-5.37,0-10.73a4.86,4.86,0,0,1,.28-1.72,2.33,2.33,0,0,1,1.56-1.51,5.17,5.17,0,0,1,3-.08,3.91,3.91,0,0,1,2.78,2.84q1,3.54,2,7.08c.12.42.27.84.41,1.25a.93.93,0,0,0,.19.29.53.53,0,0,0,.64.11c.22-.08.27-.26.26-.48q0-2.85,0-5.7,0-2.43,0-4.87c0-.11,0-.21,0-.33h3.25v.3c0,3.54,0,7.08,0,10.63a4,4,0,0,1-.65,2.37,3,3,0,0,1-2.36,1.25,5.43,5.43,0,0,1-2.8-.49,2.89,2.89,0,0,1-1.59-1.89q-1.17-4.12-2.36-8.24a4.29,4.29,0,0,0-.17-.54,1.5,1.5,0,0,0-.25-.41.54.54,0,0,0-.88.06,1.54,1.54,0,0,0-.19.73c0,3.34,0,6.67,0,10C74,174.19,74,174.31,74,174.45Z"/><path class="cls-3" d="M124.5,174.49h-2.94a.32.32,0,0,1-.38-.26q-1.68-5.26-3.39-10.51c-.08-.25-.19-.47-.5-.49s-.44.15-.55.5q-1.67,5.22-3.34,10.44a.38.38,0,0,1-.45.31c-.9,0-1.81,0-2.72,0h-.34c.08-.27.14-.5.22-.74,1.16-3.74,2.34-7.47,3.48-11.21a3.55,3.55,0,0,1,3.29-2.54,5.19,5.19,0,0,1,1.6.13,3.31,3.31,0,0,1,2.42,2.41c1.16,3.77,2.28,7.54,3.41,11.32Z"/></g><g id="NtjWEG.tif-10" data-name="NtjWEG.tif"><path class="cls-3" d="M292.32,141.22v3H285a1.36,1.36,0,0,0-1.38,1.68,1.13,1.13,0,0,0,1.24,1h3.68a2.61,2.61,0,0,1,.72.09,5.75,5.75,0,0,1,3.12,2.2,3.22,3.22,0,0,1,.57,2.24,4.75,4.75,0,0,1-1.3,2.91,3.46,3.46,0,0,1-2.65,1.09H278.85a.3.3,0,0,1-.34-.25q-1.69-5.27-3.4-10.53c-.11-.33-.25-.47-.5-.48s-.43.16-.53.48l-3.32,10.36c-.13.4-.13.4-.54.4h-3l.35-1.16c1.12-3.6,2.25-7.2,3.36-10.8a3.41,3.41,0,0,1,2.87-2.47,3.83,3.83,0,0,1,3.15.62,3.58,3.58,0,0,1,1.26,1.8c.89,2.83,1.77,5.66,2.65,8.49a1.28,1.28,0,0,1,0,.13c.06.29.2.4.52.4,2.32,0,4.64,0,7,0a1.39,1.39,0,0,0,1.36-1.8.92.92,0,0,0-1-.74h-4.2a3.87,3.87,0,0,1-4-3,5.14,5.14,0,0,1,.16-3.4,3.6,3.6,0,0,1,3.05-2.24,6.29,6.29,0,0,1,.88-.06h7.62Z"/><path class="cls-3" d="M256.41,155.42h-3.14c0-.11,0-.21,0-.31q0-5.37,0-10.73a4.86,4.86,0,0,1,.28-1.72,2.33,2.33,0,0,1,1.56-1.51,5.17,5.17,0,0,1,3-.08,3.91,3.91,0,0,1,2.78,2.84q1,3.54,2,7.08c.12.42.27.84.41,1.25a.93.93,0,0,0,.19.29.53.53,0,0,0,.64.11c.22-.08.27-.26.26-.48q0-2.85,0-5.7,0-2.43,0-4.87c0-.11,0-.21,0-.33h3.25v.3c0,3.54,0,7.08,0,10.63a4,4,0,0,1-.65,2.37,3,3,0,0,1-2.36,1.25,5.43,5.43,0,0,1-2.8-.49,2.89,2.89,0,0,1-1.59-1.89q-1.17-4.12-2.36-8.24a4.29,4.29,0,0,0-.17-.54,1.5,1.5,0,0,0-.25-.41.54.54,0,0,0-.88.06,1.54,1.54,0,0,0-.19.73c0,3.34,0,6.67,0,10C256.41,155.16,256.41,155.28,256.41,155.42Z"/><path class="cls-3" d="M306.93,155.46H304a.32.32,0,0,1-.38-.26q-1.68-5.26-3.39-10.51c-.08-.25-.19-.47-.5-.49s-.44.15-.55.5q-1.67,5.22-3.34,10.44a.38.38,0,0,1-.45.31c-.9,0-1.81,0-2.72,0h-.34c.08-.27.14-.5.22-.74,1.16-3.74,2.34-7.47,3.48-11.21a3.55,3.55,0,0,1,3.29-2.54,5.19,5.19,0,0,1,1.6.13,3.31,3.31,0,0,1,2.42,2.41c1.16,3.77,2.28,7.54,3.41,11.32Z"/></g><g id="NtjWEG.tif-11" data-name="NtjWEG.tif"><path class="cls-3" d="M231.84,141.22v3h-7.31a1.36,1.36,0,0,0-1.38,1.68,1.13,1.13,0,0,0,1.24,1h3.68a2.61,2.61,0,0,1,.72.09,5.75,5.75,0,0,1,3.12,2.2,3.22,3.22,0,0,1,.57,2.24,4.75,4.75,0,0,1-1.3,2.91,3.46,3.46,0,0,1-2.65,1.09H218.38a.3.3,0,0,1-.34-.25q-1.69-5.27-3.4-10.53c-.11-.33-.25-.47-.5-.48s-.43.16-.53.48l-3.32,10.36c-.13.4-.13.4-.54.4h-3l.35-1.16c1.12-3.6,2.25-7.2,3.36-10.8a3.41,3.41,0,0,1,2.87-2.47,3.83,3.83,0,0,1,3.15.62,3.58,3.58,0,0,1,1.26,1.8c.89,2.83,1.77,5.66,2.65,8.49a1.28,1.28,0,0,1,0,.13c.06.29.2.4.52.4,2.32,0,4.64,0,7,0a1.39,1.39,0,0,0,1.36-1.8.92.92,0,0,0-1-.74h-4.2a3.87,3.87,0,0,1-4-3,5.14,5.14,0,0,1,.16-3.4,3.6,3.6,0,0,1,3.05-2.24,6.29,6.29,0,0,1,.88-.06h7.62Z"/><path class="cls-3" d="M195.93,155.42h-3.14c0-.11,0-.21,0-.31q0-5.37,0-10.73a4.86,4.86,0,0,1,.28-1.72,2.33,2.33,0,0,1,1.56-1.51,5.17,5.17,0,0,1,3-.08,3.91,3.91,0,0,1,2.78,2.84q1,3.54,2,7.08c.12.42.27.84.41,1.25a.93.93,0,0,0,.19.29.53.53,0,0,0,.64.11c.22-.08.27-.26.26-.48q0-2.85,0-5.7,0-2.43,0-4.87c0-.11,0-.21,0-.33h3.25v.3c0,3.54,0,7.08,0,10.63a4,4,0,0,1-.65,2.37,3,3,0,0,1-2.36,1.25,5.43,5.43,0,0,1-2.8-.49,2.89,2.89,0,0,1-1.59-1.89q-1.17-4.12-2.36-8.24a4.29,4.29,0,0,0-.17-.54,1.5,1.5,0,0,0-.25-.41.54.54,0,0,0-.88.06,1.54,1.54,0,0,0-.19.73c0,3.34,0,6.67,0,10C195.93,155.16,195.93,155.28,195.93,155.42Z"/><path class="cls-3" d="M246.45,155.46h-2.94a.32.32,0,0,1-.38-.26q-1.68-5.26-3.39-10.51c-.08-.25-.19-.47-.5-.49s-.44.15-.55.5q-1.67,5.22-3.34,10.44a.38.38,0,0,1-.45.31c-.9,0-1.81,0-2.72,0h-.34c.08-.27.14-.5.22-.74,1.16-3.74,2.34-7.47,3.48-11.21a3.55,3.55,0,0,1,3.29-2.54,5.19,5.19,0,0,1,1.6.13,3.31,3.31,0,0,1,2.42,2.41c1.16,3.77,2.28,7.54,3.41,11.32Z"/></g><g id="NtjWEG.tif-12" data-name="NtjWEG.tif"><path class="cls-3" d="M171,141.22v3h-7.31a1.36,1.36,0,0,0-1.38,1.68,1.13,1.13,0,0,0,1.24,1h3.68a2.61,2.61,0,0,1,.72.09,5.75,5.75,0,0,1,3.12,2.2,3.22,3.22,0,0,1,.57,2.24,4.75,4.75,0,0,1-1.3,2.91,3.46,3.46,0,0,1-2.65,1.09H157.5a.3.3,0,0,1-.34-.25q-1.69-5.27-3.4-10.53c-.11-.33-.25-.47-.5-.48s-.43.16-.53.48l-3.32,10.36c-.13.4-.13.4-.54.4h-3l.35-1.16c1.12-3.6,2.25-7.2,3.36-10.8a3.41,3.41,0,0,1,2.87-2.47,3.83,3.83,0,0,1,3.15.62,3.58,3.58,0,0,1,1.26,1.8c.89,2.83,1.77,5.66,2.65,8.49a1.28,1.28,0,0,1,0,.13c.06.29.2.4.52.4,2.32,0,4.64,0,7,0a1.39,1.39,0,0,0,1.36-1.8.92.92,0,0,0-1-.74h-4.2a3.87,3.87,0,0,1-4-3,5.14,5.14,0,0,1,.16-3.4,3.6,3.6,0,0,1,3.05-2.24,6.29,6.29,0,0,1,.88-.06H171Z"/><path class="cls-3" d="M135,155.42h-3.14c0-.11,0-.21,0-.31q0-5.37,0-10.73a4.86,4.86,0,0,1,.28-1.72,2.33,2.33,0,0,1,1.56-1.51,5.17,5.17,0,0,1,3-.08,3.91,3.91,0,0,1,2.78,2.84q1,3.54,2,7.08c.12.42.27.84.41,1.25a.93.93,0,0,0,.19.29.53.53,0,0,0,.64.11c.22-.08.27-.26.26-.48q0-2.85,0-5.7,0-2.43,0-4.87c0-.11,0-.21,0-.33h3.25v.3c0,3.54,0,7.08,0,10.63a4,4,0,0,1-.65,2.37,3,3,0,0,1-2.36,1.25,5.43,5.43,0,0,1-2.8-.49,2.89,2.89,0,0,1-1.59-1.89q-1.17-4.12-2.36-8.24a4.3,4.3,0,0,0-.17-.54,1.5,1.5,0,0,0-.25-.41.54.54,0,0,0-.88.06,1.54,1.54,0,0,0-.19.73c0,3.34,0,6.67,0,10C135,155.16,135,155.28,135,155.42Z"/><path class="cls-3" d="M185.57,155.46h-2.94a.32.32,0,0,1-.38-.26q-1.68-5.26-3.39-10.51c-.08-.25-.19-.47-.5-.49s-.44.15-.55.5q-1.67,5.22-3.34,10.44a.38.38,0,0,1-.45.31c-.9,0-1.81,0-2.72,0H171c.08-.27.14-.5.22-.74,1.16-3.74,2.34-7.47,3.48-11.21A3.55,3.55,0,0,1,178,141a5.19,5.19,0,0,1,1.6.13A3.31,3.31,0,0,1,182,143.5c1.16,3.77,2.28,7.54,3.41,11.32Z"/></g><g id="NtjWEG.tif-13" data-name="NtjWEG.tif"><path class="cls-3" d="M109.89,141.22v3h-7.31a1.36,1.36,0,0,0-1.38,1.68,1.13,1.13,0,0,0,1.24,1h3.68a2.61,2.61,0,0,1,.72.09,5.75,5.75,0,0,1,3.12,2.2,3.22,3.22,0,0,1,.57,2.24,4.75,4.75,0,0,1-1.3,2.91,3.46,3.46,0,0,1-2.65,1.09H96.42a.3.3,0,0,1-.34-.25q-1.69-5.27-3.4-10.53c-.11-.33-.25-.47-.5-.48s-.43.16-.53.48l-3.32,10.36c-.13.4-.13.4-.54.4h-3l.35-1.16c1.12-3.6,2.25-7.2,3.36-10.8A3.41,3.41,0,0,1,91.38,141a3.83,3.83,0,0,1,3.15.62,3.58,3.58,0,0,1,1.26,1.8c.89,2.83,1.77,5.66,2.65,8.49a1.28,1.28,0,0,1,0,.13c.06.29.2.4.52.4,2.32,0,4.64,0,7,0a1.39,1.39,0,0,0,1.36-1.8.92.92,0,0,0-1-.74h-4.2a3.87,3.87,0,0,1-4-3,5.14,5.14,0,0,1,.16-3.4,3.6,3.6,0,0,1,3.05-2.24,6.29,6.29,0,0,1,.88-.06h7.62Z"/><path class="cls-3" d="M74,155.42H70.83c0-.11,0-.21,0-.31q0-5.37,0-10.73a4.86,4.86,0,0,1,.28-1.72,2.33,2.33,0,0,1,1.56-1.51,5.17,5.17,0,0,1,3-.08,3.91,3.91,0,0,1,2.78,2.84q1,3.54,2,7.08c.12.42.27.84.41,1.25a.93.93,0,0,0,.19.29.53.53,0,0,0,.64.11c.22-.08.27-.26.26-.48q0-2.85,0-5.7,0-2.43,0-4.87c0-.11,0-.21,0-.33h3.25v.3c0,3.54,0,7.08,0,10.63a4,4,0,0,1-.65,2.37,3,3,0,0,1-2.36,1.25,5.43,5.43,0,0,1-2.8-.49,2.89,2.89,0,0,1-1.59-1.89q-1.17-4.12-2.36-8.24a4.29,4.29,0,0,0-.17-.54,1.5,1.5,0,0,0-.25-.41.54.54,0,0,0-.88.06A1.54,1.54,0,0,0,74,145c0,3.34,0,6.67,0,10C74,155.16,74,155.28,74,155.42Z"/><path class="cls-3" d="M124.5,155.46h-2.94a.32.32,0,0,1-.38-.26q-1.68-5.26-3.39-10.51c-.08-.25-.19-.47-.5-.49s-.44.15-.55.5q-1.67,5.22-3.34,10.44a.38.38,0,0,1-.45.31c-.9,0-1.81,0-2.72,0h-.34c.08-.27.14-.5.22-.74,1.16-3.74,2.34-7.47,3.48-11.21a3.55,3.55,0,0,1,3.29-2.54,5.19,5.19,0,0,1,1.6.13,3.31,3.31,0,0,1,2.42,2.41c1.16,3.77,2.28,7.54,3.41,11.32Z"/></g><g id="NtjWEG.tif-14" data-name="NtjWEG.tif"><path class="cls-3" d="M292.32,122.19v3H285a1.36,1.36,0,0,0-1.38,1.68,1.13,1.13,0,0,0,1.24,1h3.68a2.61,2.61,0,0,1,.72.09,5.75,5.75,0,0,1,3.12,2.2,3.22,3.22,0,0,1,.57,2.24,4.75,4.75,0,0,1-1.3,2.91,3.46,3.46,0,0,1-2.65,1.09H278.85a.3.3,0,0,1-.34-.25q-1.69-5.27-3.4-10.53c-.11-.33-.25-.47-.5-.48s-.43.16-.53.48L270.76,136c-.13.4-.13.4-.54.4h-3l.35-1.16c1.12-3.6,2.25-7.2,3.36-10.8a3.41,3.41,0,0,1,2.87-2.47,3.83,3.83,0,0,1,3.15.62,3.58,3.58,0,0,1,1.26,1.8c.89,2.83,1.77,5.66,2.65,8.49a1.28,1.28,0,0,1,0,.13c.06.29.2.4.52.4,2.32,0,4.64,0,7,0a1.39,1.39,0,0,0,1.36-1.8.92.92,0,0,0-1-.74h-4.2a3.87,3.87,0,0,1-4-3,5.14,5.14,0,0,1,.16-3.4,3.6,3.6,0,0,1,3.05-2.24,6.29,6.29,0,0,1,.88-.06h7.62Z"/><path class="cls-3" d="M256.41,136.4h-3.14c0-.11,0-.21,0-.31q0-5.37,0-10.73a4.86,4.86,0,0,1,.28-1.72,2.33,2.33,0,0,1,1.56-1.51,5.17,5.17,0,0,1,3-.08,3.91,3.91,0,0,1,2.78,2.84q1,3.54,2,7.08c.12.42.27.84.41,1.25a.93.93,0,0,0,.19.29.53.53,0,0,0,.64.11c.22-.08.27-.26.26-.48q0-2.85,0-5.7,0-2.43,0-4.87c0-.11,0-.21,0-.33h3.25v.3c0,3.54,0,7.08,0,10.63a4,4,0,0,1-.65,2.37,3,3,0,0,1-2.36,1.25,5.43,5.43,0,0,1-2.8-.49,2.89,2.89,0,0,1-1.59-1.89q-1.17-4.12-2.36-8.24a4.29,4.29,0,0,0-.17-.54,1.5,1.5,0,0,0-.25-.41.54.54,0,0,0-.88.06,1.54,1.54,0,0,0-.19.73c0,3.34,0,6.67,0,10C256.41,136.13,256.41,136.26,256.41,136.4Z"/><path class="cls-3" d="M306.93,136.44H304a.32.32,0,0,1-.38-.26q-1.68-5.26-3.39-10.51c-.08-.25-.19-.47-.5-.49s-.44.15-.55.5q-1.67,5.22-3.34,10.44a.38.38,0,0,1-.45.31c-.9,0-1.81,0-2.72,0h-.34c.08-.27.14-.5.22-.74,1.16-3.74,2.34-7.47,3.48-11.21a3.55,3.55,0,0,1,3.29-2.54,5.19,5.19,0,0,1,1.6.13,3.31,3.31,0,0,1,2.42,2.41c1.16,3.77,2.28,7.54,3.41,11.32Z"/></g><g id="NtjWEG.tif-15" data-name="NtjWEG.tif"><path class="cls-3" d="M231.84,122.19v3h-7.31a1.36,1.36,0,0,0-1.38,1.68,1.13,1.13,0,0,0,1.24,1h3.68a2.61,2.61,0,0,1,.72.09,5.75,5.75,0,0,1,3.12,2.2,3.22,3.22,0,0,1,.57,2.24,4.75,4.75,0,0,1-1.3,2.91,3.46,3.46,0,0,1-2.65,1.09H218.38a.3.3,0,0,1-.34-.25q-1.69-5.27-3.4-10.53c-.11-.33-.25-.47-.5-.48s-.43.16-.53.48L210.28,136c-.13.4-.13.4-.54.4h-3l.35-1.16c1.12-3.6,2.25-7.2,3.36-10.8a3.41,3.41,0,0,1,2.87-2.47,3.83,3.83,0,0,1,3.15.62,3.58,3.58,0,0,1,1.26,1.8c.89,2.83,1.77,5.66,2.65,8.49a1.28,1.28,0,0,1,0,.13c.06.29.2.4.52.4,2.32,0,4.64,0,7,0a1.39,1.39,0,0,0,1.36-1.8.92.92,0,0,0-1-.74h-4.2a3.87,3.87,0,0,1-4-3,5.14,5.14,0,0,1,.16-3.4,3.6,3.6,0,0,1,3.05-2.24,6.29,6.29,0,0,1,.88-.06h7.62Z"/><path class="cls-3" d="M195.93,136.4h-3.14c0-.11,0-.21,0-.31q0-5.37,0-10.73a4.86,4.86,0,0,1,.28-1.72,2.33,2.33,0,0,1,1.56-1.51,5.17,5.17,0,0,1,3-.08,3.91,3.91,0,0,1,2.78,2.84q1,3.54,2,7.08c.12.42.27.84.41,1.25a.93.93,0,0,0,.19.29.53.53,0,0,0,.64.11c.22-.08.27-.26.26-.48q0-2.85,0-5.7,0-2.43,0-4.87c0-.11,0-.21,0-.33h3.25v.3c0,3.54,0,7.08,0,10.63a4,4,0,0,1-.65,2.37,3,3,0,0,1-2.36,1.25,5.43,5.43,0,0,1-2.8-.49,2.89,2.89,0,0,1-1.59-1.89q-1.17-4.12-2.36-8.24a4.29,4.29,0,0,0-.17-.54,1.5,1.5,0,0,0-.25-.41.54.54,0,0,0-.88.06,1.54,1.54,0,0,0-.19.73c0,3.34,0,6.67,0,10C195.93,136.13,195.93,136.26,195.93,136.4Z"/><path class="cls-3" d="M246.45,136.44h-2.94a.32.32,0,0,1-.38-.26q-1.68-5.26-3.39-10.51c-.08-.25-.19-.47-.5-.49s-.44.15-.55.5q-1.67,5.22-3.34,10.44a.38.38,0,0,1-.45.31c-.9,0-1.81,0-2.72,0h-.34c.08-.27.14-.5.22-.74,1.16-3.74,2.34-7.47,3.48-11.21a3.55,3.55,0,0,1,3.29-2.54,5.19,5.19,0,0,1,1.6.13,3.31,3.31,0,0,1,2.42,2.41c1.16,3.77,2.28,7.54,3.41,11.32Z"/></g><g id="NtjWEG.tif-16" data-name="NtjWEG.tif"><path class="cls-3" d="M171,122.19v3h-7.31a1.36,1.36,0,0,0-1.38,1.68,1.13,1.13,0,0,0,1.24,1h3.68a2.61,2.61,0,0,1,.72.09,5.75,5.75,0,0,1,3.12,2.2,3.22,3.22,0,0,1,.57,2.24,4.75,4.75,0,0,1-1.3,2.91,3.46,3.46,0,0,1-2.65,1.09H157.5a.3.3,0,0,1-.34-.25q-1.69-5.27-3.4-10.53c-.11-.33-.25-.47-.5-.48s-.43.16-.53.48L149.41,136c-.13.4-.13.4-.54.4h-3l.35-1.16c1.12-3.6,2.25-7.2,3.36-10.8a3.41,3.41,0,0,1,2.87-2.47,3.83,3.83,0,0,1,3.15.62,3.58,3.58,0,0,1,1.26,1.8c.89,2.83,1.77,5.66,2.65,8.49a1.28,1.28,0,0,1,0,.13c.06.29.2.4.52.4,2.32,0,4.64,0,7,0a1.39,1.39,0,0,0,1.36-1.8.92.92,0,0,0-1-.74h-4.2a3.87,3.87,0,0,1-4-3,5.14,5.14,0,0,1,.16-3.4,3.6,3.6,0,0,1,3.05-2.24,6.29,6.29,0,0,1,.88-.06H171Z"/><path class="cls-3" d="M135,136.4h-3.14c0-.11,0-.21,0-.31q0-5.37,0-10.73a4.86,4.86,0,0,1,.28-1.72,2.33,2.33,0,0,1,1.56-1.51,5.17,5.17,0,0,1,3-.08,3.91,3.91,0,0,1,2.78,2.84q1,3.54,2,7.08c.12.42.27.84.41,1.25a.93.93,0,0,0,.19.29.53.53,0,0,0,.64.11c.22-.08.27-.26.26-.48q0-2.85,0-5.7,0-2.43,0-4.87c0-.11,0-.21,0-.33h3.25v.3c0,3.54,0,7.08,0,10.63a4,4,0,0,1-.65,2.37,3,3,0,0,1-2.36,1.25,5.43,5.43,0,0,1-2.8-.49,2.89,2.89,0,0,1-1.59-1.89q-1.17-4.12-2.36-8.24a4.3,4.3,0,0,0-.17-.54,1.5,1.5,0,0,0-.25-.41.54.54,0,0,0-.88.06,1.54,1.54,0,0,0-.19.73c0,3.34,0,6.67,0,10C135,136.13,135,136.26,135,136.4Z"/><path class="cls-3" d="M185.57,136.44h-2.94a.32.32,0,0,1-.38-.26q-1.68-5.26-3.39-10.51c-.08-.25-.19-.47-.5-.49s-.44.15-.55.5q-1.67,5.22-3.34,10.44a.38.38,0,0,1-.45.31c-.9,0-1.81,0-2.72,0H171c.08-.27.14-.5.22-.74,1.16-3.74,2.34-7.47,3.48-11.21a3.55,3.55,0,0,1,3.29-2.54,5.19,5.19,0,0,1,1.6.13,3.31,3.31,0,0,1,2.42,2.41c1.16,3.77,2.28,7.54,3.41,11.32Z"/></g><g id="NtjWEG.tif-17" data-name="NtjWEG.tif"><path class="cls-3" d="M109.89,122.19v3h-7.31a1.36,1.36,0,0,0-1.38,1.68,1.13,1.13,0,0,0,1.24,1h3.68a2.61,2.61,0,0,1,.72.09,5.75,5.75,0,0,1,3.12,2.2,3.22,3.22,0,0,1,.57,2.24,4.75,4.75,0,0,1-1.3,2.91,3.46,3.46,0,0,1-2.65,1.09H96.42a.3.3,0,0,1-.34-.25q-1.69-5.27-3.4-10.53c-.11-.33-.25-.47-.5-.48s-.43.16-.53.48L88.33,136c-.13.4-.13.4-.54.4h-3l.35-1.16c1.12-3.6,2.25-7.2,3.36-10.8A3.41,3.41,0,0,1,91.38,122a3.83,3.83,0,0,1,3.15.62,3.58,3.58,0,0,1,1.26,1.8c.89,2.83,1.77,5.66,2.65,8.49a1.28,1.28,0,0,1,0,.13c.06.29.2.4.52.4,2.32,0,4.64,0,7,0a1.39,1.39,0,0,0,1.36-1.8.92.92,0,0,0-1-.74h-4.2a3.87,3.87,0,0,1-4-3,5.14,5.14,0,0,1,.16-3.4,3.6,3.6,0,0,1,3.05-2.24,6.29,6.29,0,0,1,.88-.06h7.62Z"/><path class="cls-3" d="M74,136.4H70.83c0-.11,0-.21,0-.31q0-5.37,0-10.73a4.86,4.86,0,0,1,.28-1.72,2.33,2.33,0,0,1,1.56-1.51,5.17,5.17,0,0,1,3-.08,3.91,3.91,0,0,1,2.78,2.84q1,3.54,2,7.08c.12.42.27.84.41,1.25a.93.93,0,0,0,.19.29.53.53,0,0,0,.64.11c.22-.08.27-.26.26-.48q0-2.85,0-5.7,0-2.43,0-4.87c0-.11,0-.21,0-.33h3.25v.3c0,3.54,0,7.08,0,10.63a4,4,0,0,1-.65,2.37,3,3,0,0,1-2.36,1.25,5.43,5.43,0,0,1-2.8-.49,2.89,2.89,0,0,1-1.59-1.89q-1.17-4.12-2.36-8.24a4.29,4.29,0,0,0-.17-.54,1.5,1.5,0,0,0-.25-.41.54.54,0,0,0-.88.06A1.54,1.54,0,0,0,74,126c0,3.34,0,6.67,0,10C74,136.13,74,136.26,74,136.4Z"/><path class="cls-3" d="M124.5,136.44h-2.94a.32.32,0,0,1-.38-.26q-1.68-5.26-3.39-10.51c-.08-.25-.19-.47-.5-.49s-.44.15-.55.5q-1.67,5.22-3.34,10.44a.38.38,0,0,1-.45.31c-.9,0-1.81,0-2.72,0h-.34c.08-.27.14-.5.22-.74,1.16-3.74,2.34-7.47,3.48-11.21a3.55,3.55,0,0,1,3.29-2.54,5.19,5.19,0,0,1,1.6.13,3.31,3.31,0,0,1,2.42,2.41c1.16,3.77,2.28,7.54,3.41,11.32Z"/></g><g id="NtjWEG.tif-18" data-name="NtjWEG.tif"><path class="cls-3" d="M292.32,103.17v3H285a1.36,1.36,0,0,0-1.38,1.68,1.13,1.13,0,0,0,1.24,1h3.68a2.61,2.61,0,0,1,.72.09,5.75,5.75,0,0,1,3.12,2.2,3.22,3.22,0,0,1,.57,2.24,4.75,4.75,0,0,1-1.3,2.91,3.46,3.46,0,0,1-2.65,1.09H278.85a.3.3,0,0,1-.34-.25q-1.69-5.27-3.4-10.53c-.11-.33-.25-.47-.5-.48s-.43.16-.53.48L270.76,117c-.13.4-.13.4-.54.4h-3l.35-1.16c1.12-3.6,2.25-7.2,3.36-10.8a3.41,3.41,0,0,1,2.87-2.47,3.83,3.83,0,0,1,3.15.62,3.58,3.58,0,0,1,1.26,1.8c.89,2.83,1.77,5.66,2.65,8.49a1.28,1.28,0,0,1,0,.13c.06.29.2.4.52.4,2.32,0,4.64,0,7,0a1.39,1.39,0,0,0,1.36-1.8.92.92,0,0,0-1-.74h-4.2a3.87,3.87,0,0,1-4-3,5.14,5.14,0,0,1,.16-3.4,3.6,3.6,0,0,1,3.05-2.24,6.29,6.29,0,0,1,.88-.06h7.62Z"/><path class="cls-3" d="M256.41,117.37h-3.14c0-.11,0-.21,0-.31q0-5.37,0-10.73a4.86,4.86,0,0,1,.28-1.72,2.33,2.33,0,0,1,1.56-1.51,5.17,5.17,0,0,1,3-.08,3.91,3.91,0,0,1,2.78,2.84q1,3.54,2,7.08c.12.42.27.84.41,1.25a.93.93,0,0,0,.19.29.53.53,0,0,0,.64.11c.22-.08.27-.26.26-.48q0-2.85,0-5.7,0-2.43,0-4.87c0-.11,0-.21,0-.33h3.25v.3c0,3.54,0,7.08,0,10.63a4,4,0,0,1-.65,2.37,3,3,0,0,1-2.36,1.25,5.43,5.43,0,0,1-2.8-.49,2.89,2.89,0,0,1-1.59-1.89q-1.17-4.12-2.36-8.24a4.29,4.29,0,0,0-.17-.54,1.5,1.5,0,0,0-.25-.41.54.54,0,0,0-.88.06,1.54,1.54,0,0,0-.19.73c0,3.34,0,6.67,0,10C256.41,117.11,256.41,117.23,256.41,117.37Z"/><path class="cls-3" d="M306.93,117.41H304a.32.32,0,0,1-.38-.26q-1.68-5.26-3.39-10.51c-.08-.25-.19-.47-.5-.49s-.44.15-.55.5q-1.67,5.22-3.34,10.44a.38.38,0,0,1-.45.31c-.9,0-1.81,0-2.72,0h-.34c.08-.27.14-.5.22-.74,1.16-3.74,2.34-7.47,3.48-11.21a3.55,3.55,0,0,1,3.29-2.54,5.19,5.19,0,0,1,1.6.13,3.31,3.31,0,0,1,2.42,2.41c1.16,3.77,2.28,7.54,3.41,11.32Z"/></g><g id="NtjWEG.tif-19" data-name="NtjWEG.tif"><path class="cls-3" d="M231.84,103.17v3h-7.31a1.36,1.36,0,0,0-1.38,1.68,1.13,1.13,0,0,0,1.24,1h3.68a2.61,2.61,0,0,1,.72.09,5.75,5.75,0,0,1,3.12,2.2,3.22,3.22,0,0,1,.57,2.24,4.75,4.75,0,0,1-1.3,2.91,3.46,3.46,0,0,1-2.65,1.09H218.38a.3.3,0,0,1-.34-.25q-1.69-5.27-3.4-10.53c-.11-.33-.25-.47-.5-.48s-.43.16-.53.48L210.28,117c-.13.4-.13.4-.54.4h-3l.35-1.16c1.12-3.6,2.25-7.2,3.36-10.8a3.41,3.41,0,0,1,2.87-2.47,3.83,3.83,0,0,1,3.15.62,3.58,3.58,0,0,1,1.26,1.8c.89,2.83,1.77,5.66,2.65,8.49a1.28,1.28,0,0,1,0,.13c.06.29.2.4.52.4,2.32,0,4.64,0,7,0a1.39,1.39,0,0,0,1.36-1.8.92.92,0,0,0-1-.74h-4.2a3.87,3.87,0,0,1-4-3,5.14,5.14,0,0,1,.16-3.4,3.6,3.6,0,0,1,3.05-2.24,6.29,6.29,0,0,1,.88-.06h7.62Z"/><path class="cls-3" d="M195.93,117.37h-3.14c0-.11,0-.21,0-.31q0-5.37,0-10.73a4.86,4.86,0,0,1,.28-1.72,2.33,2.33,0,0,1,1.56-1.51,5.17,5.17,0,0,1,3-.08,3.91,3.91,0,0,1,2.78,2.84q1,3.54,2,7.08c.12.42.27.84.41,1.25a.93.93,0,0,0,.19.29.53.53,0,0,0,.64.11c.22-.08.27-.26.26-.48q0-2.85,0-5.7,0-2.43,0-4.87c0-.11,0-.21,0-.33h3.25v.3c0,3.54,0,7.08,0,10.63a4,4,0,0,1-.65,2.37,3,3,0,0,1-2.36,1.25,5.43,5.43,0,0,1-2.8-.49,2.89,2.89,0,0,1-1.59-1.89q-1.17-4.12-2.36-8.24a4.29,4.29,0,0,0-.17-.54,1.5,1.5,0,0,0-.25-.41.54.54,0,0,0-.88.06,1.54,1.54,0,0,0-.19.73c0,3.34,0,6.67,0,10C195.93,117.11,195.93,117.23,195.93,117.37Z"/><path class="cls-3" d="M246.45,117.41h-2.94a.32.32,0,0,1-.38-.26q-1.68-5.26-3.39-10.51c-.08-.25-.19-.47-.5-.49s-.44.15-.55.5q-1.67,5.22-3.34,10.44a.38.38,0,0,1-.45.31c-.9,0-1.81,0-2.72,0h-.34c.08-.27.14-.5.22-.74,1.16-3.74,2.34-7.47,3.48-11.21a3.55,3.55,0,0,1,3.29-2.54,5.19,5.19,0,0,1,1.6.13,3.31,3.31,0,0,1,2.42,2.41c1.16,3.77,2.28,7.54,3.41,11.32Z"/></g><g id="NtjWEG.tif-20" data-name="NtjWEG.tif"><path class="cls-3" d="M171,103.17v3h-7.31a1.36,1.36,0,0,0-1.38,1.68,1.13,1.13,0,0,0,1.24,1h3.68a2.61,2.61,0,0,1,.72.09,5.75,5.75,0,0,1,3.12,2.2,3.22,3.22,0,0,1,.57,2.24,4.75,4.75,0,0,1-1.3,2.91,3.46,3.46,0,0,1-2.65,1.09H157.5a.3.3,0,0,1-.34-.25q-1.69-5.27-3.4-10.53c-.11-.33-.25-.47-.5-.48s-.43.16-.53.48L149.41,117c-.13.4-.13.4-.54.4h-3l.35-1.16c1.12-3.6,2.25-7.2,3.36-10.8a3.41,3.41,0,0,1,2.87-2.47,3.83,3.83,0,0,1,3.15.62,3.58,3.58,0,0,1,1.26,1.8c.89,2.83,1.77,5.66,2.65,8.49a1.28,1.28,0,0,1,0,.13c.06.29.2.4.52.4,2.32,0,4.64,0,7,0a1.39,1.39,0,0,0,1.36-1.8.92.92,0,0,0-1-.74h-4.2a3.87,3.87,0,0,1-4-3,5.14,5.14,0,0,1,.16-3.4,3.6,3.6,0,0,1,3.05-2.24,6.29,6.29,0,0,1,.88-.06H171Z"/><path class="cls-3" d="M135,117.37h-3.14c0-.11,0-.21,0-.31q0-5.37,0-10.73a4.86,4.86,0,0,1,.28-1.72,2.33,2.33,0,0,1,1.56-1.51,5.17,5.17,0,0,1,3-.08,3.91,3.91,0,0,1,2.78,2.84q1,3.54,2,7.08c.12.42.27.84.41,1.25a.93.93,0,0,0,.19.29.53.53,0,0,0,.64.11c.22-.08.27-.26.26-.48q0-2.85,0-5.7,0-2.43,0-4.87c0-.11,0-.21,0-.33h3.25v.3c0,3.54,0,7.08,0,10.63a4,4,0,0,1-.65,2.37,3,3,0,0,1-2.36,1.25,5.43,5.43,0,0,1-2.8-.49,2.89,2.89,0,0,1-1.59-1.89q-1.17-4.12-2.36-8.24a4.3,4.3,0,0,0-.17-.54,1.5,1.5,0,0,0-.25-.41.54.54,0,0,0-.88.06,1.54,1.54,0,0,0-.19.73c0,3.34,0,6.67,0,10C135,117.11,135,117.23,135,117.37Z"/><path class="cls-3" d="M185.57,117.41h-2.94a.32.32,0,0,1-.38-.26q-1.68-5.26-3.39-10.51c-.08-.25-.19-.47-.5-.49s-.44.15-.55.5q-1.67,5.22-3.34,10.44a.38.38,0,0,1-.45.31c-.9,0-1.81,0-2.72,0H171c.08-.27.14-.5.22-.74,1.16-3.74,2.34-7.47,3.48-11.21A3.55,3.55,0,0,1,178,102.9a5.19,5.19,0,0,1,1.6.13,3.31,3.31,0,0,1,2.42,2.41c1.16,3.77,2.28,7.54,3.41,11.32Z"/></g><g id="NtjWEG.tif-21" data-name="NtjWEG.tif"><path class="cls-3" d="M109.89,103.17v3h-7.31a1.36,1.36,0,0,0-1.38,1.68,1.13,1.13,0,0,0,1.24,1h3.68a2.61,2.61,0,0,1,.72.09,5.75,5.75,0,0,1,3.12,2.2,3.22,3.22,0,0,1,.57,2.24,4.75,4.75,0,0,1-1.3,2.91,3.46,3.46,0,0,1-2.65,1.09H96.42a.3.3,0,0,1-.34-.25q-1.69-5.27-3.4-10.53c-.11-.33-.25-.47-.5-.48s-.43.16-.53.48L88.33,117c-.13.4-.13.4-.54.4h-3l.35-1.16c1.12-3.6,2.25-7.2,3.36-10.8A3.41,3.41,0,0,1,91.38,103a3.83,3.83,0,0,1,3.15.62,3.58,3.58,0,0,1,1.26,1.8c.89,2.83,1.77,5.66,2.65,8.49a1.28,1.28,0,0,1,0,.13c.06.29.2.4.52.4,2.32,0,4.64,0,7,0a1.39,1.39,0,0,0,1.36-1.8.92.92,0,0,0-1-.74h-4.2a3.87,3.87,0,0,1-4-3,5.14,5.14,0,0,1,.16-3.4,3.6,3.6,0,0,1,3.05-2.24,6.29,6.29,0,0,1,.88-.06h7.62Z"/><path class="cls-3" d="M74,117.37H70.83c0-.11,0-.21,0-.31q0-5.37,0-10.73a4.86,4.86,0,0,1,.28-1.72,2.33,2.33,0,0,1,1.56-1.51,5.17,5.17,0,0,1,3-.08,3.91,3.91,0,0,1,2.78,2.84q1,3.54,2,7.08c.12.42.27.84.41,1.25a.93.93,0,0,0,.19.29.53.53,0,0,0,.64.11c.22-.08.27-.26.26-.48q0-2.85,0-5.7,0-2.43,0-4.87c0-.11,0-.21,0-.33h3.25v.3c0,3.54,0,7.08,0,10.63a4,4,0,0,1-.65,2.37,3,3,0,0,1-2.36,1.25,5.43,5.43,0,0,1-2.8-.49,2.89,2.89,0,0,1-1.59-1.89q-1.17-4.12-2.36-8.24a4.29,4.29,0,0,0-.17-.54,1.5,1.5,0,0,0-.25-.41.54.54,0,0,0-.88.06A1.54,1.54,0,0,0,74,107c0,3.34,0,6.67,0,10C74,117.11,74,117.23,74,117.37Z"/><path class="cls-3" d="M124.5,117.41h-2.94a.32.32,0,0,1-.38-.26q-1.68-5.26-3.39-10.51c-.08-.25-.19-.47-.5-.49s-.44.15-.55.5q-1.67,5.22-3.34,10.44a.38.38,0,0,1-.45.31c-.9,0-1.81,0-2.72,0h-.34c.08-.27.14-.5.22-.74,1.16-3.74,2.34-7.47,3.48-11.21a3.55,3.55,0,0,1,3.29-2.54,5.19,5.19,0,0,1,1.6.13,3.31,3.31,0,0,1,2.42,2.41c1.16,3.77,2.28,7.54,3.41,11.32Z"/></g><g id="NtjWEG.tif-22" data-name="NtjWEG.tif"><path class="cls-3" d="M292.32,84.14v3H285a1.36,1.36,0,0,0-1.38,1.68,1.13,1.13,0,0,0,1.24,1h3.68a2.61,2.61,0,0,1,.72.09,5.75,5.75,0,0,1,3.12,2.2,3.22,3.22,0,0,1,.57,2.24,4.75,4.75,0,0,1-1.3,2.91A3.46,3.46,0,0,1,289,98.39H278.85a.3.3,0,0,1-.34-.25q-1.69-5.27-3.4-10.53c-.11-.33-.25-.47-.5-.48s-.43.16-.53.48L270.76,98c-.13.4-.13.4-.54.4h-3l.35-1.16c1.12-3.6,2.25-7.2,3.36-10.8a3.41,3.41,0,0,1,2.87-2.47,3.83,3.83,0,0,1,3.15.62,3.58,3.58,0,0,1,1.26,1.8c.89,2.83,1.77,5.66,2.65,8.49a1.28,1.28,0,0,1,0,.13c.06.29.2.4.52.4,2.32,0,4.64,0,7,0a1.39,1.39,0,0,0,1.36-1.8.92.92,0,0,0-1-.74h-4.2a3.87,3.87,0,0,1-4-3,5.14,5.14,0,0,1,.16-3.4,3.6,3.6,0,0,1,3.05-2.24,6.29,6.29,0,0,1,.88-.06h7.62Z"/><path class="cls-3" d="M256.41,98.34h-3.14c0-.11,0-.21,0-.31q0-5.37,0-10.73a4.86,4.86,0,0,1,.28-1.72,2.33,2.33,0,0,1,1.56-1.51,5.17,5.17,0,0,1,3-.08,3.91,3.91,0,0,1,2.78,2.84q1,3.54,2,7.08c.12.42.27.84.41,1.25a.93.93,0,0,0,.19.29.53.53,0,0,0,.64.11c.22-.08.27-.26.26-.48q0-2.85,0-5.7,0-2.43,0-4.87c0-.11,0-.21,0-.33h3.25v.3c0,3.54,0,7.08,0,10.63a4,4,0,0,1-.65,2.37,3,3,0,0,1-2.36,1.25,5.43,5.43,0,0,1-2.8-.49,2.89,2.89,0,0,1-1.59-1.89q-1.17-4.12-2.36-8.24a4.29,4.29,0,0,0-.17-.54,1.5,1.5,0,0,0-.25-.41.54.54,0,0,0-.88.06,1.54,1.54,0,0,0-.19.73c0,3.34,0,6.67,0,10C256.41,98.08,256.41,98.2,256.41,98.34Z"/><path class="cls-3" d="M306.93,98.38H304a.32.32,0,0,1-.38-.26q-1.68-5.26-3.39-10.51c-.08-.25-.19-.47-.5-.49s-.44.15-.55.5q-1.67,5.22-3.34,10.44a.38.38,0,0,1-.45.31c-.9,0-1.81,0-2.72,0h-.34c.08-.27.14-.5.22-.74,1.16-3.74,2.34-7.47,3.48-11.21a3.55,3.55,0,0,1,3.29-2.54,5.19,5.19,0,0,1,1.6.13,3.31,3.31,0,0,1,2.42,2.41c1.16,3.77,2.28,7.54,3.41,11.32Z"/></g><g id="NtjWEG.tif-23" data-name="NtjWEG.tif"><path class="cls-3" d="M231.84,84.14v3h-7.31a1.36,1.36,0,0,0-1.38,1.68,1.13,1.13,0,0,0,1.24,1h3.68a2.61,2.61,0,0,1,.72.09,5.75,5.75,0,0,1,3.12,2.2,3.22,3.22,0,0,1,.57,2.24,4.75,4.75,0,0,1-1.3,2.91,3.46,3.46,0,0,1-2.65,1.09H218.38a.3.3,0,0,1-.34-.25q-1.69-5.27-3.4-10.53c-.11-.33-.25-.47-.5-.48s-.43.16-.53.48L210.28,98c-.13.4-.13.4-.54.4h-3l.35-1.16c1.12-3.6,2.25-7.2,3.36-10.8a3.41,3.41,0,0,1,2.87-2.47,3.83,3.83,0,0,1,3.15.62,3.58,3.58,0,0,1,1.26,1.8c.89,2.83,1.77,5.66,2.65,8.49a1.28,1.28,0,0,1,0,.13c.06.29.2.4.52.4,2.32,0,4.64,0,7,0a1.39,1.39,0,0,0,1.36-1.8.92.92,0,0,0-1-.74h-4.2a3.87,3.87,0,0,1-4-3,5.14,5.14,0,0,1,.16-3.4,3.6,3.6,0,0,1,3.05-2.24,6.29,6.29,0,0,1,.88-.06h7.62Z"/><path class="cls-3" d="M195.93,98.34h-3.14c0-.11,0-.21,0-.31q0-5.37,0-10.73a4.86,4.86,0,0,1,.28-1.72,2.33,2.33,0,0,1,1.56-1.51,5.17,5.17,0,0,1,3-.08,3.91,3.91,0,0,1,2.78,2.84q1,3.54,2,7.08c.12.42.27.84.41,1.25a.93.93,0,0,0,.19.29.53.53,0,0,0,.64.11c.22-.08.27-.26.26-.48q0-2.85,0-5.7,0-2.43,0-4.87c0-.11,0-.21,0-.33h3.25v.3c0,3.54,0,7.08,0,10.63a4,4,0,0,1-.65,2.37,3,3,0,0,1-2.36,1.25,5.43,5.43,0,0,1-2.8-.49,2.89,2.89,0,0,1-1.59-1.89q-1.17-4.12-2.36-8.24a4.29,4.29,0,0,0-.17-.54,1.5,1.5,0,0,0-.25-.41.54.54,0,0,0-.88.06,1.54,1.54,0,0,0-.19.73c0,3.34,0,6.67,0,10C195.93,98.08,195.93,98.2,195.93,98.34Z"/><path class="cls-3" d="M246.45,98.38h-2.94a.32.32,0,0,1-.38-.26q-1.68-5.26-3.39-10.51c-.08-.25-.19-.47-.5-.49s-.44.15-.55.5q-1.67,5.22-3.34,10.44a.38.38,0,0,1-.45.31c-.9,0-1.81,0-2.72,0h-.34c.08-.27.14-.5.22-.74,1.16-3.74,2.34-7.47,3.48-11.21a3.55,3.55,0,0,1,3.29-2.54,5.19,5.19,0,0,1,1.6.13,3.31,3.31,0,0,1,2.42,2.41c1.16,3.77,2.28,7.54,3.41,11.32Z"/></g><g id="NtjWEG.tif-24" data-name="NtjWEG.tif"><path class="cls-3" d="M171,84.14v3h-7.31a1.36,1.36,0,0,0-1.38,1.68,1.13,1.13,0,0,0,1.24,1h3.68a2.61,2.61,0,0,1,.72.09,5.75,5.75,0,0,1,3.12,2.2,3.22,3.22,0,0,1,.57,2.24,4.75,4.75,0,0,1-1.3,2.91,3.46,3.46,0,0,1-2.65,1.09H157.5a.3.3,0,0,1-.34-.25q-1.69-5.27-3.4-10.53c-.11-.33-.25-.47-.5-.48s-.43.16-.53.48L149.41,98c-.13.4-.13.4-.54.4h-3l.35-1.16c1.12-3.6,2.25-7.2,3.36-10.8a3.41,3.41,0,0,1,2.87-2.47,3.83,3.83,0,0,1,3.15.62,3.58,3.58,0,0,1,1.26,1.8c.89,2.83,1.77,5.66,2.65,8.49a1.28,1.28,0,0,1,0,.13c.06.29.2.4.52.4,2.32,0,4.64,0,7,0a1.39,1.39,0,0,0,1.36-1.8.92.92,0,0,0-1-.74h-4.2a3.87,3.87,0,0,1-4-3,5.14,5.14,0,0,1,.16-3.4,3.6,3.6,0,0,1,3.05-2.24,6.29,6.29,0,0,1,.88-.06H171Z"/><path class="cls-3" d="M135,98.34h-3.14c0-.11,0-.21,0-.31q0-5.37,0-10.73a4.86,4.86,0,0,1,.28-1.72,2.33,2.33,0,0,1,1.56-1.51,5.17,5.17,0,0,1,3-.08,3.91,3.91,0,0,1,2.78,2.84q1,3.54,2,7.08c.12.42.27.84.41,1.25a.93.93,0,0,0,.19.29.53.53,0,0,0,.64.11c.22-.08.27-.26.26-.48q0-2.85,0-5.7,0-2.43,0-4.87c0-.11,0-.21,0-.33h3.25v.3c0,3.54,0,7.08,0,10.63a4,4,0,0,1-.65,2.37,3,3,0,0,1-2.36,1.25,5.43,5.43,0,0,1-2.8-.49,2.89,2.89,0,0,1-1.59-1.89q-1.17-4.12-2.36-8.24a4.3,4.3,0,0,0-.17-.54,1.5,1.5,0,0,0-.25-.41.54.54,0,0,0-.88.06,1.54,1.54,0,0,0-.19.73c0,3.34,0,6.67,0,10C135,98.08,135,98.2,135,98.34Z"/><path class="cls-3" d="M185.57,98.38h-2.94a.32.32,0,0,1-.38-.26q-1.68-5.26-3.39-10.51c-.08-.25-.19-.47-.5-.49s-.44.15-.55.5q-1.67,5.22-3.34,10.44a.38.38,0,0,1-.45.31c-.9,0-1.81,0-2.72,0H171c.08-.27.14-.5.22-.74,1.16-3.74,2.34-7.47,3.48-11.21A3.55,3.55,0,0,1,178,83.88a5.19,5.19,0,0,1,1.6.13A3.31,3.31,0,0,1,182,86.42c1.16,3.77,2.28,7.54,3.41,11.32Z"/></g><g id="NtjWEG.tif-25" data-name="NtjWEG.tif"><path class="cls-3" d="M109.89,84.14v3h-7.31a1.36,1.36,0,0,0-1.38,1.68,1.13,1.13,0,0,0,1.24,1h3.68a2.61,2.61,0,0,1,.72.09,5.75,5.75,0,0,1,3.12,2.2,3.22,3.22,0,0,1,.57,2.24,4.75,4.75,0,0,1-1.3,2.91,3.46,3.46,0,0,1-2.65,1.09H96.42a.3.3,0,0,1-.34-.25q-1.69-5.27-3.4-10.53c-.11-.33-.25-.47-.5-.48s-.43.16-.53.48L88.33,98c-.13.4-.13.4-.54.4h-3l.35-1.16c1.12-3.6,2.25-7.2,3.36-10.8a3.41,3.41,0,0,1,2.87-2.47,3.83,3.83,0,0,1,3.15.62,3.58,3.58,0,0,1,1.26,1.8c.89,2.83,1.77,5.66,2.65,8.49a1.28,1.28,0,0,1,0,.13c.06.29.2.4.52.4,2.32,0,4.64,0,7,0a1.39,1.39,0,0,0,1.36-1.8.92.92,0,0,0-1-.74h-4.2a3.87,3.87,0,0,1-4-3,5.14,5.14,0,0,1,.16-3.4,3.6,3.6,0,0,1,3.05-2.24,6.29,6.29,0,0,1,.88-.06h7.62Z"/><path class="cls-3" d="M74,98.34H70.83c0-.11,0-.21,0-.31q0-5.37,0-10.73a4.86,4.86,0,0,1,.28-1.72,2.33,2.33,0,0,1,1.56-1.51,5.17,5.17,0,0,1,3-.08,3.91,3.91,0,0,1,2.78,2.84q1,3.54,2,7.08c.12.42.27.84.41,1.25a.93.93,0,0,0,.19.29.53.53,0,0,0,.64.11c.22-.08.27-.26.26-.48q0-2.85,0-5.7,0-2.43,0-4.87c0-.11,0-.21,0-.33h3.25v.3c0,3.54,0,7.08,0,10.63a4,4,0,0,1-.65,2.37,3,3,0,0,1-2.36,1.25,5.43,5.43,0,0,1-2.8-.49,2.89,2.89,0,0,1-1.59-1.89q-1.17-4.12-2.36-8.24a4.29,4.29,0,0,0-.17-.54,1.5,1.5,0,0,0-.25-.41.54.54,0,0,0-.88.06A1.54,1.54,0,0,0,74,88c0,3.34,0,6.67,0,10C74,98.08,74,98.2,74,98.34Z"/><path class="cls-3" d="M124.5,98.38h-2.94a.32.32,0,0,1-.38-.26q-1.68-5.26-3.39-10.51c-.08-.25-.19-.47-.5-.49s-.44.15-.55.5q-1.67,5.22-3.34,10.44a.38.38,0,0,1-.45.31c-.9,0-1.81,0-2.72,0h-.34c.08-.27.14-.5.22-.74,1.16-3.74,2.34-7.47,3.48-11.21a3.55,3.55,0,0,1,3.29-2.54,5.19,5.19,0,0,1,1.6.13,3.31,3.31,0,0,1,2.42,2.41c1.16,3.77,2.28,7.54,3.41,11.32Z"/></g><g id="NtjWEG.tif-26" data-name="NtjWEG.tif"><path class="cls-3" d="M292.32,65.11v3H285a1.36,1.36,0,0,0-1.38,1.68,1.13,1.13,0,0,0,1.24,1h3.68a2.61,2.61,0,0,1,.72.09,5.75,5.75,0,0,1,3.12,2.2,3.22,3.22,0,0,1,.57,2.24,4.75,4.75,0,0,1-1.3,2.91A3.46,3.46,0,0,1,289,79.36H278.85a.3.3,0,0,1-.34-.25q-1.69-5.27-3.4-10.53c-.11-.33-.25-.47-.5-.48s-.43.16-.53.48l-3.32,10.36c-.13.4-.13.4-.54.4h-3l.35-1.16c1.12-3.6,2.25-7.2,3.36-10.8a3.41,3.41,0,0,1,2.87-2.47,3.83,3.83,0,0,1,3.15.62,3.58,3.58,0,0,1,1.26,1.8c.89,2.83,1.77,5.66,2.65,8.49a1.28,1.28,0,0,1,0,.13c.06.29.2.4.52.4,2.32,0,4.64,0,7,0a1.39,1.39,0,0,0,1.36-1.8.92.92,0,0,0-1-.74h-4.2a3.87,3.87,0,0,1-4-3,5.14,5.14,0,0,1,.16-3.4,3.6,3.6,0,0,1,3.05-2.24,6.29,6.29,0,0,1,.88-.06h7.62Z"/><path class="cls-3" d="M256.41,79.31h-3.14c0-.11,0-.21,0-.31q0-5.37,0-10.73a4.86,4.86,0,0,1,.28-1.72A2.33,2.33,0,0,1,255.1,65a5.17,5.17,0,0,1,3-.08,3.91,3.91,0,0,1,2.78,2.84q1,3.54,2,7.08c.12.42.27.84.41,1.25a.93.93,0,0,0,.19.29.53.53,0,0,0,.64.11c.22-.08.27-.26.26-.48q0-2.85,0-5.7,0-2.43,0-4.87c0-.11,0-.21,0-.33h3.25v.3c0,3.54,0,7.08,0,10.63a4,4,0,0,1-.65,2.37,3,3,0,0,1-2.36,1.25,5.43,5.43,0,0,1-2.8-.49,2.89,2.89,0,0,1-1.59-1.89q-1.17-4.12-2.36-8.24a4.29,4.29,0,0,0-.17-.54,1.5,1.5,0,0,0-.25-.41.54.54,0,0,0-.88.06,1.54,1.54,0,0,0-.19.73c0,3.34,0,6.67,0,10C256.41,79.05,256.41,79.18,256.41,79.31Z"/><path class="cls-3" d="M306.93,79.36H304a.32.32,0,0,1-.38-.26q-1.68-5.26-3.39-10.51c-.08-.25-.19-.47-.5-.49s-.44.15-.55.5Q297.5,73.82,295.84,79a.38.38,0,0,1-.45.31c-.9,0-1.81,0-2.72,0h-.34c.08-.27.14-.5.22-.74,1.16-3.74,2.34-7.47,3.48-11.21a3.55,3.55,0,0,1,3.29-2.54,5.19,5.19,0,0,1,1.6.13,3.31,3.31,0,0,1,2.42,2.41c1.16,3.77,2.28,7.54,3.41,11.32Z"/></g><g id="NtjWEG.tif-27" data-name="NtjWEG.tif"><path class="cls-3" d="M231.84,65.11v3h-7.31a1.36,1.36,0,0,0-1.38,1.68,1.13,1.13,0,0,0,1.24,1h3.68a2.61,2.61,0,0,1,.72.09,5.75,5.75,0,0,1,3.12,2.2,3.22,3.22,0,0,1,.57,2.24,4.75,4.75,0,0,1-1.3,2.91,3.46,3.46,0,0,1-2.65,1.09H218.38a.3.3,0,0,1-.34-.25q-1.69-5.27-3.4-10.53c-.11-.33-.25-.47-.5-.48s-.43.16-.53.48l-3.32,10.36c-.13.4-.13.4-.54.4h-3l.35-1.16c1.12-3.6,2.25-7.2,3.36-10.8a3.41,3.41,0,0,1,2.87-2.47,3.83,3.83,0,0,1,3.15.62,3.58,3.58,0,0,1,1.26,1.8c.89,2.83,1.77,5.66,2.65,8.49a1.28,1.28,0,0,1,0,.13c.06.29.2.4.52.4,2.32,0,4.64,0,7,0a1.39,1.39,0,0,0,1.36-1.8.92.92,0,0,0-1-.74h-4.2a3.87,3.87,0,0,1-4-3,5.14,5.14,0,0,1,.16-3.4,3.6,3.6,0,0,1,3.05-2.24,6.29,6.29,0,0,1,.88-.06h7.62Z"/><path class="cls-3" d="M195.93,79.31h-3.14c0-.11,0-.21,0-.31q0-5.37,0-10.73a4.86,4.86,0,0,1,.28-1.72A2.33,2.33,0,0,1,194.62,65a5.17,5.17,0,0,1,3-.08,3.91,3.91,0,0,1,2.78,2.84q1,3.54,2,7.08c.12.42.27.84.41,1.25a.93.93,0,0,0,.19.29.53.53,0,0,0,.64.11c.22-.08.27-.26.26-.48q0-2.85,0-5.7,0-2.43,0-4.87c0-.11,0-.21,0-.33h3.25v.3c0,3.54,0,7.08,0,10.63a4,4,0,0,1-.65,2.37,3,3,0,0,1-2.36,1.25,5.43,5.43,0,0,1-2.8-.49,2.89,2.89,0,0,1-1.59-1.89q-1.17-4.12-2.36-8.24a4.29,4.29,0,0,0-.17-.54,1.5,1.5,0,0,0-.25-.41.54.54,0,0,0-.88.06,1.54,1.54,0,0,0-.19.73c0,3.34,0,6.67,0,10C195.93,79.05,195.93,79.18,195.93,79.31Z"/><path class="cls-3" d="M246.45,79.36h-2.94a.32.32,0,0,1-.38-.26q-1.68-5.26-3.39-10.51c-.08-.25-.19-.47-.5-.49s-.44.15-.55.5Q237,73.82,235.36,79a.38.38,0,0,1-.45.31c-.9,0-1.81,0-2.72,0h-.34c.08-.27.14-.5.22-.74,1.16-3.74,2.34-7.47,3.48-11.21a3.55,3.55,0,0,1,3.29-2.54,5.19,5.19,0,0,1,1.6.13,3.31,3.31,0,0,1,2.42,2.41c1.16,3.77,2.28,7.54,3.41,11.32Z"/></g><g id="NtjWEG.tif-28" data-name="NtjWEG.tif"><path class="cls-3" d="M171,65.11v3h-7.31a1.36,1.36,0,0,0-1.38,1.68,1.13,1.13,0,0,0,1.24,1h3.68a2.61,2.61,0,0,1,.72.09,5.75,5.75,0,0,1,3.12,2.2,3.22,3.22,0,0,1,.57,2.24,4.75,4.75,0,0,1-1.3,2.91,3.46,3.46,0,0,1-2.65,1.09H157.5a.3.3,0,0,1-.34-.25q-1.69-5.27-3.4-10.53c-.11-.33-.25-.47-.5-.48s-.43.16-.53.48l-3.32,10.36c-.13.4-.13.4-.54.4h-3l.35-1.16c1.12-3.6,2.25-7.2,3.36-10.8a3.41,3.41,0,0,1,2.87-2.47,3.83,3.83,0,0,1,3.15.62,3.58,3.58,0,0,1,1.26,1.8c.89,2.83,1.77,5.66,2.65,8.49a1.28,1.28,0,0,1,0,.13c.06.29.2.4.52.4,2.32,0,4.64,0,7,0a1.39,1.39,0,0,0,1.36-1.8.92.92,0,0,0-1-.74h-4.2a3.87,3.87,0,0,1-4-3,5.14,5.14,0,0,1,.16-3.4,3.6,3.6,0,0,1,3.05-2.24,6.29,6.29,0,0,1,.88-.06H171Z"/><path class="cls-3" d="M135,79.31h-3.14c0-.11,0-.21,0-.31q0-5.37,0-10.73a4.86,4.86,0,0,1,.28-1.72A2.33,2.33,0,0,1,133.74,65a5.17,5.17,0,0,1,3-.08,3.91,3.91,0,0,1,2.78,2.84q1,3.54,2,7.08c.12.42.27.84.41,1.25a.93.93,0,0,0,.19.29.53.53,0,0,0,.64.11c.22-.08.27-.26.26-.48q0-2.85,0-5.7,0-2.43,0-4.87c0-.11,0-.21,0-.33h3.25v.3c0,3.54,0,7.08,0,10.63a4,4,0,0,1-.65,2.37,3,3,0,0,1-2.36,1.25,5.43,5.43,0,0,1-2.8-.49,2.89,2.89,0,0,1-1.59-1.89q-1.17-4.12-2.36-8.24a4.3,4.3,0,0,0-.17-.54,1.5,1.5,0,0,0-.25-.41.54.54,0,0,0-.88.06,1.54,1.54,0,0,0-.19.73c0,3.34,0,6.67,0,10C135,79.05,135,79.18,135,79.31Z"/><path class="cls-3" d="M185.57,79.36h-2.94a.32.32,0,0,1-.38-.26q-1.68-5.26-3.39-10.51c-.08-.25-.19-.47-.5-.49s-.44.15-.55.5q-1.67,5.22-3.34,10.44a.38.38,0,0,1-.45.31c-.9,0-1.81,0-2.72,0H171c.08-.27.14-.5.22-.74,1.16-3.74,2.34-7.47,3.48-11.21A3.55,3.55,0,0,1,178,64.85a5.19,5.19,0,0,1,1.6.13A3.31,3.31,0,0,1,182,67.39c1.16,3.77,2.28,7.54,3.41,11.32Z"/></g><g id="NtjWEG.tif-29" data-name="NtjWEG.tif"><path class="cls-3" d="M109.89,65.11v3h-7.31a1.36,1.36,0,0,0-1.38,1.68,1.13,1.13,0,0,0,1.24,1h3.68a2.61,2.61,0,0,1,.72.09,5.75,5.75,0,0,1,3.12,2.2,3.22,3.22,0,0,1,.57,2.24,4.75,4.75,0,0,1-1.3,2.91,3.46,3.46,0,0,1-2.65,1.09H96.42a.3.3,0,0,1-.34-.25q-1.69-5.27-3.4-10.53c-.11-.33-.25-.47-.5-.48s-.43.16-.53.48L88.33,78.95c-.13.4-.13.4-.54.4h-3l.35-1.16c1.12-3.6,2.25-7.2,3.36-10.8a3.41,3.41,0,0,1,2.87-2.47,3.83,3.83,0,0,1,3.15.62,3.58,3.58,0,0,1,1.26,1.8c.89,2.83,1.77,5.66,2.65,8.49a1.28,1.28,0,0,1,0,.13c.06.29.2.4.52.4,2.32,0,4.64,0,7,0a1.39,1.39,0,0,0,1.36-1.8.92.92,0,0,0-1-.74h-4.2a3.87,3.87,0,0,1-4-3,5.14,5.14,0,0,1,.16-3.4,3.6,3.6,0,0,1,3.05-2.24,6.29,6.29,0,0,1,.88-.06h7.62Z"/><path class="cls-3" d="M74,79.31H70.83c0-.11,0-.21,0-.31q0-5.37,0-10.73a4.86,4.86,0,0,1,.28-1.72A2.33,2.33,0,0,1,72.66,65a5.17,5.17,0,0,1,3-.08,3.91,3.91,0,0,1,2.78,2.84q1,3.54,2,7.08c.12.42.27.84.41,1.25a.93.93,0,0,0,.19.29.53.53,0,0,0,.64.11c.22-.08.27-.26.26-.48q0-2.85,0-5.7,0-2.43,0-4.87c0-.11,0-.21,0-.33h3.25v.3c0,3.54,0,7.08,0,10.63a4,4,0,0,1-.65,2.37,3,3,0,0,1-2.36,1.25,5.43,5.43,0,0,1-2.8-.49,2.89,2.89,0,0,1-1.59-1.89q-1.17-4.12-2.36-8.24a4.29,4.29,0,0,0-.17-.54,1.5,1.5,0,0,0-.25-.41.54.54,0,0,0-.88.06,1.54,1.54,0,0,0-.19.73c0,3.34,0,6.67,0,10C74,79.05,74,79.18,74,79.31Z"/><path class="cls-3" d="M124.5,79.36h-2.94a.32.32,0,0,1-.38-.26q-1.68-5.26-3.39-10.51c-.08-.25-.19-.47-.5-.49s-.44.15-.55.5Q115.07,73.82,113.4,79a.38.38,0,0,1-.45.31c-.9,0-1.81,0-2.72,0h-.34c.08-.27.14-.5.22-.74,1.16-3.74,2.34-7.47,3.48-11.21a3.55,3.55,0,0,1,3.29-2.54,5.19,5.19,0,0,1,1.6.13,3.31,3.31,0,0,1,2.42,2.41c1.16,3.77,2.28,7.54,3.41,11.32Z"/></g><g id="NtjWEG.tif-30" data-name="NtjWEG.tif"><path class="cls-3" d="M292.32,46.08v3H285a1.36,1.36,0,0,0-1.38,1.68,1.13,1.13,0,0,0,1.24,1h3.68a2.61,2.61,0,0,1,.72.09,5.75,5.75,0,0,1,3.12,2.2,3.22,3.22,0,0,1,.57,2.24,4.75,4.75,0,0,1-1.3,2.91A3.46,3.46,0,0,1,289,60.33H278.85a.3.3,0,0,1-.34-.25q-1.69-5.27-3.4-10.53c-.11-.33-.25-.47-.5-.48s-.43.16-.53.48l-3.32,10.36c-.13.4-.13.4-.54.4h-3l.35-1.16c1.12-3.6,2.25-7.2,3.36-10.8a3.41,3.41,0,0,1,2.87-2.47,3.83,3.83,0,0,1,3.15.62,3.58,3.58,0,0,1,1.26,1.8c.89,2.83,1.77,5.66,2.65,8.49a1.28,1.28,0,0,1,0,.13c.06.29.2.4.52.4,2.32,0,4.64,0,7,0a1.39,1.39,0,0,0,1.36-1.8.92.92,0,0,0-1-.74h-4.2a3.87,3.87,0,0,1-4-3,5.14,5.14,0,0,1,.16-3.4,3.6,3.6,0,0,1,3.05-2.24,6.29,6.29,0,0,1,.88-.06h7.62Z"/><path class="cls-3" d="M256.41,60.29h-3.14c0-.11,0-.21,0-.31q0-5.37,0-10.73a4.86,4.86,0,0,1,.28-1.72A2.33,2.33,0,0,1,255.1,46a5.17,5.17,0,0,1,3-.08,3.91,3.91,0,0,1,2.78,2.84q1,3.54,2,7.08c.12.42.27.84.41,1.25a.93.93,0,0,0,.19.29.53.53,0,0,0,.64.11c.22-.08.27-.26.26-.48q0-2.85,0-5.7,0-2.43,0-4.87c0-.11,0-.21,0-.33h3.25v.3c0,3.54,0,7.08,0,10.63a4,4,0,0,1-.65,2.37,3,3,0,0,1-2.36,1.25,5.43,5.43,0,0,1-2.8-.49,2.89,2.89,0,0,1-1.59-1.89Q259.1,54.16,257.9,50a4.29,4.29,0,0,0-.17-.54,1.5,1.5,0,0,0-.25-.41.54.54,0,0,0-.88.06,1.54,1.54,0,0,0-.19.73c0,3.34,0,6.67,0,10C256.41,60,256.41,60.15,256.41,60.29Z"/><path class="cls-3" d="M306.93,60.33H304a.32.32,0,0,1-.38-.26q-1.68-5.26-3.39-10.51c-.08-.25-.19-.47-.5-.49s-.44.15-.55.5Q297.5,54.79,295.84,60a.38.38,0,0,1-.45.31c-.9,0-1.81,0-2.72,0h-.34c.08-.27.14-.5.22-.74,1.16-3.74,2.34-7.47,3.48-11.21a3.55,3.55,0,0,1,3.29-2.54,5.19,5.19,0,0,1,1.6.13,3.31,3.31,0,0,1,2.42,2.41c1.16,3.77,2.28,7.54,3.41,11.32Z"/></g><g id="NtjWEG.tif-31" data-name="NtjWEG.tif"><path class="cls-3" d="M231.84,46.08v3h-7.31a1.36,1.36,0,0,0-1.38,1.68,1.13,1.13,0,0,0,1.24,1h3.68a2.61,2.61,0,0,1,.72.09,5.75,5.75,0,0,1,3.12,2.2,3.22,3.22,0,0,1,.57,2.24,4.75,4.75,0,0,1-1.3,2.91,3.46,3.46,0,0,1-2.65,1.09H218.38a.3.3,0,0,1-.34-.25q-1.69-5.27-3.4-10.53c-.11-.33-.25-.47-.5-.48s-.43.16-.53.48l-3.32,10.36c-.13.4-.13.4-.54.4h-3l.35-1.16c1.12-3.6,2.25-7.2,3.36-10.8a3.41,3.41,0,0,1,2.87-2.47,3.83,3.83,0,0,1,3.15.62,3.58,3.58,0,0,1,1.26,1.8c.89,2.83,1.77,5.66,2.65,8.49a1.28,1.28,0,0,1,0,.13c.06.29.2.4.52.4,2.32,0,4.64,0,7,0a1.39,1.39,0,0,0,1.36-1.8.92.92,0,0,0-1-.74h-4.2a3.87,3.87,0,0,1-4-3,5.14,5.14,0,0,1,.16-3.4,3.6,3.6,0,0,1,3.05-2.24,6.29,6.29,0,0,1,.88-.06h7.62Z"/><path class="cls-3" d="M195.93,60.29h-3.14c0-.11,0-.21,0-.31q0-5.37,0-10.73a4.86,4.86,0,0,1,.28-1.72A2.33,2.33,0,0,1,194.62,46a5.17,5.17,0,0,1,3-.08,3.91,3.91,0,0,1,2.78,2.84q1,3.54,2,7.08c.12.42.27.84.41,1.25a.93.93,0,0,0,.19.29.53.53,0,0,0,.64.11c.22-.08.27-.26.26-.48q0-2.85,0-5.7,0-2.43,0-4.87c0-.11,0-.21,0-.33h3.25v.3c0,3.54,0,7.08,0,10.63a4,4,0,0,1-.65,2.37,3,3,0,0,1-2.36,1.25,5.43,5.43,0,0,1-2.8-.49,2.89,2.89,0,0,1-1.59-1.89q-1.17-4.12-2.36-8.24a4.29,4.29,0,0,0-.17-.54,1.5,1.5,0,0,0-.25-.41.54.54,0,0,0-.88.06,1.54,1.54,0,0,0-.19.73c0,3.34,0,6.67,0,10C195.93,60,195.93,60.15,195.93,60.29Z"/><path class="cls-3" d="M246.45,60.33h-2.94a.32.32,0,0,1-.38-.26q-1.68-5.26-3.39-10.51c-.08-.25-.19-.47-.5-.49s-.44.15-.55.5Q237,54.79,235.36,60a.38.38,0,0,1-.45.31c-.9,0-1.81,0-2.72,0h-.34c.08-.27.14-.5.22-.74,1.16-3.74,2.34-7.47,3.48-11.21a3.55,3.55,0,0,1,3.29-2.54,5.19,5.19,0,0,1,1.6.13,3.31,3.31,0,0,1,2.42,2.41c1.16,3.77,2.28,7.54,3.41,11.32Z"/></g><g id="NtjWEG.tif-32" data-name="NtjWEG.tif"><path class="cls-3" d="M171,46.08v3h-7.31a1.36,1.36,0,0,0-1.38,1.68,1.13,1.13,0,0,0,1.24,1h3.68a2.61,2.61,0,0,1,.72.09,5.75,5.75,0,0,1,3.12,2.2,3.22,3.22,0,0,1,.57,2.24,4.75,4.75,0,0,1-1.3,2.91,3.46,3.46,0,0,1-2.65,1.09H157.5a.3.3,0,0,1-.34-.25q-1.69-5.27-3.4-10.53c-.11-.33-.25-.47-.5-.48s-.43.16-.53.48l-3.32,10.36c-.13.4-.13.4-.54.4h-3l.35-1.16c1.12-3.6,2.25-7.2,3.36-10.8a3.41,3.41,0,0,1,2.87-2.47,3.83,3.83,0,0,1,3.15.62,3.58,3.58,0,0,1,1.26,1.8c.89,2.83,1.77,5.66,2.65,8.49a1.28,1.28,0,0,1,0,.13c.06.29.2.4.52.4,2.32,0,4.64,0,7,0a1.39,1.39,0,0,0,1.36-1.8.92.92,0,0,0-1-.74h-4.2a3.87,3.87,0,0,1-4-3,5.14,5.14,0,0,1,.16-3.4,3.6,3.6,0,0,1,3.05-2.24,6.29,6.29,0,0,1,.88-.06H171Z"/><path class="cls-3" d="M135,60.29h-3.14c0-.11,0-.21,0-.31q0-5.37,0-10.73a4.86,4.86,0,0,1,.28-1.72A2.33,2.33,0,0,1,133.74,46a5.17,5.17,0,0,1,3-.08,3.91,3.91,0,0,1,2.78,2.84q1,3.54,2,7.08c.12.42.27.84.41,1.25a.93.93,0,0,0,.19.29.53.53,0,0,0,.64.11c.22-.08.27-.26.26-.48q0-2.85,0-5.7,0-2.43,0-4.87c0-.11,0-.21,0-.33h3.25v.3c0,3.54,0,7.08,0,10.63a4,4,0,0,1-.65,2.37,3,3,0,0,1-2.36,1.25,5.43,5.43,0,0,1-2.8-.49,2.89,2.89,0,0,1-1.59-1.89q-1.17-4.12-2.36-8.24a4.3,4.3,0,0,0-.17-.54,1.5,1.5,0,0,0-.25-.41.54.54,0,0,0-.88.06,1.54,1.54,0,0,0-.19.73c0,3.34,0,6.67,0,10C135,60,135,60.15,135,60.29Z"/><path class="cls-3" d="M185.57,60.33h-2.94a.32.32,0,0,1-.38-.26q-1.68-5.26-3.39-10.51c-.08-.25-.19-.47-.5-.49s-.44.15-.55.5q-1.67,5.22-3.34,10.44a.38.38,0,0,1-.45.31c-.9,0-1.81,0-2.72,0H171c.08-.27.14-.5.22-.74,1.16-3.74,2.34-7.47,3.48-11.21A3.55,3.55,0,0,1,178,45.82a5.19,5.19,0,0,1,1.6.13A3.31,3.31,0,0,1,182,48.36c1.16,3.77,2.28,7.54,3.41,11.32Z"/></g><g id="NtjWEG.tif-33" data-name="NtjWEG.tif"><path class="cls-3" d="M109.89,46.08v3h-7.31a1.36,1.36,0,0,0-1.38,1.68,1.13,1.13,0,0,0,1.24,1h3.68a2.61,2.61,0,0,1,.72.09,5.75,5.75,0,0,1,3.12,2.2,3.22,3.22,0,0,1,.57,2.24,4.75,4.75,0,0,1-1.3,2.91,3.46,3.46,0,0,1-2.65,1.09H96.42a.3.3,0,0,1-.34-.25q-1.69-5.27-3.4-10.53c-.11-.33-.25-.47-.5-.48s-.43.16-.53.48L88.33,59.92c-.13.4-.13.4-.54.4h-3l.35-1.16c1.12-3.6,2.25-7.2,3.36-10.8a3.41,3.41,0,0,1,2.87-2.47,3.83,3.83,0,0,1,3.15.62,3.58,3.58,0,0,1,1.26,1.8c.89,2.83,1.77,5.66,2.65,8.49a1.28,1.28,0,0,1,0,.13c.06.29.2.4.52.4,2.32,0,4.64,0,7,0a1.39,1.39,0,0,0,1.36-1.8.92.92,0,0,0-1-.74h-4.2a3.87,3.87,0,0,1-4-3,5.14,5.14,0,0,1,.16-3.4,3.6,3.6,0,0,1,3.05-2.24,6.29,6.29,0,0,1,.88-.06h7.62Z"/><path class="cls-3" d="M74,60.29H70.83c0-.11,0-.21,0-.31q0-5.37,0-10.73a4.86,4.86,0,0,1,.28-1.72A2.33,2.33,0,0,1,72.66,46a5.17,5.17,0,0,1,3-.08,3.91,3.91,0,0,1,2.78,2.84q1,3.54,2,7.08c.12.42.27.84.41,1.25a.93.93,0,0,0,.19.29.53.53,0,0,0,.64.11c.22-.08.27-.26.26-.48q0-2.85,0-5.7,0-2.43,0-4.87c0-.11,0-.21,0-.33h3.25v.3c0,3.54,0,7.08,0,10.63a4,4,0,0,1-.65,2.37,3,3,0,0,1-2.36,1.25,5.43,5.43,0,0,1-2.8-.49,2.89,2.89,0,0,1-1.59-1.89Q76.66,54.16,75.47,50a4.29,4.29,0,0,0-.17-.54,1.5,1.5,0,0,0-.25-.41.54.54,0,0,0-.88.06,1.54,1.54,0,0,0-.19.73c0,3.34,0,6.67,0,10C74,60,74,60.15,74,60.29Z"/><path class="cls-3" d="M124.5,60.33h-2.94a.32.32,0,0,1-.38-.26q-1.68-5.26-3.39-10.51c-.08-.25-.19-.47-.5-.49s-.44.15-.55.5Q115.07,54.79,113.4,60a.38.38,0,0,1-.45.31c-.9,0-1.81,0-2.72,0h-.34c.08-.27.14-.5.22-.74,1.16-3.74,2.34-7.47,3.48-11.21a3.55,3.55,0,0,1,3.29-2.54,5.19,5.19,0,0,1,1.6.13,3.31,3.31,0,0,1,2.42,2.41c1.16,3.77,2.28,7.54,3.41,11.32Z"/></g><g id="NtjWEG.tif-34" data-name="NtjWEG.tif"><path class="cls-3" d="M292.32,27.06v3H285a1.36,1.36,0,0,0-1.38,1.68,1.13,1.13,0,0,0,1.24,1h3.68a2.61,2.61,0,0,1,.72.09,5.75,5.75,0,0,1,3.12,2.2,3.22,3.22,0,0,1,.57,2.24,4.75,4.75,0,0,1-1.3,2.91A3.46,3.46,0,0,1,289,41.3H278.85a.3.3,0,0,1-.34-.25q-1.69-5.27-3.4-10.53c-.11-.33-.25-.47-.5-.48s-.43.16-.53.48l-3.32,10.36c-.13.4-.13.4-.54.4h-3l.35-1.16c1.12-3.6,2.25-7.2,3.36-10.8a3.41,3.41,0,0,1,2.87-2.47,3.83,3.83,0,0,1,3.15.62,3.58,3.58,0,0,1,1.26,1.8c.89,2.83,1.77,5.66,2.65,8.49a1.28,1.28,0,0,1,0,.13c.06.29.2.4.52.4,2.32,0,4.64,0,7,0a1.39,1.39,0,0,0,1.36-1.8.92.92,0,0,0-1-.74h-4.2a3.87,3.87,0,0,1-4-3,5.14,5.14,0,0,1,.16-3.4,3.6,3.6,0,0,1,3.05-2.24,6.29,6.29,0,0,1,.88-.06h7.62Z"/><path class="cls-3" d="M256.41,41.26h-3.14c0-.11,0-.21,0-.31q0-5.37,0-10.73a4.86,4.86,0,0,1,.28-1.72A2.33,2.33,0,0,1,255.1,27a5.17,5.17,0,0,1,3-.08,3.91,3.91,0,0,1,2.78,2.84q1,3.54,2,7.08c.12.42.27.84.41,1.25a.93.93,0,0,0,.19.29.53.53,0,0,0,.64.11c.22-.08.27-.26.26-.48q0-2.85,0-5.7,0-2.43,0-4.87c0-.11,0-.21,0-.33h3.25v.3c0,3.54,0,7.08,0,10.63A4,4,0,0,1,267,40.4a3,3,0,0,1-2.36,1.25,5.43,5.43,0,0,1-2.8-.49,2.89,2.89,0,0,1-1.59-1.89Q259.1,35.14,257.9,31a4.29,4.29,0,0,0-.17-.54,1.5,1.5,0,0,0-.25-.41.54.54,0,0,0-.88.06,1.54,1.54,0,0,0-.19.73c0,3.34,0,6.67,0,10C256.41,41,256.41,41.12,256.41,41.26Z"/><path class="cls-3" d="M306.93,41.3H304a.32.32,0,0,1-.38-.26q-1.68-5.26-3.39-10.51c-.08-.25-.19-.47-.5-.49s-.44.15-.55.5Q297.5,35.76,295.84,41a.38.38,0,0,1-.45.31c-.9,0-1.81,0-2.72,0h-.34c.08-.27.14-.5.22-.74,1.16-3.74,2.34-7.47,3.48-11.21a3.55,3.55,0,0,1,3.29-2.54,5.19,5.19,0,0,1,1.6.13,3.31,3.31,0,0,1,2.42,2.41c1.16,3.77,2.28,7.54,3.41,11.32Z"/></g><g id="NtjWEG.tif-35" data-name="NtjWEG.tif"><path class="cls-3" d="M231.84,27.06v3h-7.31a1.36,1.36,0,0,0-1.38,1.68,1.13,1.13,0,0,0,1.24,1h3.68a2.61,2.61,0,0,1,.72.09,5.75,5.75,0,0,1,3.12,2.2,3.22,3.22,0,0,1,.57,2.24,4.75,4.75,0,0,1-1.3,2.91,3.46,3.46,0,0,1-2.65,1.09H218.38a.3.3,0,0,1-.34-.25q-1.69-5.27-3.4-10.53c-.11-.33-.25-.47-.5-.48s-.43.16-.53.48l-3.32,10.36c-.13.4-.13.4-.54.4h-3l.35-1.16c1.12-3.6,2.25-7.2,3.36-10.8a3.41,3.41,0,0,1,2.87-2.47,3.83,3.83,0,0,1,3.15.62,3.58,3.58,0,0,1,1.26,1.8c.89,2.83,1.77,5.66,2.65,8.49a1.28,1.28,0,0,1,0,.13c.06.29.2.4.52.4,2.32,0,4.64,0,7,0a1.39,1.39,0,0,0,1.36-1.8.92.92,0,0,0-1-.74h-4.2a3.87,3.87,0,0,1-4-3,5.14,5.14,0,0,1,.16-3.4,3.6,3.6,0,0,1,3.05-2.24,6.29,6.29,0,0,1,.88-.06h7.62Z"/><path class="cls-3" d="M195.93,41.26h-3.14c0-.11,0-.21,0-.31q0-5.37,0-10.73a4.86,4.86,0,0,1,.28-1.72A2.33,2.33,0,0,1,194.62,27a5.17,5.17,0,0,1,3-.08,3.91,3.91,0,0,1,2.78,2.84q1,3.54,2,7.08c.12.42.27.84.41,1.25a.93.93,0,0,0,.19.29.53.53,0,0,0,.64.11c.22-.08.27-.26.26-.48q0-2.85,0-5.7,0-2.43,0-4.87c0-.11,0-.21,0-.33h3.25v.3c0,3.54,0,7.08,0,10.63a4,4,0,0,1-.65,2.37,3,3,0,0,1-2.36,1.25,5.43,5.43,0,0,1-2.8-.49,2.89,2.89,0,0,1-1.59-1.89q-1.17-4.12-2.36-8.24a4.29,4.29,0,0,0-.17-.54,1.5,1.5,0,0,0-.25-.41.54.54,0,0,0-.88.06,1.54,1.54,0,0,0-.19.73c0,3.34,0,6.67,0,10C195.93,41,195.93,41.12,195.93,41.26Z"/><path class="cls-3" d="M246.45,41.3h-2.94a.32.32,0,0,1-.38-.26q-1.68-5.26-3.39-10.51c-.08-.25-.19-.47-.5-.49s-.44.15-.55.5Q237,35.76,235.36,41a.38.38,0,0,1-.45.31c-.9,0-1.81,0-2.72,0h-.34c.08-.27.14-.5.22-.74,1.16-3.74,2.34-7.47,3.48-11.21a3.55,3.55,0,0,1,3.29-2.54,5.19,5.19,0,0,1,1.6.13,3.31,3.31,0,0,1,2.42,2.41c1.16,3.77,2.28,7.54,3.41,11.32Z"/></g><g id="NtjWEG.tif-36" data-name="NtjWEG.tif"><path class="cls-3" d="M171,27.06v3h-7.31a1.36,1.36,0,0,0-1.38,1.68,1.13,1.13,0,0,0,1.24,1h3.68a2.61,2.61,0,0,1,.72.09,5.75,5.75,0,0,1,3.12,2.2,3.22,3.22,0,0,1,.57,2.24,4.75,4.75,0,0,1-1.3,2.91,3.46,3.46,0,0,1-2.65,1.09H157.5a.3.3,0,0,1-.34-.25q-1.69-5.27-3.4-10.53c-.11-.33-.25-.47-.5-.48s-.43.16-.53.48l-3.32,10.36c-.13.4-.13.4-.54.4h-3l.35-1.16c1.12-3.6,2.25-7.2,3.36-10.8a3.41,3.41,0,0,1,2.87-2.47,3.83,3.83,0,0,1,3.15.62,3.58,3.58,0,0,1,1.26,1.8c.89,2.83,1.77,5.66,2.65,8.49a1.28,1.28,0,0,1,0,.13c.06.29.2.4.52.4,2.32,0,4.64,0,7,0a1.39,1.39,0,0,0,1.36-1.8.92.92,0,0,0-1-.74h-4.2a3.87,3.87,0,0,1-4-3,5.14,5.14,0,0,1,.16-3.4,3.6,3.6,0,0,1,3.05-2.24,6.29,6.29,0,0,1,.88-.06H171Z"/><path class="cls-3" d="M135,41.26h-3.14c0-.11,0-.21,0-.31q0-5.37,0-10.73a4.86,4.86,0,0,1,.28-1.72A2.33,2.33,0,0,1,133.74,27a5.17,5.17,0,0,1,3-.08,3.91,3.91,0,0,1,2.78,2.84q1,3.54,2,7.08c.12.42.27.84.41,1.25a.93.93,0,0,0,.19.29.53.53,0,0,0,.64.11c.22-.08.27-.26.26-.48q0-2.85,0-5.7,0-2.43,0-4.87c0-.11,0-.21,0-.33h3.25v.3c0,3.54,0,7.08,0,10.63a4,4,0,0,1-.65,2.37,3,3,0,0,1-2.36,1.25,5.43,5.43,0,0,1-2.8-.49,2.89,2.89,0,0,1-1.59-1.89q-1.17-4.12-2.36-8.24a4.3,4.3,0,0,0-.17-.54,1.5,1.5,0,0,0-.25-.41.54.54,0,0,0-.88.06,1.54,1.54,0,0,0-.19.73c0,3.34,0,6.67,0,10C135,41,135,41.12,135,41.26Z"/><path class="cls-3" d="M185.57,41.3h-2.94a.32.32,0,0,1-.38-.26q-1.68-5.26-3.39-10.51c-.08-.25-.19-.47-.5-.49s-.44.15-.55.5q-1.67,5.22-3.34,10.44a.38.38,0,0,1-.45.31c-.9,0-1.81,0-2.72,0H171c.08-.27.14-.5.22-.74,1.16-3.74,2.34-7.47,3.48-11.21A3.55,3.55,0,0,1,178,26.79a5.19,5.19,0,0,1,1.6.13A3.31,3.31,0,0,1,182,29.33c1.16,3.77,2.28,7.54,3.41,11.32Z"/></g><g id="NtjWEG.tif-37" data-name="NtjWEG.tif"><path class="cls-3" d="M109.89,27.06v3h-7.31a1.36,1.36,0,0,0-1.38,1.68,1.13,1.13,0,0,0,1.24,1h3.68a2.61,2.61,0,0,1,.72.09,5.75,5.75,0,0,1,3.12,2.2,3.22,3.22,0,0,1,.57,2.24,4.75,4.75,0,0,1-1.3,2.91,3.46,3.46,0,0,1-2.65,1.09H96.42a.3.3,0,0,1-.34-.25q-1.69-5.27-3.4-10.53c-.11-.33-.25-.47-.5-.48s-.43.16-.53.48L88.33,40.89c-.13.4-.13.4-.54.4h-3l.35-1.16c1.12-3.6,2.25-7.2,3.36-10.8a3.41,3.41,0,0,1,2.87-2.47,3.83,3.83,0,0,1,3.15.62,3.58,3.58,0,0,1,1.26,1.8c.89,2.83,1.77,5.66,2.65,8.49a1.28,1.28,0,0,1,0,.13c.06.29.2.4.52.4,2.32,0,4.64,0,7,0a1.39,1.39,0,0,0,1.36-1.8.92.92,0,0,0-1-.74h-4.2a3.87,3.87,0,0,1-4-3,5.14,5.14,0,0,1,.16-3.4,3.6,3.6,0,0,1,3.05-2.24,6.29,6.29,0,0,1,.88-.06h7.62Z"/><path class="cls-3" d="M74,41.26H70.83c0-.11,0-.21,0-.31q0-5.37,0-10.73a4.86,4.86,0,0,1,.28-1.72A2.33,2.33,0,0,1,72.66,27a5.17,5.17,0,0,1,3-.08,3.91,3.91,0,0,1,2.78,2.84q1,3.54,2,7.08c.12.42.27.84.41,1.25a.93.93,0,0,0,.19.29.53.53,0,0,0,.64.11c.22-.08.27-.26.26-.48q0-2.85,0-5.7,0-2.43,0-4.87c0-.11,0-.21,0-.33h3.25v.3c0,3.54,0,7.08,0,10.63a4,4,0,0,1-.65,2.37,3,3,0,0,1-2.36,1.25,5.43,5.43,0,0,1-2.8-.49,2.89,2.89,0,0,1-1.59-1.89Q76.66,35.14,75.47,31a4.29,4.29,0,0,0-.17-.54,1.5,1.5,0,0,0-.25-.41.54.54,0,0,0-.88.06,1.54,1.54,0,0,0-.19.73c0,3.34,0,6.67,0,10C74,41,74,41.12,74,41.26Z"/><path class="cls-3" d="M124.5,41.3h-2.94a.32.32,0,0,1-.38-.26q-1.68-5.26-3.39-10.51c-.08-.25-.19-.47-.5-.49s-.44.15-.55.5Q115.07,35.76,113.4,41a.38.38,0,0,1-.45.31c-.9,0-1.81,0-2.72,0h-.34c.08-.27.14-.5.22-.74,1.16-3.74,2.34-7.47,3.48-11.21a3.55,3.55,0,0,1,3.29-2.54,5.19,5.19,0,0,1,1.6.13,3.31,3.31,0,0,1,2.42,2.41c1.16,3.77,2.28,7.54,3.41,11.32Z"/></g><text class="cls-4" transform="translate(70.83 209.26)">AND N<tspan class="cls-5" x="33.72" y="0">O</tspan><tspan x="41.89" y="0">W A MESS</tspan><tspan class="cls-6" x="95.82" y="0">A</tspan><tspan x="103.11" y="0">GE </tspan><tspan class="cls-7" x="121.37" y="0">F</tspan><tspan class="cls-5" x="127.57" y="0">R</tspan><tspan x="134.95" y="0">OM</tspan></text><line class="cls-8" x1="70.83" y1="216.51" x2="306.93" y2="216.51"/><line class="cls-1" x1="189.46" y1="292.12" x2="189.46" y2="534.31"/><polyline class="cls-9" points="259.02 289.08 259.02 469.6 277.46 451.16"/><polyline class="cls-9" points="117.56 289.08 117.56 469.6 136 451.16"/></g></g></svg>