<svg xmlns="http://www.w3.org/2000/svg" viewBox="0 0 335.21 540.74"><defs><style>.cls-1,.cls-2,.cls-25,.cls-26{fill:red;}.cls-2{stroke:#000;stroke-width:12.86px;}.cls-2,.cls-4{stroke-miterlimit:10;}.cls-16,.cls-3,.cls-5{fill:#fff;}.cls-24,.cls-4{fill:none;}.cls-24,.cls-25,.cls-26,.cls-4{stroke:#fff;}.cls-4{stroke-width:1.18px;}.cls-5{font-size:19.07px;}.cls-16,.cls-5{font-family:Union-Bold, Union;font-weight:700;}.cls-6{letter-spacing:-0.03em;}.cls-7{letter-spacing:-0.02em;}.cls-8{letter-spacing:-0.01em;}.cls-9{letter-spacing:-0.01em;}.cls-10{letter-spacing:0em;}.cls-11{letter-spacing:-0.06em;}.cls-12{letter-spacing:-0.02em;}.cls-13{letter-spacing:-0.06em;}.cls-14{letter-spacing:0em;}.cls-15{letter-spacing:-0.02em;}.cls-16{font-size:7.68px;}.cls-17{letter-spacing:-0.01em;}.cls-18{letter-spacing:-0.01em;}.cls-19{letter-spacing:0em;}.cls-20{letter-spacing:-0.09em;}.cls-21{letter-spacing:0em;}.cls-22{letter-spacing:0em;}.cls-23{letter-spacing:-0.01em;}.cls-24,.cls-25,.cls-26{stroke-linecap:round;stroke-linejoin:round;}.cls-24,.cls-25{stroke-width:9.08px;}.cls-26{stroke-width:6.36px;}</style></defs><title>2f</title><g id="Layer_2" data-name="Layer 2"><g id="Layer_1-2" data-name="Layer 1"><path class="cls-1" d="M50.13,6.43H308.06a20.73,20.73,0,0,1,20.73,20.73V534.31a0,0,0,0,1,0,0H50.13a0,0,0,0,1,0,0V6.43A0,0,0,0,1,50.13,6.43Z"/><path class="cls-2" d="M306.93,6.43a21.85,21.85,0,0,1,21.85,21.85v506H50.13v-506"/><line class="cls-2" x1="28.28" y1="6.43" x2="306.93" y2="6.43"/><circle class="cls-2" cx="28.28" cy="28.28" r="21.85"/><g id="NtjWEG.tif"><path class="cls-3" d="M278.64,488.93v5.79H264.48A2.63,2.63,0,0,0,261.8,498a2.18,2.18,0,0,0,2.41,2c2.38,0,4.76,0,7.14,0a5.06,5.06,0,0,1,1.39.18,11.14,11.14,0,0,1,6.05,4.27,6.24,6.24,0,0,1,1.11,4.34,9.2,9.2,0,0,1-2.51,5.64,6.69,6.69,0,0,1-5.14,2.1q-9.85,0-19.69,0a.58.58,0,0,1-.65-.48q-3.28-10.21-6.58-20.4c-.21-.65-.49-.92-1-.92s-.83.31-1,.94l-6.43,20.07c-.25.77-.25.77-1,.77l-5.16,0H230c.24-.8.46-1.53.68-2.25,2.17-7,4.36-13.94,6.51-20.92a6.6,6.6,0,0,1,5.55-4.78,7.42,7.42,0,0,1,6.1,1.21,6.94,6.94,0,0,1,2.44,3.49c1.73,5.47,3.42,11,5.13,16.44a2.47,2.47,0,0,1,.08.25c.11.56.4.77,1,.77,4.5,0,9,0,13.49,0a2.69,2.69,0,0,0,2.64-3.48,1.78,1.78,0,0,0-1.9-1.43h-8.13a7.51,7.51,0,0,1-7.68-5.82,10,10,0,0,1,.3-6.59,7,7,0,0,1,5.91-4.34,12.19,12.19,0,0,1,1.71-.11H278.2Z"/><path class="cls-3" d="M209.06,516.44H203c0-.22,0-.41,0-.6q0-10.39,0-20.79a9.41,9.41,0,0,1,.53-3.32,4.52,4.52,0,0,1,3-2.93,10,10,0,0,1,5.85-.16,7.57,7.57,0,0,1,5.39,5.51q1.94,6.86,3.9,13.71c.23.82.52,1.62.8,2.42a1.81,1.81,0,0,0,.36.56,1,1,0,0,0,1.24.22c.43-.16.51-.51.51-.93q0-5.52,0-11,0-4.72,0-9.43c0-.2,0-.41,0-.65h6.3v.58c0,6.86,0,13.72,0,20.58a7.8,7.8,0,0,1-1.26,4.6,5.74,5.74,0,0,1-4.58,2.42,10.52,10.52,0,0,1-5.42-1,5.6,5.6,0,0,1-3.07-3.67q-2.27-8-4.58-16a8.32,8.32,0,0,0-.34-1,2.9,2.9,0,0,0-.49-.79,1,1,0,0,0-1.7.11,3,3,0,0,0-.36,1.42c0,6.46,0,12.92,0,19.38C209.06,515.93,209.06,516.17,209.06,516.44Z"/><path class="cls-3" d="M306.93,516.52h-.64c-1.68,0-3.37,0-5.05,0a.62.62,0,0,1-.73-.51q-3.26-10.18-6.56-20.35c-.16-.49-.37-.92-1-.94s-.85.29-1.07,1q-3.24,10.11-6.47,20.22a.73.73,0,0,1-.87.6c-1.75,0-3.51,0-5.26,0h-.65c.15-.52.28-1,.42-1.43,2.25-7.24,4.54-14.46,6.74-21.71a6.88,6.88,0,0,1,6.36-4.91,10.06,10.06,0,0,1,3.09.24,6.42,6.42,0,0,1,4.68,4.68c2.24,7.29,4.41,14.61,6.6,21.92Z"/></g><line class="cls-4" x1="70.83" y1="480.89" x2="306.93" y2="480.89"/><text class="cls-5" transform="translate(70.83 414.74)">HUMANS H<tspan class="cls-6" x="103.23" y="0">A</tspan><tspan x="116.04" y="0">VE</tspan><tspan x="0" y="19.21">JU</tspan><tspan class="cls-7" x="24.53" y="19.21">S</tspan><tspan x="36.72" y="19.21">T LANDED</tspan><tspan x="0" y="38.42">ON THE MA</tspan><tspan class="cls-8" x="107.48" y="38.42">R</tspan><tspan class="cls-9" x="120.74" y="38.42">T</tspan><tspan class="cls-10" x="132.41" y="38.42">IAN</tspan><tspan x="0" y="57.62">SUR</tspan><tspan class="cls-11" x="39.92" y="57.62">F</tspan><tspan class="cls-12" x="49.84" y="57.62">AC</tspan><tspan x="76.37" y="57.62">E </tspan><tspan class="cls-13" x="94.36" y="57.62">A</tspan><tspan class="cls-14" x="106.6" y="57.62">T 12:31 E</tspan><tspan class="cls-15" x="189.76" y="57.62">S</tspan><tspan x="201.95" y="57.62">T</tspan></text><text class="cls-16" transform="translate(70.83 493.76)">MA<tspan class="cls-17" x="12.08" y="0">R</tspan><tspan class="cls-18" x="17.42" y="0">T</tspan><tspan class="cls-19" x="22.12" y="0">IAN 01 IS CURRENT</tspan><tspan class="cls-20" x="94.92" y="0">L</tspan><tspan class="cls-21" x="98.76" y="0">Y</tspan><tspan x="0" y="8.54">40,198,572 MILES </tspan><tspan class="cls-22" x="66.31" y="8.54">F</tspan><tspan class="cls-23" x="70.77" y="8.54">R</tspan><tspan class="cls-21" x="76.07" y="8.54">OM EA</tspan><tspan class="cls-17" x="101.38" y="8.54">R</tspan><tspan x="106.72" y="8.54">TH</tspan></text><path class="cls-24" d="M218.61,48.52s-50.56-26.33-95.51-.18C75.47,76,105.88,141.09,168.59,142c52.62.75,96-52.37,39.1-81.47-42.81-21.88-93.13-6.06-107.62,38.71-9.4,29-29.18,94.75,8.31,165.5,58.12,109.7,165.29,150.83,165.29,150.83"/><circle class="cls-1" cx="132.08" cy="133.09" r="2.72"/><circle class="cls-25" cx="273.66" cy="415.56" r="25.19"/><circle class="cls-1" cx="174.32" cy="51.18" r="2.72"/><circle class="cls-1" cx="218.86" cy="48.81" r="2.72"/><path class="cls-26" d="M196.77,366.26l-4.63-14.75a2.87,2.87,0,0,0-4.84-1.08l-10.45,11.39a2.87,2.87,0,0,0,1.49,4.73l15.09,3.36A2.87,2.87,0,0,0,196.77,366.26Z"/><path class="cls-26" d="M118.45,277.3l.23-15.46a2.87,2.87,0,0,0-4.26-2.55l-13.5,7.53a2.87,2.87,0,0,0-.07,5l13.27,7.93A2.87,2.87,0,0,0,118.45,277.3Z"/><path class="cls-26" d="M89.29,161.63l8.77-12.73a2.87,2.87,0,0,0-2.13-4.48l-15.41-1.23a2.87,2.87,0,0,0-2.82,4.09l6.64,14A2.87,2.87,0,0,0,89.29,161.63Z"/></g></g></svg>