<svg xmlns="http://www.w3.org/2000/svg" viewBox="0 0 335.21 541.48"><defs><style>.cls-1{fill:red;}.cls-1,.cls-22,.cls-24{stroke:#000;stroke-width:12.86px;}.cls-1,.cls-24,.cls-3{stroke-miterlimit:10;}.cls-14,.cls-2,.cls-4{fill:#fff;}.cls-22,.cls-23,.cls-24,.cls-3{fill:none;}.cls-23,.cls-3{stroke:#fff;}.cls-3{stroke-width:1.18px;}.cls-4{font-size:19.07px;}.cls-14,.cls-4{font-family:Union-Bold, Union;font-weight:700;}.cls-5{letter-spacing:-0.06em;}.cls-6{letter-spacing:-0.02em;}.cls-7{letter-spacing:-0.08em;}.cls-8{letter-spacing:-0.02em;}.cls-9{letter-spacing:-0.01em;}.cls-10{letter-spacing:-0.01em;}.cls-11{letter-spacing:-0.02em;}.cls-12{letter-spacing:-0.06em;}.cls-13{letter-spacing:-0.02em;}.cls-14{font-size:7.68px;}.cls-15{letter-spacing:-0.01em;}.cls-16{letter-spacing:-0.01em;}.cls-17{letter-spacing:0em;}.cls-18{letter-spacing:-0.09em;}.cls-19{letter-spacing:0em;}.cls-20{letter-spacing:0em;}.cls-21{letter-spacing:-0.01em;}.cls-22,.cls-23{stroke-linejoin:bevel;}.cls-23{stroke-width:16px;}</style></defs><title>3f</title><g id="Layer_2" data-name="Layer 2"><g id="Layer_1-2" data-name="Layer 1"><path class="cls-1" d="M328.78,534.31H50.13v-493L37.38,6.43H308.06a20.73,20.73,0,0,1,20.73,20.73Z"/><path class="cls-1" d="M306.93,6.43a21.85,21.85,0,0,1,21.85,21.85v506H50.13v-506"/><line class="cls-1" x1="28.28" y1="6.43" x2="306.93" y2="6.43"/><circle class="cls-1" cx="28.28" cy="28.28" r="21.85"/><g id="NtjWEG.tif"><path class="cls-2" d="M278.64,488.93v5.79H264.48A2.63,2.63,0,0,0,261.8,498a2.18,2.18,0,0,0,2.41,2c2.38,0,4.76,0,7.14,0a5.06,5.06,0,0,1,1.39.18,11.14,11.14,0,0,1,6.05,4.27,6.24,6.24,0,0,1,1.11,4.34,9.2,9.2,0,0,1-2.51,5.64,6.69,6.69,0,0,1-5.14,2.1q-9.85,0-19.69,0a.58.58,0,0,1-.65-.48q-3.28-10.21-6.58-20.4c-.21-.65-.49-.92-1-.92s-.83.31-1,.94l-6.43,20.07c-.25.77-.25.77-1,.77l-5.16,0H230c.24-.8.46-1.53.68-2.25,2.17-7,4.36-13.94,6.51-20.92a6.6,6.6,0,0,1,5.55-4.78,7.42,7.42,0,0,1,6.1,1.21,6.94,6.94,0,0,1,2.44,3.49c1.73,5.47,3.42,11,5.13,16.44a2.47,2.47,0,0,1,.08.25c.11.56.4.77,1,.77,4.5,0,9,0,13.49,0a2.69,2.69,0,0,0,2.64-3.48,1.78,1.78,0,0,0-1.9-1.43h-8.13a7.51,7.51,0,0,1-7.68-5.82,10,10,0,0,1,.3-6.59,7,7,0,0,1,5.91-4.34,12.19,12.19,0,0,1,1.71-.11H278.2Z"/><path class="cls-2" d="M209.06,516.44H203c0-.22,0-.41,0-.6q0-10.39,0-20.79a9.41,9.41,0,0,1,.53-3.32,4.52,4.52,0,0,1,3-2.93,10,10,0,0,1,5.85-.16,7.57,7.57,0,0,1,5.39,5.51q1.94,6.86,3.9,13.71c.23.82.52,1.62.8,2.42a1.81,1.81,0,0,0,.36.56,1,1,0,0,0,1.24.22c.43-.16.51-.51.51-.93q0-5.52,0-11,0-4.72,0-9.43c0-.2,0-.41,0-.65h6.3v.58c0,6.86,0,13.72,0,20.58a7.8,7.8,0,0,1-1.26,4.6,5.74,5.74,0,0,1-4.58,2.42,10.52,10.52,0,0,1-5.42-1,5.6,5.6,0,0,1-3.07-3.67q-2.27-8-4.58-16a8.32,8.32,0,0,0-.34-1,2.9,2.9,0,0,0-.49-.79,1,1,0,0,0-1.7.11,3,3,0,0,0-.36,1.42c0,6.46,0,12.92,0,19.38C209.06,515.93,209.06,516.17,209.06,516.44Z"/><path class="cls-2" d="M306.93,516.52h-.64c-1.68,0-3.37,0-5.05,0a.62.62,0,0,1-.73-.51q-3.26-10.18-6.56-20.35c-.16-.49-.37-.92-1-.94s-.85.29-1.07,1q-3.24,10.11-6.47,20.22a.73.73,0,0,1-.87.6c-1.75,0-3.51,0-5.26,0h-.65c.15-.52.28-1,.42-1.43,2.25-7.24,4.54-14.46,6.74-21.71a6.88,6.88,0,0,1,6.36-4.91,10.06,10.06,0,0,1,3.09.24,6.42,6.42,0,0,1,4.68,4.68c2.24,7.29,4.41,14.61,6.6,21.92Z"/></g><line class="cls-3" x1="70.83" y1="480.89" x2="306.93" y2="480.89"/><text class="cls-4" transform="translate(70.83 414.74)"><tspan class="cls-5">A</tspan><tspan x="12.25" y="0">T 12:38 E</tspan><tspan class="cls-6" x="95.41" y="0">S</tspan><tspan x="107.59" y="0">T NAS</tspan><tspan class="cls-7" x="164.3" y="0">A</tspan><tspan x="176.16" y="0">’S </tspan><tspan class="cls-8" x="0" y="19.21">R</tspan><tspan x="13.16" y="19.21">OCKET CREW EXITED </tspan><tspan x="0" y="38.42">THE MA</tspan><tspan class="cls-9" x="73.62" y="38.42">R</tspan><tspan class="cls-10" x="86.88" y="38.42">T</tspan><tspan x="98.55" y="38.42">IAN 01 AND </tspan><tspan class="cls-11" x="0" y="57.62">T</tspan><tspan x="11.29" y="57.62">OUCHED THE SUR</tspan><tspan class="cls-12" x="183.35" y="57.62">F</tspan><tspan class="cls-13" x="193.27" y="57.62">AC</tspan><tspan x="219.8" y="57.62">E</tspan></text><text class="cls-14" transform="translate(70.83 494.31)">MA<tspan class="cls-15" x="12.08" y="0">R</tspan><tspan class="cls-16" x="17.42" y="0">T</tspan><tspan class="cls-17" x="22.12" y="0">IAN 01 IS CURRENT</tspan><tspan class="cls-18" x="94.92" y="0">L</tspan><tspan class="cls-19" x="98.76" y="0">Y</tspan><tspan x="0" y="8.54">40,238,441 MILES </tspan><tspan class="cls-20" x="66.31" y="8.54">F</tspan><tspan class="cls-21" x="70.77" y="8.54">R</tspan><tspan class="cls-19" x="76.07" y="8.54">OM EA</tspan><tspan class="cls-15" x="101.38" y="8.54">R</tspan><tspan x="106.72" y="8.54">TH</tspan></text><path class="cls-22" d="M328.78,535.05H50.13V13.24L37.38,6.43H302.32a26.46,26.46,0,0,1,26.46,26.46Z"/><path class="cls-2" d="M298.83,238h-15a39.19,39.19,0,0,0-34.41-34.41v-15h-8.91v15A39.19,39.19,0,0,0,206.11,238h-15V247h15a39.19,39.19,0,0,0,34.41,34.41v15h8.91v-15A39.19,39.19,0,0,0,283.84,247h15Zm-49.4,34.32V258h-8.91v14.36A30.25,30.25,0,0,1,215.11,247h14.36V238H215.11a30.25,30.25,0,0,1,25.41-25.41V227h8.91V212.63A30.25,30.25,0,0,1,274.84,238H260.48V247h14.35A30.25,30.25,0,0,1,249.43,272.36Z"/><path class="cls-23" d="M130.91,7.33A221.6,221.6,0,0,0,91.38,134c0,123,99.69,222.65,222.65,222.65,5,0,9.87-.18,14.75-.5"/><path class="cls-24" d="M328.78,535.05H50.13V13.24L54,6.43H302.32a26.46,26.46,0,0,1,26.46,26.46Z"/></g></g></svg>