<svg xmlns="http://www.w3.org/2000/svg" viewBox="0 0 641.54 313.9"><defs><style>.cls-1{fill:red;}.cls-2{fill:#fff200;}.cls-3{fill:#ed1c24;}.cls-4{fill:none;}.cls-5{fill:#fff;}.cls-6{fill:#231f20;}</style></defs><title>info_01_1</title><g id="Layer_2" data-name="Layer 2"><g id="Layer_1-2" data-name="Layer 1"><rect class="cls-1" width="592.12" height="313.9"/><polygon class="cls-2" points="71.19 73.1 137.13 73.1 198.09 190.38 199.65 71.54 265.59 71.54 328.11 190.38 328.11 73.1 395.61 73.1 457.26 190.38 457.26 73.1 524.75 73.1 641.54 313.48 592.12 313.89 68.48 313.89 71.19 73.1"/><path d="M138.68,190.38H68.07V70h70.61Zm-67.5-3.11h64.38V73.1H71.19Z"/><circle class="cls-3" cx="64.33" cy="66.25" r="5.29"/><path d="M64.33,73.1a6.85,6.85,0,1,1,6.85-6.85A6.86,6.86,0,0,1,64.33,73.1Zm0-10.59a3.74,3.74,0,1,0,3.74,3.74A3.74,3.74,0,0,0,64.33,62.51Z"/><path class="cls-4" d="M137.13,61a5.29,5.29,0,0,1,0,10.59H64.33"/><path d="M137.13,73.1H64.33V70h72.79a3.74,3.74,0,0,0,0-7.47V59.4a6.85,6.85,0,0,1,0,13.7Z"/><line class="cls-5" x1="64.33" y1="60.96" x2="137.13" y2="60.96"/><rect x="64.33" y="59.4" width="72.79" height="3.11"/><rect x="101.82" y="71.54" width="3.11" height="117.28"/><rect x="68.48" y="128.63" width="68.65" height="3.11"/><path d="M268.7,190.38H198.09V70H268.7Zm-67.5-3.11h64.38V73.1H201.21Z"/><circle class="cls-1" cx="194.36" cy="66.25" r="5.29"/><path d="M194.36,73.1a6.85,6.85,0,1,1,6.85-6.85A6.86,6.86,0,0,1,194.36,73.1Zm0-10.59a3.74,3.74,0,1,0,3.74,3.74A3.74,3.74,0,0,0,194.36,62.51Z"/><path class="cls-4" d="M267.15,61a5.29,5.29,0,1,1,0,10.59H194.36"/><path d="M267.15,73.1H194.36V70h72.79a3.74,3.74,0,0,0,0-7.47V59.4a6.85,6.85,0,1,1,0,13.7Z"/><line class="cls-5" x1="194.36" y1="60.96" x2="267.15" y2="60.96"/><rect x="194.36" y="59.4" width="72.79" height="3.11"/><rect x="231.84" y="71.54" width="3.11" height="117.28"/><rect x="198.5" y="128.63" width="68.65" height="3.11"/><path d="M398.72,190.38H328.11V70h70.61Zm-67.5-3.11h64.38V73.1H331.23Z"/><circle class="cls-1" cx="324.38" cy="66.25" r="5.29"/><path d="M324.38,73.1a6.85,6.85,0,1,1,6.85-6.85A6.86,6.86,0,0,1,324.38,73.1Zm0-10.59a3.74,3.74,0,1,0,3.74,3.74A3.74,3.74,0,0,0,324.38,62.51Z"/><path class="cls-4" d="M397.17,61a5.29,5.29,0,0,1,0,10.59H324.38"/><path d="M397.17,73.1H324.38V70h72.79a3.74,3.74,0,0,0,0-7.47V59.4a6.85,6.85,0,0,1,0,13.7Z"/><line class="cls-5" x1="324.38" y1="60.96" x2="397.17" y2="60.96"/><rect x="324.38" y="59.4" width="72.79" height="3.11"/><rect x="361.86" y="71.54" width="3.11" height="117.28"/><rect x="328.52" y="128.63" width="68.65" height="3.11"/><path d="M527.87,190.38H457.26V70h70.61Zm-67.5-3.11h64.38V73.1H460.37Z"/><circle class="cls-1" cx="453.52" cy="66.25" r="5.29"/><path d="M453.52,73.1a6.85,6.85,0,1,1,6.85-6.85A6.86,6.86,0,0,1,453.52,73.1Zm0-10.59a3.74,3.74,0,1,0,3.74,3.74A3.74,3.74,0,0,0,453.52,62.51Z"/><path class="cls-4" d="M526.31,61a5.29,5.29,0,0,1,0,10.59H453.52"/><path d="M526.31,73.1H453.52V70h72.79a3.74,3.74,0,1,0,0-7.47V59.4a6.85,6.85,0,1,1,0,13.7Z"/><line class="cls-5" x1="453.52" y1="60.96" x2="526.31" y2="60.96"/><rect x="453.52" y="59.4" width="72.79" height="3.11"/><rect x="491.01" y="71.54" width="3.11" height="117.28"/><rect x="457.66" y="128.63" width="68.65" height="3.11"/><path class="cls-2" d="M277.93,161H259.26a17,17,0,0,0-17,17v43.72l14.66,86,23.24-.08,14.66-86V178A17,17,0,0,0,277.93,161Z"/><path d="M255.57,309.38l-14.92-87.57V178a18.64,18.64,0,0,1,18.61-18.61h18.67A18.64,18.64,0,0,1,296.54,178v43.86l0,.14-14.9,87.34ZM244,221.53,258.38,306l20.44-.07,14.41-84.45V178a15.31,15.31,0,0,0-15.29-15.29H259.26A15.31,15.31,0,0,0,244,178Z"/><path d="M268.6,116.78a18.4,18.4,0,1,0,18.4,18.4A18.43,18.43,0,0,0,268.6,116.78Z"/><rect x="262.98" y="155.33" width="11.23" height="5.62"/><path class="cls-2" d="M259.59,133.84v13.79a9,9,0,0,0,9,9h0a9,9,0,0,0,9-9V133.84Z"/><path d="M268.6,157.47a9.84,9.84,0,0,1-9.83-9.83V133h19.67v14.62A9.84,9.84,0,0,1,268.6,157.47Zm-8.17-22.79v13a8.17,8.17,0,1,0,16.34,0v-13Z"/><path class="cls-6" d="M261.73,140.09a3.28,3.28,0,0,1,5,0s.46,1.85-1.85,1.85c0,0,1.44-.52,1.44-1.44s-1.92-1.2-1.92-1.2a.4.4,0,0,0-.43.43c0,.46.52.52.52.52a.51.51,0,0,0,.55-.55c0-.24,1.38.57.61.61A10.39,10.39,0,0,1,261.73,140.09Z"/><path class="cls-6" d="M275.46,140.09a3.28,3.28,0,0,0-5,0s-.46,1.85,1.85,1.85c0,0-1.44-.52-1.44-1.44s1.92-1.2,1.92-1.2a.4.4,0,0,1,.43.43c0,.46-.52.52-.52.52a.51.51,0,0,1-.55-.55c0-.24-1.38.57-.61.61A10.39,10.39,0,0,0,275.46,140.09Z"/><path class="cls-6" d="M267.9,148s-2-1.14-.75-1.14,4.92-.67,2.5,1.14A2.82,2.82,0,0,1,267.9,148Z"/><rect x="324.96" y="206.19" width="7.72" height="13.73"/><path class="cls-2" d="M334.67,216.58H323.07a10.53,10.53,0,0,0-10.53,10.53v27.16l9.11,53.45,14.44,0,9.11-53.4V227.11A10.53,10.53,0,0,0,334.67,216.58Z"/><path d="M320.25,309.38l-9.37-55v-27.3a12.21,12.21,0,0,1,12.19-12.19h11.59a12.21,12.21,0,0,1,12.19,12.19v27.3l0,.14-9.34,54.78Zm-6-55.25L323.05,306l11.63,0,8.85-51.88v-27a8.88,8.88,0,0,0-8.87-8.87H323.07a8.88,8.88,0,0,0-8.87,8.87Z"/><path d="M336.45,188.28a8.72,8.72,0,0,0-15.29.09,6.79,6.79,0,0,0,5.26,12.51,8.72,8.72,0,0,0,4.92,0,6.79,6.79,0,0,0,5.11-12.58Z"/><path class="cls-2" d="M319.82,196v8.24a9,9,0,0,0,9,9h0a9,9,0,0,0,9-9V191.36Z"/><path d="M328.82,214.06a9.84,9.84,0,0,1-9.83-9.83v-8.88l19.67-5.06v13.94A9.84,9.84,0,0,1,328.82,214.06Zm-8.17-17.43v7.59a8.17,8.17,0,1,0,16.34,0v-11.8Z"/><path class="cls-6" d="M326.6,199.13a3.07,3.07,0,0,0-4.5.12c1.37,1.32,3.1.91,3.88.88s-.61-.85-.61-.61-.16.29-.35.28a.8.8,0,0,1-.71-.79s0-.08,0-.12a.4.4,0,0,1,.43-.43s1.4,0,1.4.87C326.13,199.33,327.09,199.58,326.6,199.13Z"/><path class="cls-6" d="M331,199.13a3.07,3.07,0,0,1,4.5.12c-1.37,1.32-3.1.91-3.88.88s.61-.85.61-.61.16.29.35.28a.8.8,0,0,0,.71-.79s0-.08,0-.12a.4.4,0,0,0-.43-.43s-1.4,0-1.4.87C331.5,199.33,330.55,199.58,331,199.13Z"/><path class="cls-6" d="M328.06,204.82s-2.17-.81-.81-.81,5.31-.47,2.7.81A4.58,4.58,0,0,1,328.06,204.82Z"/><rect class="cls-3" x="365.37" y="206.19" width="7.72" height="13.73"/><circle cx="369.28" cy="193.27" r="13.54"/><rect x="355.74" y="193.27" width="27.08" height="41.12"/><path class="cls-2" d="M360.28,193v7.47a9,9,0,0,0,9,9h0a9,9,0,0,0,9-9V193Z"/><path d="M369.28,210.3a9.84,9.84,0,0,1-9.83-9.83v-8.3h19.67v8.3A9.84,9.84,0,0,1,369.28,210.3Zm-8.17-16.47v6.64a8.17,8.17,0,1,0,16.34,0v-6.64Z"/><path class="cls-6" d="M367.06,196.13a3.07,3.07,0,0,0-4.5.12c1.37,1.32,3.1.91,3.88.88s-.61-.85-.61-.61-.16.29-.35.28a.8.8,0,0,1-.71-.79s0-.08,0-.12a.4.4,0,0,1,.43-.43s1.4,0,1.4.87C366.59,196.33,367.55,196.59,367.06,196.13Z"/><path class="cls-6" d="M371.5,196.13a3.07,3.07,0,0,1,4.5.12c-1.37,1.32-3.1.91-3.88.88s.61-.85.61-.61.16.29.35.28a.8.8,0,0,0,.71-.79s0-.08,0-.12a.4.4,0,0,0-.43-.43s-1.4,0-1.4.87C372,196.33,371,196.59,371.5,196.13Z"/><path class="cls-6" d="M368.52,201.82s-2.17-.81-.81-.81,5.31-.47,2.7.81A4.58,4.58,0,0,1,368.52,201.82Z"/><path class="cls-2" d="M375.08,216.58H363.48A10.53,10.53,0,0,0,353,227.11v27.16l9.11,53.45,14.44,0,9.11-53.4V227.11A10.53,10.53,0,0,0,375.08,216.58Z"/><path d="M360.66,309.38l-9.37-55v-27.3a12.21,12.21,0,0,1,12.19-12.19h11.59a12.21,12.21,0,0,1,12.19,12.19v27.3l0,.14-9.34,54.78Zm-6-55.25L363.46,306l11.63,0,8.85-51.88v-27a8.88,8.88,0,0,0-8.87-8.87H363.48a8.88,8.88,0,0,0-8.87,8.87Z"/></g></g></svg>