<svg xmlns="http://www.w3.org/2000/svg" viewBox="0 0 642.05 314.31"><defs><style>.cls-1{fill:red;}.cls-2{fill:#fff200;}.cls-3{fill:#fff;}.cls-4{fill:#231f20;}.cls-5{fill:#ed1c24;}</style></defs><title>info_02</title><g id="Layer_2" data-name="Layer 2"><g id="Layer_1-2" data-name="Layer 1"><rect class="cls-1" width="592.12" height="313.9"/><polygon class="cls-2" points="70.78 129.8 136.77 129.8 197.78 219.47 199.34 128.61 265.33 128.61 327.91 219.47 327.91 129.8 395.46 129.8 457.15 219.47 457.15 129.8 524.7 129.8 642.05 314.31 592.12 313.89 68.07 313.89 70.78 129.8"/><path d="M138.68,190.38H68.07V70h70.61Zm-67.5-3.11h64.38V73.1H71.19Z"/><path class="cls-1" d="M131.83,61a5.29,5.29,0,0,1,5.29,5.29v63.93H69.63V60.44Z"/><path d="M138.68,131.74H68.07V66.25h3.11v62.38h64.38V66.25a3.74,3.74,0,0,0-3.74-3.74V59.4a6.86,6.86,0,0,1,6.85,6.85Z"/><line class="cls-3" x1="64.34" y1="60.96" x2="131.83" y2="60.96"/><rect x="64.34" y="59.4" width="67.5" height="3.11"/><circle class="cls-1" cx="64.34" cy="66.25" r="5.29"/><path d="M64.34,73.1a6.85,6.85,0,1,1,6.85-6.85A6.86,6.86,0,0,1,64.34,73.1Zm0-10.59a3.74,3.74,0,1,0,3.74,3.74A3.74,3.74,0,0,0,64.34,62.51Z"/><rect x="101.82" y="130.19" width="3.11" height="58.64"/><path d="M268.7,190.38H198.09V70H268.7Zm-67.5-3.11h64.38V73.1H201.21Z"/><path class="cls-1" d="M261.85,61a5.29,5.29,0,0,1,5.29,5.29v63.93h-67.5V61.91"/><path d="M268.7,131.74H198.09V66.25h3.11v62.38h64.38V66.25a3.74,3.74,0,0,0-3.74-3.74V59.4a6.86,6.86,0,0,1,6.85,6.85Z"/><line class="cls-3" x1="194.36" y1="60.96" x2="261.85" y2="60.96"/><rect x="194.36" y="59.4" width="67.5" height="3.11"/><circle class="cls-1" cx="194.36" cy="66.25" r="5.29"/><path d="M194.36,73.1a6.85,6.85,0,1,1,6.85-6.85A6.86,6.86,0,0,1,194.36,73.1Zm0-10.59a3.74,3.74,0,1,0,3.74,3.74A3.74,3.74,0,0,0,194.36,62.51Z"/><rect x="231.84" y="130.19" width="3.11" height="58.64"/><path d="M398.72,190.38H328.11V70h70.61Zm-67.5-3.11h64.38V73.1H331.23Z"/><path class="cls-1" d="M391.87,61a5.29,5.29,0,0,1,5.29,5.29v63.93h-67.5V61.91"/><path d="M398.72,131.74H328.11V66.25h3.11v62.38h64.38V66.25a3.74,3.74,0,0,0-3.74-3.74V59.4a6.86,6.86,0,0,1,6.85,6.85Z"/><line class="cls-3" x1="324.38" y1="60.96" x2="391.87" y2="60.96"/><rect x="324.38" y="59.4" width="67.5" height="3.11"/><circle class="cls-1" cx="324.38" cy="66.25" r="5.29"/><path d="M324.38,73.1a6.85,6.85,0,1,1,6.85-6.85A6.86,6.86,0,0,1,324.38,73.1Zm0-10.59a3.74,3.74,0,1,0,3.74,3.74A3.74,3.74,0,0,0,324.38,62.51Z"/><rect x="361.86" y="130.19" width="3.11" height="58.64"/><path d="M527.87,190.38H457.26V70h70.61Zm-67.5-3.11h64.38V73.1H460.37Z"/><path class="cls-1" d="M521,61a5.29,5.29,0,0,1,5.29,5.29v63.93h-67.5V61"/><path d="M527.87,131.74H457.26V66.25h3.11v62.38h64.38V66.25A3.74,3.74,0,0,0,521,62.51V59.4a6.86,6.86,0,0,1,6.85,6.85Z"/><line class="cls-3" x1="453.52" y1="60.96" x2="521.02" y2="60.96"/><rect x="453.52" y="59.4" width="67.5" height="3.11"/><circle class="cls-1" cx="453.52" cy="66.25" r="5.29"/><path d="M453.52,73.1a6.85,6.85,0,1,1,6.85-6.85A6.86,6.86,0,0,1,453.52,73.1Zm0-10.59a3.74,3.74,0,1,0,3.74,3.74A3.74,3.74,0,0,0,453.52,62.51Z"/><rect x="491.01" y="130.19" width="3.11" height="58.64"/><path class="cls-2" d="M276.34,160.9H257.67a17,17,0,0,0-17,17v43.72l14.66,86,23.24-.08,14.66-86V177.85A17,17,0,0,0,276.34,160.9Z"/><path d="M254,309.28l-14.92-87.57V177.85a18.64,18.64,0,0,1,18.61-18.61h18.67A18.64,18.64,0,0,1,295,177.85v43.86l0,.14L280,309.19Zm-11.6-87.85,14.4,84.52,20.44-.07,14.41-84.45V177.85a15.31,15.31,0,0,0-15.29-15.29H257.67a15.31,15.31,0,0,0-15.29,15.29Z"/><path d="M267,116.67a18.4,18.4,0,1,0,18.4,18.4A18.43,18.43,0,0,0,267,116.67Z"/><rect x="261.39" y="155.23" width="11.23" height="5.62"/><path class="cls-2" d="M258,133.74v13.79a9,9,0,0,0,9,9h0a9,9,0,0,0,9-9V133.74Z"/><path d="M267,157.37a9.84,9.84,0,0,1-9.83-9.83V132.91h19.67v14.62A9.84,9.84,0,0,1,267,157.37Zm-8.17-22.79v13a8.17,8.17,0,1,0,16.34,0v-13Z"/><path class="cls-4" d="M260.14,140a3.28,3.28,0,0,1,5,0s.46,1.85-1.85,1.85c0,0,1.44-.52,1.44-1.44s-1.92-1.2-1.92-1.2a.4.4,0,0,0-.43.43c0,.46.52.52.52.52a.51.51,0,0,0,.55-.55c0-.24,1.38.57.61.61A10.39,10.39,0,0,1,260.14,140Z"/><path class="cls-4" d="M273.87,140a3.28,3.28,0,0,0-5,0s-.46,1.85,1.85,1.85c0,0-1.44-.52-1.44-1.44s1.92-1.2,1.92-1.2a.4.4,0,0,1,.43.43c0,.46-.52.52-.52.52a.51.51,0,0,1-.55-.55c0-.24-1.38.57-.61.61A10.39,10.39,0,0,0,273.87,140Z"/><path class="cls-4" d="M266.3,147.88s-2-1.14-.75-1.14,4.92-.67,2.5,1.14A2.82,2.82,0,0,1,266.3,147.88Z"/><rect x="323.37" y="206.09" width="7.72" height="13.73"/><path class="cls-2" d="M333.08,216.48H321.48A10.53,10.53,0,0,0,311,227v27.16l9.11,53.45,14.44,0,9.11-53.4V227A10.53,10.53,0,0,0,333.08,216.48Z"/><path d="M318.66,309.28l-9.37-55V227a12.21,12.21,0,0,1,12.19-12.19h11.59A12.21,12.21,0,0,1,345.27,227v27.3l0,.14-9.34,54.78Zm-6-55.25,8.85,51.92,11.63,0L341.94,254V227a8.88,8.88,0,0,0-8.87-8.87H321.48a8.88,8.88,0,0,0-8.87,8.87Z"/><path d="M334.85,188.18a8.72,8.72,0,0,0-15.29.09,6.79,6.79,0,0,0,5.26,12.51,8.72,8.72,0,0,0,4.92,0,6.79,6.79,0,0,0,5.11-12.58Z"/><path class="cls-2" d="M318.23,195.89v8.24a9,9,0,0,0,9,9h0a9,9,0,0,0,9-9V191.26Z"/><path d="M327.23,214a9.84,9.84,0,0,1-9.83-9.83v-8.88l19.67-5.06v13.94A9.84,9.84,0,0,1,327.23,214Zm-8.17-17.43v7.59a8.17,8.17,0,0,0,16.34,0v-11.8Z"/><path class="cls-4" d="M325,199a3.07,3.07,0,0,0-4.5.12c1.37,1.32,3.1.91,3.88.88s-.61-.85-.61-.61-.16.29-.35.28a.8.8,0,0,1-.71-.79s0-.08,0-.12a.4.4,0,0,1,.43-.43s1.4,0,1.4.87C324.54,199.22,325.5,199.48,325,199Z"/><path class="cls-4" d="M329.45,199a3.07,3.07,0,0,1,4.5.12c-1.37,1.32-3.1.91-3.88.88s.61-.85.61-.61.16.29.35.28a.8.8,0,0,0,.71-.79s0-.08,0-.12a.4.4,0,0,0-.43-.43s-1.4,0-1.4.87C329.91,199.22,329,199.48,329.45,199Z"/><path class="cls-4" d="M326.47,204.72s-2.17-.81-.81-.81,5.31-.47,2.7.81A4.58,4.58,0,0,1,326.47,204.72Z"/><rect class="cls-5" x="363.78" y="206.09" width="7.72" height="13.73"/><circle cx="367.69" cy="193.17" r="13.54"/><rect x="354.15" y="193.17" width="27.08" height="41.12"/><path class="cls-2" d="M358.68,192.89v7.47a9,9,0,0,0,9,9h0a9,9,0,0,0,9-9v-7.47Z"/><path d="M367.69,210.2a9.84,9.84,0,0,1-9.83-9.83v-8.3h19.67v8.3A9.84,9.84,0,0,1,367.69,210.2Zm-8.17-16.47v6.64a8.17,8.17,0,0,0,16.34,0v-6.64Z"/><path class="cls-4" d="M365.47,196a3.07,3.07,0,0,0-4.5.12c1.37,1.32,3.1.91,3.88.88s-.61-.85-.61-.61-.16.29-.35.28a.8.8,0,0,1-.71-.79s0-.08,0-.12a.4.4,0,0,1,.43-.43s1.4,0,1.4.87C365,196.23,366,196.49,365.47,196Z"/><path class="cls-4" d="M369.9,196a3.07,3.07,0,0,1,4.5.12c-1.37,1.32-3.1.91-3.88.88s.61-.85.61-.61.16.29.35.28a.8.8,0,0,0,.71-.79s0-.08,0-.12a.4.4,0,0,0-.43-.43s-1.4,0-1.4.87C370.37,196.23,369.42,196.49,369.9,196Z"/><path class="cls-4" d="M366.93,201.72s-2.17-.81-.81-.81,5.31-.47,2.7.81A4.58,4.58,0,0,1,366.93,201.72Z"/><path class="cls-2" d="M373.48,216.48H361.89A10.53,10.53,0,0,0,351.36,227v27.16l9.11,53.45,14.44,0,9.11-53.4V227A10.53,10.53,0,0,0,373.48,216.48Z"/><path d="M359.07,309.28l-9.37-55V227a12.21,12.21,0,0,1,12.19-12.19h11.59A12.21,12.21,0,0,1,385.68,227v27.3l0,.14-9.34,54.78ZM353,254l8.85,51.92,11.63,0L382.35,254V227a8.88,8.88,0,0,0-8.87-8.87H361.89A8.88,8.88,0,0,0,353,227Z"/></g></g></svg>