<svg xmlns="http://www.w3.org/2000/svg" xmlns:xlink="http://www.w3.org/1999/xlink" viewBox="0 0 592.12 313.9"><defs><style>.cls-1,.cls-22,.cls-4,.cls-9{fill:none;}.cls-2{fill:red;}.cls-3{clip-path:url(#clip-path);}.cls-22,.cls-4,.cls-9{stroke:#fff;stroke-miterlimit:10;}.cls-4{stroke-dasharray:8 6;}.cls-5{clip-path:url(#clip-path-2);}.cls-6{clip-path:url(#clip-path-3);}.cls-7{clip-path:url(#clip-path-4);}.cls-10,.cls-17,.cls-8{fill:#fff;}.cls-10{font-size:5.91px;}.cls-10,.cls-17{font-family:Union-Bold, Union;font-weight:700;}.cls-11{letter-spacing:-0.06em;}.cls-12{letter-spacing:-0.02em;}.cls-13{letter-spacing:-0.08em;}.cls-14{letter-spacing:-0.02em;}.cls-15{letter-spacing:-0.07em;}.cls-16{letter-spacing:-0.02em;}.cls-17{font-size:5.69px;}.cls-18{letter-spacing:-0.01em;}.cls-19{letter-spacing:0em;}.cls-20{letter-spacing:-0.06em;}.cls-21{fill:#ed1c24;}.cls-22{stroke-width:4px;}</style><clipPath id="clip-path"><rect class="cls-1" x="458.81" y="60.44" width="67.09" height="126.45"/></clipPath><clipPath id="clip-path-2"><path class="cls-1" d="M69.27,60.44h62.18a4.91,4.91,0,0,1,4.91,4.91V186.89a0,0,0,0,1,0,0H69.27a0,0,0,0,1,0,0V60.44A0,0,0,0,1,69.27,60.44Z"/></clipPath><clipPath id="clip-path-3"><path class="cls-1" d="M199.65,60.44h60.86a6.23,6.23,0,0,1,6.23,6.23V186.89a0,0,0,0,1,0,0H199.65a0,0,0,0,1,0,0V60.44A0,0,0,0,1,199.65,60.44Z"/></clipPath><clipPath id="clip-path-4"><path class="cls-1" d="M329.67,60.44h62a5.12,5.12,0,0,1,5.12,5.12V186.89a0,0,0,0,1,0,0H329.67a0,0,0,0,1,0,0V60.44A0,0,0,0,1,329.67,60.44Z"/></clipPath></defs><title>info_04_1</title><g id="Layer_2" data-name="Layer 2"><g id="Layer_1-2" data-name="Layer 1"><rect class="cls-2" width="592.12" height="313.9"/><g class="cls-3"><path class="cls-4" d="M53.1,78.69s486.17-10.07,462.23,50.78c-15,38.12-162.4,38.1-162.4,38.1"/></g><g class="cls-5"><path class="cls-4" d="M53.1,78.69s486.17-10.07,462.23,50.78c-15,38.12-162.4,38.1-162.4,38.1"/></g><g class="cls-6"><path class="cls-4" d="M53.1,78.69s486.17-10.07,462.23,50.78c-15,38.12-162.4,38.1-162.4,38.1"/></g><g class="cls-7"><path class="cls-4" d="M53.1,78.69s486.17-10.07,462.23,50.78c-15,38.12-162.4,38.1-162.4,38.1"/></g><path d="M138.68,190.38H68.07V66.25h3.11V186.89h64.38V66.25a3.74,3.74,0,0,0-3.74-3.74V59.4a6.86,6.86,0,0,1,6.85,6.85Z"/><line class="cls-8" x1="64.34" y1="60.96" x2="131.83" y2="60.96"/><rect x="64.34" y="59.4" width="67.5" height="3.11"/><circle class="cls-2" cx="64.34" cy="66.25" r="5.29"/><path d="M64.34,73.1a6.85,6.85,0,1,1,6.85-6.85A6.86,6.86,0,0,1,64.34,73.1Zm0-10.59a3.74,3.74,0,1,0,3.74,3.74A3.74,3.74,0,0,0,64.34,62.51Z"/><path d="M268.7,190.38H198.09V66.25h3.11V186.89h64.38V66.25a3.74,3.74,0,0,0-3.74-3.74V59.4a6.86,6.86,0,0,1,6.85,6.85Z"/><line class="cls-8" x1="194.36" y1="60.96" x2="261.85" y2="60.96"/><rect x="194.36" y="59.4" width="67.5" height="3.11"/><circle class="cls-2" cx="194.36" cy="66.25" r="5.29"/><path d="M194.36,73.1a6.85,6.85,0,1,1,6.85-6.85A6.86,6.86,0,0,1,194.36,73.1Zm0-10.59a3.74,3.74,0,1,0,3.74,3.74A3.74,3.74,0,0,0,194.36,62.51Z"/><path d="M398.72,190.38H328.11V66.25h3.11V186.89h64.38V66.25a3.74,3.74,0,0,0-3.74-3.74V59.4a6.86,6.86,0,0,1,6.85,6.85Z"/><line class="cls-8" x1="324.38" y1="60.96" x2="391.87" y2="60.96"/><rect x="324.38" y="59.4" width="67.5" height="3.11"/><circle class="cls-2" cx="324.38" cy="66.25" r="5.29"/><path d="M324.38,73.1a6.85,6.85,0,1,1,6.85-6.85A6.86,6.86,0,0,1,324.38,73.1Zm0-10.59a3.74,3.74,0,1,0,3.74,3.74A3.74,3.74,0,0,0,324.38,62.51Z"/><polygon points="265.6 69.99 265.6 75.62 265.59 75.62 265.59 187.27 201.21 187.27 201.21 75.62 201.2 75.62 201.2 69.99 198.09 69.99 198.09 190.38 268.7 190.38 268.7 69.99 265.6 69.99"/><path class="cls-8" d="M359.59,166.81H357a6.81,6.81,0,0,0-6-6v-2.6h-1.55v2.6a6.81,6.81,0,0,0-6,6h-2.6v1.55h2.6a6.81,6.81,0,0,0,6,6v2.6H351v-2.6a6.81,6.81,0,0,0,6-6h2.6Zm-8.58,6v-2.49h-1.55v2.49a5.26,5.26,0,0,1-4.41-4.41h2.49v-1.55H345a5.26,5.26,0,0,1,4.41-4.41v2.49H351V162.4a5.26,5.26,0,0,1,4.41,4.41h-2.49v1.55h2.49A5.26,5.26,0,0,1,351,172.77Z"/><rect class="cls-9" x="336.51" y="153.86" width="27.45" height="27.45"/><rect class="cls-9" x="233.48" y="153.71" width="12.59" height="12.59"/><line class="cls-9" x1="370.22" y1="126.52" x2="388.76" y2="126.52"/><line class="cls-9" x1="370.22" y1="131.08" x2="388.76" y2="131.08"/><line class="cls-9" x1="370.22" y1="135.63" x2="388.76" y2="135.63"/><line class="cls-9" x1="370.22" y1="140.19" x2="388.76" y2="140.19"/><line class="cls-9" x1="370.22" y1="144.75" x2="388.76" y2="144.75"/><line class="cls-9" x1="370.22" y1="149.3" x2="388.76" y2="149.3"/><line class="cls-9" x1="370.22" y1="153.86" x2="388.76" y2="153.86"/><line class="cls-9" x1="207.65" y1="86" x2="259.38" y2="86"/><line class="cls-9" x1="207.65" y1="90.55" x2="259.38" y2="90.55"/><line class="cls-9" x1="207.65" y1="95.11" x2="259.38" y2="95.11"/><line class="cls-9" x1="207.65" y1="99.66" x2="259.38" y2="99.66"/><line class="cls-9" x1="207.65" y1="104.22" x2="259.38" y2="104.22"/><line class="cls-9" x1="207.65" y1="108.77" x2="259.38" y2="108.77"/><line class="cls-9" x1="207.65" y1="113.33" x2="259.38" y2="113.33"/><text class="cls-10" transform="translate(74.98 161.12)"><tspan class="cls-11">A</tspan><tspan x="3.79" y="0">T 12:09 PM E</tspan><tspan class="cls-12" x="40.2" y="0">S</tspan><tspan x="43.98" y="0">T</tspan><tspan x="0" y="6.27">NAS</tspan><tspan class="cls-13" x="12.32" y="6.27">A</tspan><tspan x="15.99" y="6.27">’S </tspan><tspan class="cls-14" x="23.11" y="6.27">R</tspan><tspan x="27.19" y="6.27">OCKET</tspan><tspan x="0" y="12.55">LANDS ON THE</tspan><tspan x="0" y="18.82">MARI</tspan><tspan class="cls-11" x="15.17" y="18.82">T</tspan><tspan x="18.45" y="18.82">AN SUR</tspan><tspan class="cls-15" x="40.84" y="18.82">F</tspan><tspan class="cls-16" x="43.91" y="18.82">AC</tspan><tspan x="52.13" y="18.82">E</tspan></text><text class="cls-17" transform="translate(335.88 73.69)">MA<tspan class="cls-18" x="8.95" y="0">R</tspan><tspan class="cls-19" x="12.9" y="0">T</tspan><tspan x="16.38" y="0">IAN 11 LANDS</tspan><tspan class="cls-20" x="0" y="5.69">A</tspan><tspan x="3.65" y="5.69" xml:space="preserve">T  N 41° 4’ 33.07”</tspan></text><path class="cls-2" d="M406.09,155.52H387.42a17,17,0,0,0-17,17v43.72l14.66,86,23.24-.08,14.66-86V172.47A17,17,0,0,0,406.09,155.52Z"/><path d="M383.73,303.9l-14.92-87.57V172.47a18.64,18.64,0,0,1,18.61-18.61h18.67a18.64,18.64,0,0,1,18.61,18.61v43.86l0,.14-14.9,87.34ZM372.13,216l14.4,84.52L407,300.5,421.38,216V172.47a15.31,15.31,0,0,0-15.29-15.29H387.42a15.31,15.31,0,0,0-15.29,15.29Z"/><path d="M396.76,111.3a18.4,18.4,0,1,0,18.4,18.4A18.43,18.43,0,0,0,396.76,111.3Z"/><rect x="391.14" y="149.85" width="11.23" height="5.62"/><path class="cls-2" d="M387.75,128.36v13.79a9,9,0,0,0,9,9h0a9,9,0,0,0,9-9V128.36Z"/><path d="M396.76,152a9.84,9.84,0,0,1-9.83-9.83V127.53h19.67v14.62A9.84,9.84,0,0,1,396.76,152Zm-8.17-22.79v13a8.17,8.17,0,1,0,16.34,0v-13Z"/><path d="M389.89,134.61a3.28,3.28,0,0,1,5,0s.46,1.85-1.85,1.85c0,0,1.44-.52,1.44-1.44s-1.92-1.2-1.92-1.2a.4.4,0,0,0-.43.43c0,.46.52.52.52.52a.51.51,0,0,0,.55-.55c0-.24,1.38.57.61.61A10.39,10.39,0,0,1,389.89,134.61Z"/><path d="M403.63,134.61a3.28,3.28,0,0,0-5,0s-.46,1.85,1.85,1.85c0,0-1.44-.52-1.44-1.44s1.92-1.2,1.92-1.2a.4.4,0,0,1,.43.43c0,.46-.52.52-.52.52a.51.51,0,0,1-.55-.55c0-.24-1.38.57-.61.61A10.39,10.39,0,0,0,403.63,134.61Z"/><path d="M396.06,142.5s-2-1.14-.75-1.14,4.92-.67,2.5,1.14A2.82,2.82,0,0,1,396.06,142.5Z"/><rect x="263.15" y="200.71" width="7.72" height="13.73"/><path class="cls-2" d="M272.85,211.1H261.26a10.53,10.53,0,0,0-10.53,10.53v27.16l9.11,53.45,14.44,0,9.11-53.4V221.63A10.53,10.53,0,0,0,272.85,211.1Z"/><path d="M258.44,303.9l-9.37-55v-27.3a12.21,12.21,0,0,1,12.19-12.19h11.59A12.21,12.21,0,0,1,285,221.63v27.3l0,.14-9.34,54.78Zm-6-55.25,8.85,51.92,11.63,0,8.85-51.88v-27a8.88,8.88,0,0,0-8.87-8.87H261.26a8.88,8.88,0,0,0-8.87,8.87Z"/><path d="M274.63,182.8a8.72,8.72,0,0,0-15.29.09,6.79,6.79,0,0,0,5.26,12.51,8.72,8.72,0,0,0,4.92,0,6.79,6.79,0,0,0,5.11-12.58Z"/><path class="cls-2" d="M258,190.51v8.24a9,9,0,0,0,9,9h0a9,9,0,0,0,9-9V185.88Z"/><path d="M267,208.58a9.84,9.84,0,0,1-9.83-9.83v-8.88l19.67-5.06v13.94A9.84,9.84,0,0,1,267,208.58Zm-8.17-17.43v7.59a8.17,8.17,0,1,0,16.34,0V187Z"/><path d="M264.79,193.65a3.07,3.07,0,0,0-4.5.12c1.37,1.32,3.1.91,3.88.88s-.61-.85-.61-.61-.16.29-.35.28a.8.8,0,0,1-.71-.79s0-.08,0-.12a.4.4,0,0,1,.43-.43s1.4,0,1.4.87C264.32,193.85,265.27,194.11,264.79,193.65Z"/><path d="M269.22,193.65a3.07,3.07,0,0,1,4.5.12c-1.37,1.32-3.1.91-3.88.88s.61-.85.61-.61.16.29.35.28a.8.8,0,0,0,.71-.79s0-.08,0-.12a.4.4,0,0,0-.43-.43s-1.4,0-1.4.87C269.69,193.85,268.74,194.11,269.22,193.65Z"/><path d="M266.25,199.34s-2.17-.81-.81-.81,5.31-.47,2.7.81A4.58,4.58,0,0,1,266.25,199.34Z"/><rect class="cls-21" x="325.76" y="200.71" width="7.72" height="13.73"/><circle cx="329.67" cy="187.79" r="13.54"/><rect x="316.13" y="187.79" width="27.08" height="41.12"/><path class="cls-2" d="M320.66,187.52V195a9,9,0,0,0,9,9h0a9,9,0,0,0,9-9v-7.47Z"/><path d="M329.67,204.82a9.84,9.84,0,0,1-9.83-9.83v-8.3H339.5V195A9.84,9.84,0,0,1,329.67,204.82Zm-8.17-16.47V195a8.17,8.17,0,1,0,16.34,0v-6.64Z"/><path d="M327.45,190.66a3.07,3.07,0,0,0-4.5.12c1.37,1.32,3.1.91,3.88.88s-.61-.85-.61-.61-.16.29-.35.28a.8.8,0,0,1-.71-.79s0-.08,0-.12a.4.4,0,0,1,.43-.43s1.4,0,1.4.87C327,190.85,327.93,191.11,327.45,190.66Z"/><path d="M331.88,190.66a3.07,3.07,0,0,1,4.5.12c-1.37,1.32-3.1.91-3.88.88s.61-.85.61-.61.16.29.35.28a.8.8,0,0,0,.71-.79s0-.08,0-.12a.4.4,0,0,0-.43-.43s-1.4,0-1.4.87C332.35,190.85,331.4,191.11,331.88,190.66Z"/><path d="M328.91,196.35s-2.17-.81-.81-.81,5.31-.47,2.7.81A4.58,4.58,0,0,1,328.91,196.35Z"/><path class="cls-2" d="M335.46,211.1H323.87a10.53,10.53,0,0,0-10.53,10.53v27.16l9.11,53.45,14.44,0,9.11-53.4V221.63A10.53,10.53,0,0,0,335.46,211.1Z"/><path d="M321,303.9l-9.37-55v-27.3a12.21,12.21,0,0,1,12.19-12.19h11.59a12.21,12.21,0,0,1,12.19,12.19v27.3l0,.14-9.34,54.78Zm-6-55.25,8.85,51.92,11.63,0,8.85-51.88v-27a8.88,8.88,0,0,0-8.87-8.87H323.87a8.88,8.88,0,0,0-8.87,8.87Z"/><path class="cls-22" d="M514.31,60.14a261.93,261.93,0,0,1-54.08,128.57"/><path d="M527.87,190.38H457.26V66.25h3.11V186.89h64.38V66.25A3.74,3.74,0,0,0,521,62.51V59.4a6.86,6.86,0,0,1,6.85,6.85Z"/><line class="cls-8" x1="453.52" y1="60.96" x2="521.02" y2="60.96"/><rect x="453.52" y="59.4" width="67.5" height="3.11"/><circle class="cls-2" cx="453.52" cy="66.25" r="5.29"/><path d="M453.52,73.1a6.85,6.85,0,1,1,6.85-6.85A6.86,6.86,0,0,1,453.52,73.1Zm0-10.59a3.74,3.74,0,1,0,3.74,3.74A3.74,3.74,0,0,0,453.52,62.51Z"/></g></g></svg>