<svg xmlns="http://www.w3.org/2000/svg" xmlns:xlink="http://www.w3.org/1999/xlink" viewBox="0 0 592.12 313.9"><defs><style>.cls-1,.cls-10,.cls-11,.cls-4,.cls-9{fill:none;}.cls-2{fill:red;}.cls-3{clip-path:url(#clip-path);}.cls-10,.cls-4{stroke:#fff;}.cls-10,.cls-11,.cls-4,.cls-9{stroke-miterlimit:10;}.cls-4{stroke-width:5px;}.cls-5{clip-path:url(#clip-path-2);}.cls-6{clip-path:url(#clip-path-3);}.cls-12,.cls-7{fill:#fff;}.cls-8{clip-path:url(#clip-path-4);}.cls-11,.cls-9{stroke:red;}.cls-9{stroke-dasharray:8 6;}.cls-12{font-size:9.65px;font-family:Union-Bold, Union;font-weight:700;}.cls-13{letter-spacing:-0.03em;}.cls-14{letter-spacing:0em;}.cls-15{fill:#ed1c24;}</style><clipPath id="clip-path"><path class="cls-1" d="M69.63,61h62.58a4.91,4.91,0,0,1,4.91,4.91V190.38a0,0,0,0,1,0,0H69.63a0,0,0,0,1,0,0V61A0,0,0,0,1,69.63,61Z"/></clipPath><clipPath id="clip-path-2"><path class="cls-1" d="M199.65,61h62.58a4.91,4.91,0,0,1,4.91,4.91V190.38a0,0,0,0,1,0,0h-67.5a0,0,0,0,1,0,0V61A0,0,0,0,1,199.65,61Z"/></clipPath><clipPath id="clip-path-3"><path class="cls-1" d="M459.27,61h62.58a4.91,4.91,0,0,1,4.91,4.91V190.38a0,0,0,0,1,0,0h-67.5a0,0,0,0,1,0,0V61A0,0,0,0,1,459.27,61Z"/></clipPath><clipPath id="clip-path-4"><path class="cls-1" d="M329.67,61h62.58a4.91,4.91,0,0,1,4.91,4.91V190.38a0,0,0,0,1,0,0h-67.5a0,0,0,0,1,0,0V61A0,0,0,0,1,329.67,61Z"/></clipPath></defs><title>Asset 15</title><g id="Layer_2" data-name="Layer 2"><g id="Layer_1-2" data-name="Layer 1"><rect class="cls-2" width="592.12" height="313.9"/><g class="cls-3"><rect x="68.07" y="59.4" width="70.61" height="130.98"/><path class="cls-4" d="M60.29,133.86s477.21-103,492.51,48.24"/></g><g class="cls-5"><rect x="198.09" y="60.18" width="70.61" height="130.98"/><path class="cls-4" d="M60.29,133.86s477.21-103,492.51,48.24"/></g><g class="cls-6"><rect x="457.71" y="60.18" width="70.61" height="130.98"/><path class="cls-4" d="M60.29,133.86s477.21-103,492.51,48.24"/></g><path d="M268.7,190.38H198.09V66.25h3.11V186.89h64.38V66.25a3.74,3.74,0,0,0-3.74-3.74V59.4a6.86,6.86,0,0,1,6.85,6.85Z"/><line class="cls-7" x1="194.36" y1="60.96" x2="261.85" y2="60.96"/><rect x="194.36" y="59.4" width="67.5" height="3.11"/><circle class="cls-2" cx="194.36" cy="66.25" r="5.29"/><path d="M194.36,73.1a6.85,6.85,0,1,1,6.85-6.85A6.86,6.86,0,0,1,194.36,73.1Zm0-10.59a3.74,3.74,0,1,0,3.74,3.74A3.74,3.74,0,0,0,194.36,62.51Z"/><g class="cls-8"><rect x="328.94" y="60.18" width="70.61" height="130.98"/><path class="cls-4" d="M60.29,133.86s477.21-103,492.51,48.24"/><circle class="cls-2" cx="362.42" cy="99.42" r="19.29"/></g><path d="M398.72,190.38H328.11V66.25h3.11V186.89h64.38V66.25a3.74,3.74,0,0,0-3.74-3.74V59.4a6.86,6.86,0,0,1,6.85,6.85Z"/><line class="cls-7" x1="324.38" y1="60.96" x2="391.87" y2="60.96"/><rect x="324.38" y="59.4" width="67.5" height="3.11"/><circle class="cls-2" cx="324.38" cy="66.25" r="5.29"/><path d="M324.38,73.1a6.85,6.85,0,1,1,6.85-6.85A6.86,6.86,0,0,1,324.38,73.1Zm0-10.59a3.74,3.74,0,1,0,3.74,3.74A3.74,3.74,0,0,0,324.38,62.51Z"/><path d="M527.87,190.38H457.26V66.25h3.11V186.89h64.38V66.25A3.74,3.74,0,0,0,521,62.51V59.4a6.86,6.86,0,0,1,6.85,6.85Z"/><line class="cls-7" x1="453.52" y1="60.96" x2="521.02" y2="60.96"/><rect x="453.52" y="59.4" width="67.5" height="3.11"/><circle class="cls-2" cx="453.52" cy="66.25" r="5.29"/><path d="M453.52,73.1a6.85,6.85,0,1,1,6.85-6.85A6.86,6.86,0,0,1,453.52,73.1Zm0-10.59a3.74,3.74,0,1,0,3.74,3.74A3.74,3.74,0,0,0,453.52,62.51Z"/><path d="M138.68,190.38H68.07V66.25h3.11V186.89h64.38V66.25a3.74,3.74,0,0,0-3.74-3.74V59.4a6.86,6.86,0,0,1,6.85,6.85Z"/><line class="cls-7" x1="64.34" y1="60.96" x2="131.83" y2="60.96"/><rect x="64.34" y="59.4" width="67.5" height="3.11"/><circle class="cls-2" cx="64.34" cy="66.25" r="5.29"/><path d="M64.34,73.1a6.85,6.85,0,1,1,6.85-6.85A6.86,6.86,0,0,1,64.34,73.1Zm0-10.59a3.74,3.74,0,1,0,3.74,3.74A3.74,3.74,0,0,0,64.34,62.51Z"/><path class="cls-9" d="M369.14,107.54S510.25,113,492.56,144.27C462,198.41,25.5,153.86,25.5,153.86"/><path class="cls-7" d="M383.2,107.86h-2a5.34,5.34,0,0,0-4.69-4.69v-2h-1.21v2a5.34,5.34,0,0,0-4.69,4.69h-2v1.21h2a5.34,5.34,0,0,0,4.69,4.69v2h1.21v-2a5.34,5.34,0,0,0,4.69-4.69h2Zm-6.73,4.67v-2h-1.21v2a4.12,4.12,0,0,1-3.46-3.46h2v-1.21h-2a4.12,4.12,0,0,1,3.46-3.46v2h1.21v-2a4.12,4.12,0,0,1,3.46,3.46h-2v1.21h2A4.12,4.12,0,0,1,376.47,112.53Z"/><rect class="cls-10" x="94.65" y="153.86" width="17.31" height="17.31"/><line class="cls-10" x1="115.91" y1="153.86" x2="127.6" y2="153.86"/><line class="cls-10" x1="115.91" y1="156.73" x2="127.6" y2="156.73"/><line class="cls-10" x1="115.91" y1="159.6" x2="127.6" y2="159.6"/><line class="cls-10" x1="115.91" y1="162.48" x2="127.6" y2="162.48"/><line class="cls-10" x1="115.91" y1="165.35" x2="127.6" y2="165.35"/><line class="cls-10" x1="115.91" y1="168.22" x2="127.6" y2="168.22"/><line class="cls-10" x1="115.91" y1="171.1" x2="127.6" y2="171.1"/><rect class="cls-10" x="485" y="129.28" width="17.31" height="17.31"/><line class="cls-10" x1="468.7" y1="129.28" x2="480.39" y2="129.28"/><line class="cls-10" x1="468.7" y1="132.15" x2="480.39" y2="132.15"/><line class="cls-10" x1="468.7" y1="135.02" x2="480.39" y2="135.02"/><line class="cls-10" x1="468.7" y1="137.89" x2="480.39" y2="137.89"/><line class="cls-10" x1="468.7" y1="140.77" x2="480.39" y2="140.77"/><line class="cls-10" x1="468.7" y1="143.64" x2="480.39" y2="143.64"/><line class="cls-10" x1="468.7" y1="146.51" x2="480.39" y2="146.51"/><rect class="cls-11" x="213.11" y="99.81" width="17.31" height="17.31"/><line class="cls-11" x1="234.37" y1="117.05" x2="246.06" y2="117.05"/><line class="cls-11" x1="234.37" y1="119.92" x2="246.06" y2="119.92"/><line class="cls-11" x1="234.37" y1="122.8" x2="246.06" y2="122.8"/><line class="cls-11" x1="234.37" y1="125.67" x2="246.06" y2="125.67"/><line class="cls-11" x1="234.37" y1="128.54" x2="246.06" y2="128.54"/><line class="cls-11" x1="234.37" y1="131.42" x2="246.06" y2="131.42"/><line class="cls-11" x1="234.37" y1="134.29" x2="246.06" y2="134.29"/><text class="cls-12" transform="translate(332.78 154.88)">WE H<tspan class="cls-13" x="25.25" y="0">A</tspan><tspan class="cls-14" x="31.74" y="0">VE</tspan><tspan x="0" y="9.65">LANDED</tspan><tspan x="0" y="19.31">ON THE</tspan><tspan x="0" y="28.96">RED PLANET</tspan></text><path class="cls-2" d="M207.42,155.52H188.76a17,17,0,0,0-17,17v43.72l14.66,86,23.24-.08,14.66-86V172.47A17,17,0,0,0,207.42,155.52Z"/><path d="M185.07,303.9l-14.92-87.57V172.47a18.64,18.64,0,0,1,18.61-18.61h18.67A18.64,18.64,0,0,1,226,172.47v43.86l0,.14-14.9,87.34ZM173.47,216l14.4,84.52,20.44-.07L222.72,216V172.47a15.31,15.31,0,0,0-15.29-15.29H188.76a15.31,15.31,0,0,0-15.29,15.29Z"/><path d="M198.09,111.3a18.4,18.4,0,1,0,18.4,18.4A18.43,18.43,0,0,0,198.09,111.3Z"/><rect x="192.47" y="149.85" width="11.23" height="5.62"/><path class="cls-2" d="M189.09,128.36v13.79a9,9,0,0,0,9,9h0a9,9,0,0,0,9-9V128.36Z"/><path d="M198.09,152a9.84,9.84,0,0,1-9.83-9.83V127.53h19.67v14.62A9.84,9.84,0,0,1,198.09,152Zm-8.17-22.79v13a8.17,8.17,0,1,0,16.34,0v-13Z"/><path d="M191.22,134.61a3.28,3.28,0,0,1,5,0s.46,1.85-1.85,1.85c0,0,1.44-.52,1.44-1.44s-1.92-1.2-1.92-1.2a.4.4,0,0,0-.43.43c0,.46.52.52.52.52a.51.51,0,0,0,.55-.55c0-.24,1.38.57.61.61A10.39,10.39,0,0,1,191.22,134.61Z"/><path d="M205,134.61a3.28,3.28,0,0,0-5,0s-.46,1.85,1.85,1.85c0,0-1.44-.52-1.44-1.44s1.92-1.2,1.92-1.2a.4.4,0,0,1,.43.43c0,.46-.52.52-.52.52a.51.51,0,0,1-.55-.55c0-.24-1.38.57-.61.61A10.39,10.39,0,0,0,205,134.61Z"/><path d="M197.39,142.5s-2-1.14-.75-1.14,4.92-.67,2.5,1.14A2.82,2.82,0,0,1,197.39,142.5Z"/><rect x="264.8" y="200.71" width="7.72" height="13.73"/><path class="cls-2" d="M274.5,211.1H262.91a10.53,10.53,0,0,0-10.53,10.53v27.16l9.11,53.45,14.44,0,9.11-53.4V221.63A10.53,10.53,0,0,0,274.5,211.1Z"/><path d="M260.08,303.9l-9.37-55v-27.3a12.21,12.21,0,0,1,12.19-12.19H274.5a12.21,12.21,0,0,1,12.19,12.19v27.3l0,.14-9.34,54.78Zm-6-55.25,8.85,51.92,11.63,0,8.85-51.88v-27a8.88,8.88,0,0,0-8.87-8.87H262.91a8.88,8.88,0,0,0-8.87,8.87Z"/><path d="M276.28,182.8a8.72,8.72,0,0,0-15.29.09,6.79,6.79,0,0,0,5.26,12.51,8.72,8.72,0,0,0,4.92,0,6.79,6.79,0,0,0,5.11-12.58Z"/><path class="cls-2" d="M259.65,190.51v8.24a9,9,0,0,0,9,9h0a9,9,0,0,0,9-9V185.88Z"/><path d="M268.65,208.58a9.84,9.84,0,0,1-9.83-9.83v-8.88l19.67-5.06v13.94A9.84,9.84,0,0,1,268.65,208.58Zm-8.17-17.43v7.59a8.17,8.17,0,1,0,16.34,0V187Z"/><path d="M266.44,193.65a3.07,3.07,0,0,0-4.5.12c1.37,1.32,3.1.91,3.88.88s-.61-.85-.61-.61-.16.29-.35.28a.8.8,0,0,1-.71-.79s0-.08,0-.12a.4.4,0,0,1,.43-.43s1.4,0,1.4.87C266,193.85,266.92,194.11,266.44,193.65Z"/><path d="M270.87,193.65a3.07,3.07,0,0,1,4.5.12c-1.37,1.32-3.1.91-3.88.88s.61-.85.61-.61.16.29.35.28a.8.8,0,0,0,.71-.79s0-.08,0-.12a.4.4,0,0,0-.43-.43s-1.4,0-1.4.87C271.34,193.85,270.39,194.11,270.87,193.65Z"/><path d="M267.9,199.34s-2.17-.81-.81-.81,5.31-.47,2.7.81A4.58,4.58,0,0,1,267.9,199.34Z"/><rect class="cls-15" x="323.99" y="200.71" width="7.72" height="13.73"/><circle cx="327.9" cy="187.79" r="13.54"/><rect x="314.36" y="187.79" width="27.08" height="41.12"/><path class="cls-2" d="M318.9,187.52V195a9,9,0,0,0,9,9h0a9,9,0,0,0,9-9v-7.47Z"/><path d="M327.9,204.82a9.84,9.84,0,0,1-9.83-9.83v-8.3h19.67V195A9.84,9.84,0,0,1,327.9,204.82Zm-8.17-16.47V195a8.17,8.17,0,1,0,16.34,0v-6.64Z"/><path d="M325.69,190.66a3.07,3.07,0,0,0-4.5.12c1.37,1.32,3.1.91,3.88.88s-.61-.85-.61-.61-.16.29-.35.28a.8.8,0,0,1-.71-.79s0-.08,0-.12a.4.4,0,0,1,.43-.43s1.4,0,1.4.87C325.22,190.85,326.17,191.11,325.69,190.66Z"/><path d="M330.12,190.66a3.07,3.07,0,0,1,4.5.12c-1.37,1.32-3.1.91-3.88.88s.61-.85.61-.61.16.29.35.28a.8.8,0,0,0,.71-.79s0-.08,0-.12A.4.4,0,0,0,332,190s-1.4,0-1.4.87C330.59,190.85,329.64,191.11,330.12,190.66Z"/><path d="M327.15,196.35s-2.17-.81-.81-.81,5.31-.47,2.7.81A4.58,4.58,0,0,1,327.15,196.35Z"/><path class="cls-2" d="M333.7,211.1H322.11a10.53,10.53,0,0,0-10.53,10.53v27.16l9.11,53.45,14.44,0,9.11-53.4V221.63A10.53,10.53,0,0,0,333.7,211.1Z"/><path d="M319.28,303.9l-9.37-55v-27.3a12.21,12.21,0,0,1,12.19-12.19H333.7a12.21,12.21,0,0,1,12.19,12.19v27.3l0,.14-9.34,54.78Zm-6-55.25,8.85,51.92,11.63,0,8.85-51.88v-27a8.88,8.88,0,0,0-8.87-8.87H322.11a8.88,8.88,0,0,0-8.87,8.87Z"/></g></g></svg>