<svg xmlns="http://www.w3.org/2000/svg" viewBox="0 0 235.94 235.94"><defs><style>.cls-1{fill:red;}.cls-1,.cls-2,.cls-3{stroke:#000;stroke-miterlimit:10;stroke-width:2.73px;}.cls-2{fill:none;}.cls-3{fill:#ed1c24;}.cls-4{font-size:5.88px;font-family:Union-Bold, Union;font-weight:700;}.cls-4,.cls-8{fill:#fff;}.cls-5{letter-spacing:-0.02em;}.cls-6{letter-spacing:0em;}.cls-7{letter-spacing:-0.02em;}</style></defs><title>nuke_03_1</title><g id="Layer_2" data-name="Layer 2"><g id="Layer_1-2" data-name="Layer 1"><rect class="cls-1" x="1.36" y="1.36" width="233.21" height="233.21"/><path class="cls-1" d="M72.06,65.67a3.46,3.46,0,0,1,3.46,3.46v80.17H31.37V65.67"/><line class="cls-2" x1="27.91" y1="65.67" x2="72.06" y2="65.67"/><circle class="cls-3" cx="27.91" cy="69.14" r="3.46"/><path class="cls-2" d="M53,129.19"/><text class="cls-4" transform="translate(35.58 126.58)"><tspan class="cls-5">F<tspan class="cls-6" x="3.32" y="0">OREIGN</tspan></tspan><tspan x="0" y="5.88">NUCLEAR</tspan><tspan class="cls-7" x="0" y="11.77">S</tspan><tspan x="3.76" y="11.77">TRIKE</tspan><tspan x="0" y="17.65">IMMINENT</tspan></text><rect class="cls-1" x="181.7" y="149.31" width="52.87" height="85.26"/><rect class="cls-1" x="53.48" y="185.61" width="56.98" height="48.97"/><rect class="cls-1" x="110.46" y="185.61" width="124.11" height="48.97"/><path class="cls-1" d="M171.33,175.81l8.18-8.18a10.85,10.85,0,0,1,7.67-3.18h33.53a5.74,5.74,0,0,1,4.06,9.8l-7.88,7.88a10.85,10.85,0,0,1-7.57,3.18l-33.87.3A5.74,5.74,0,0,1,171.33,175.81Z"/><circle class="cls-1" cx="191.03" cy="171.93" r="13.68"/><path class="cls-1" d="M76.08,162.62h92.34a22.6,22.6,0,0,1,22.6,22.6v0a0,0,0,0,1,0,0H53.48a0,0,0,0,1,0,0v0A22.6,22.6,0,0,1,76.08,162.62Z"/><path class="cls-8" d="M52.93,79.71a17.48,17.48,0,0,1,7.18,1.51c.67.3.8.64.49,1.32L57,90.39c-.3.65-.62.78-1.29.5a6.76,6.76,0,0,0-5.34,0c-.67.28-1,.16-1.29-.5l-3.62-7.84c-.32-.69-.19-1,.52-1.33A17.19,17.19,0,0,1,52.93,79.71Z"/><path class="cls-8" d="M45.33,97.12a.73.73,0,0,1,.81.67,6.82,6.82,0,0,0,2.85,5,.74.74,0,0,1,.17,1.1q-2.59,3.68-5.2,7.36c-.33.46-.74.48-1.26.1a17,17,0,0,1-6.34-8.74,31.19,31.19,0,0,1-.78-3.7.72.72,0,0,1,.73-.91l4.95-.46Z"/><path class="cls-8" d="M61.1,97.16l8.28.75c.88.08,1.07.32,1,1.2a17.25,17.25,0,0,1-7.07,12.17c-.59.44-1,.38-1.38-.23l-5-7.06c-.42-.59-.36-.92.21-1.36a6.76,6.76,0,0,0,2.67-4.54C59.91,97.2,60.07,97.08,61.1,97.16Z"/><path class="cls-8" d="M53,101a3.79,3.79,0,1,1,3.78-3.78A3.79,3.79,0,0,1,53,101Z"/></g></g></svg>