<svg xmlns="http://www.w3.org/2000/svg" viewBox="0 0 235.94 235.94"><defs><style>.cls-1,.cls-5{fill:red;}.cls-1,.cls-2{stroke:#000;stroke-width:2.73px;}.cls-1,.cls-2,.cls-3,.cls-4{stroke-miterlimit:10;}.cls-2,.cls-3{fill:none;}.cls-3{stroke:#fff;stroke-width:0.91px;}.cls-4,.cls-6{fill:#fff;}.cls-4{stroke:red;stroke-width:2px;}.cls-6{font-size:5.88px;font-family:Union-Bold, Union;font-weight:700;}</style></defs><title>nuke_04_2</title><g id="Layer_2" data-name="Layer 2"><g id="Layer_1-2" data-name="Layer 1"><rect class="cls-1" x="1.36" y="1.36" width="233.21" height="233.21"/><path class="cls-1" d="M72.06,65.67a3.46,3.46,0,0,1,3.46,3.46v80.17H31.37V65.67"/><line class="cls-2" x1="27.91" y1="65.67" x2="72.06" y2="65.67"/><circle class="cls-1" cx="27.91" cy="69.14" r="3.46"/><path class="cls-2" d="M53,129.19"/><rect class="cls-1" x="181.7" y="149.31" width="52.87" height="85.26"/><rect class="cls-1" x="53.48" y="185.61" width="56.98" height="48.97"/><rect class="cls-1" x="110.46" y="185.61" width="124.11" height="48.97"/><path class="cls-1" d="M171.33,175.81l8.18-8.18a10.85,10.85,0,0,1,7.67-3.18h33.53a5.74,5.74,0,0,1,4.06,9.8l-7.88,7.88a10.85,10.85,0,0,1-7.57,3.18l-33.87.3A5.74,5.74,0,0,1,171.33,175.81Z"/><circle class="cls-1" cx="186.45" cy="117.97" r="13.68"/><path class="cls-1" d="M186.45,131.65h0a26.28,26.28,0,0,1,26.28,26.28v0a26.28,26.28,0,0,1-26.28,26.28H160.17a0,0,0,0,1,0,0V157.93A26.28,26.28,0,0,1,186.45,131.65Z"/><path class="cls-1" d="M76.08,162.62h92.34a22.6,22.6,0,0,1,22.6,22.6v0a0,0,0,0,1,0,0H53.48a0,0,0,0,1,0,0v0a22.6,22.6,0,0,1,22.6-22.6Z"/><polyline class="cls-3" points="71.61 145.16 35.35 145.16 35.35 70.16 71.61 70.16"/><line class="cls-3" x1="51.73" y1="139.34" x2="71.61" y2="139.34"/><line class="cls-3" x1="51.73" y1="133.55" x2="71.61" y2="133.55"/><line class="cls-3" x1="35.35" y1="127.76" x2="71.61" y2="127.76"/><line class="cls-3" x1="35.35" y1="121.97" x2="71.61" y2="121.97"/><line class="cls-3" x1="35.38" y1="116.19" x2="71.64" y2="116.18"/><line class="cls-3" x1="35.37" y1="110.4" x2="71.63" y2="110.39"/><line class="cls-3" x1="35.36" y1="104.62" x2="71.62" y2="104.61"/><line class="cls-3" x1="35.36" y1="98.83" x2="71.61" y2="98.82"/><line class="cls-3" x1="35.35" y1="93.04" x2="71.6" y2="93.03"/><line class="cls-3" x1="35.34" y1="87.26" x2="71.6" y2="87.25"/><line class="cls-3" x1="35.33" y1="81.47" x2="71.59" y2="81.46"/><line class="cls-3" x1="35.33" y1="75.68" x2="71.58" y2="75.67"/><polygon class="cls-4" points="49.79 77.65 49.79 100.43 53.46 106.88 57.13 100.43 57.13 77.65 49.79 77.65"/><rect class="cls-5" x="36.71" y="130.15" width="20.42" height="13.1"/><text class="cls-6" transform="translate(37.62 136.45)">GOOD<tspan x="0" y="5.88">LUCK!</tspan></text></g></g></svg>