<svg xmlns="http://www.w3.org/2000/svg" viewBox="0 0 235.94 235.94"><defs><style>.cls-1{fill:#fff;}.cls-1,.cls-2{stroke:#000;}.cls-1,.cls-2,.cls-3{stroke-miterlimit:10;stroke-width:2.73px;}.cls-2,.cls-3{fill:none;}.cls-3{stroke:#ed1c24;}</style></defs><title>nuke_02</title><g id="Layer_2" data-name="Layer 2"><g id="Layer_1-2" data-name="Layer 1"><rect class="cls-1" x="1.36" y="1.36" width="233.21" height="233.21"/><polyline class="cls-2" points="75.38 72.6 75.38 149.31 31.23 149.31 31.23 72.6"/><path class="cls-2" d="M71.91,65.67a3.46,3.46,0,0,1,3.46,3.46V111H31.23V69.14"/><line class="cls-2" x1="27.77" y1="65.67" x2="71.91" y2="65.67"/><circle class="cls-2" cx="27.77" cy="69.14" r="3.46"/><line class="cls-2" x1="53.3" y1="110.96" x2="53.3" y2="149.31"/><polyline class="cls-3" points="64.64 94.66 64.64 127.25 67.97 123.92"/><polyline class="cls-3" points="42.59 94.66 42.59 127.25 45.92 123.92"/><rect class="cls-2" x="181.7" y="149.31" width="52.87" height="85.26"/><rect class="cls-1" x="53.48" y="185.61" width="56.98" height="48.97"/><rect class="cls-1" x="110.46" y="185.61" width="124.11" height="48.97"/><path class="cls-1" d="M171.33,175.81l8.18-8.18a10.85,10.85,0,0,1,7.67-3.18h33.53a5.74,5.74,0,0,1,4.06,9.8l-7.88,7.88a10.85,10.85,0,0,1-7.57,3.18l-33.87.3A5.74,5.74,0,0,1,171.33,175.81Z"/><circle class="cls-1" cx="191.03" cy="171.93" r="13.68"/><path class="cls-1" d="M76.08,162.62h92.34a22.6,22.6,0,0,1,22.6,22.6v0a0,0,0,0,1,0,0H53.48a0,0,0,0,1,0,0v0A22.6,22.6,0,0,1,76.08,162.62Z"/></g></g></svg>